<?xml version="1.0" encoding="UTF-8"?>
<svg id="Layer_1" data-name="Layer 1" xmlns="http://www.w3.org/2000/svg" version="1.1" viewBox="0 0 342 342">
  <defs>
    <style>
      .cls-1 {
        fill: #03713e;
      }

      .cls-1, .cls-2 {
        stroke-width: 0px;
      }

      .cls-2 {
        fill: #2a2c41;
        fill-rule: evenodd;
      }
    </style>
  </defs>
  <path class="cls-2" d="M-180,279.4c2.1,3,3.2,6.5,3.2,10.8s-1.1,7.8-3.2,10.7c-2.3,3.3-5.4,4.9-9.4,4.9s-7.1-1.6-9.4-4.9c-2.1-2.9-3.1-6.5-3.1-10.7s1-7.8,3.1-10.8c2.3-3.2,5.4-4.9,9.4-4.9s7.1,1.6,9.4,4.9ZM-188.8,380.6c-3.2,0-5.9,1.1-8,3.4-2.4,2.6-3.5,5.8-3.5,9.6h22.6c0-3.8-1.1-7-3.3-9.6-2-2.3-4.6-3.4-7.8-3.4ZM-135.1,171.9c-2-2.3-4.6-3.4-7.8-3.4s-5.9,1.1-8,3.4c-2.4,2.6-3.5,5.8-3.5,9.6h22.6c0-3.8-1.1-7-3.3-9.6ZM-26.9,112.4v342h-342V112.4H-26.9ZM-269.6,169.1h5v26.9c0,2.6.4,4.5,1.1,5.6.9,1.2,2.5,1.9,4.8,1.9s1.6,0,2.4-.2c.8-.1,1.8-.3,2.8-.6v-3.3h-.7c-.8.3-1.5.4-1.9.5-.6.1-1.1.2-1.5.2-1.2,0-1.9-.3-2.3-1-.3-.6-.5-1.5-.5-2.9v-26.9h6.9v-3.5h-6.9v-10.6h-4.2v10.6h-5v3.5ZM-238.5,391.1c0-2.4,0-4.1-.2-5.2-.2-1.6-.6-2.9-1.2-3.9-1-1.7-2.5-3-4.4-3.9-1.9-.9-4.2-1.3-6.7-1.3s-5,.6-7.1,1.7c-2,1.2-3.7,2.9-5.1,5.1v-5.9h-4.2v36.9h4.2v-21.7c0-3.8,1-6.9,3.1-9.1,2-2.2,4.8-3.3,8.2-3.3s6.1.9,7.4,2.7c1.2,1.6,1.8,4.3,1.8,8.3v23h4.2v-23.5ZM-238.5,295.9h-4.2c-.5,3.1-1.7,5.5-3.6,7.3-1.9,1.8-4.3,2.6-7.1,2.6s-6.6-1.4-8.8-4.1c-2.2-2.8-3.3-6.7-3.3-11.6s1.1-8.7,3.3-11.5c2.2-2.7,5.1-4,8.7-4s5.1.8,7,2.4c1.9,1.6,3.1,3.8,3.5,6.5h4.1c-.2-3.8-1.7-6.8-4.4-9.2-2.7-2.3-6.1-3.5-10.2-3.5s-9.1,1.7-12,5.1c-3,3.5-4.4,8.4-4.4,14.5s1.5,10.6,4.4,14c2.9,3.4,6.8,5.1,11.8,5.1s7.9-1.2,10.6-3.7c2.7-2.5,4.3-5.8,4.7-10ZM-213.5,171.7c2-2.2,4.7-3.3,8-3.3s5.9.9,7.1,2.8c1.1,1.7,1.7,4.6,1.7,8.8v22.4h4.2v-22.5c0-2.8,0-4.7-.2-5.8-.2-1.8-.7-3.2-1.3-4.3-1-1.6-2.5-2.9-4.4-3.8-1.9-.9-4-1.4-6.3-1.4s-4.8.6-6.9,1.7c-2,1.1-3.7,2.8-5.1,5v-20.1h-4.2v51.2h4.2v-21.7c0-3.8,1-6.8,3.1-9.1ZM-173.3,395.5c0-5.9-1.4-10.5-4.2-13.9-2.8-3.2-6.5-4.9-11.2-4.9s-8.9,1.7-11.7,5.1c-2.9,3.5-4.3,8.3-4.3,14.5s1.4,10.8,4.2,14.2c2.8,3.4,6.7,5.1,11.6,5.1s7.5-1.2,10.2-3.5c2.8-2.3,4.4-5.3,4.9-9h-4.2c-.4,2.6-1.6,4.7-3.5,6.3-1.9,1.5-4.2,2.3-6.9,2.3s-6.3-1.3-8.5-4c-2.2-2.7-3.3-6.3-3.3-11h27v-1.4ZM-172.4,290.3c0-5.3-1.4-9.7-4.2-13.4-3.1-4-7.4-6-12.7-6s-9.6,2-12.7,6c-2.8,3.7-4.2,8.1-4.2,13.4s1.4,9.6,4.2,13.3c3.1,4.1,7.4,6.1,12.7,6.1s9.6-2,12.7-6.1c2.8-3.6,4.2-8,4.2-13.3ZM-143,203.6c4.1,0,7.5-1.2,10.2-3.5,2.8-2.3,4.4-5.3,4.9-9h-4.2c-.4,2.6-1.6,4.7-3.5,6.3-1.9,1.5-4.2,2.3-6.9,2.3s-6.3-1.3-8.5-4c-2.2-2.7-3.3-6.3-3.3-11h27v-1.4c0-5.9-1.4-10.5-4.2-13.9-2.8-3.2-6.5-4.9-11.2-4.9s-8.9,1.7-11.7,5.1c-2.9,3.5-4.3,8.3-4.3,14.5s1.4,10.8,4.2,14.2c2.8,3.4,6.7,5.1,11.6,5.1ZM-124.4,376.8h-.5c-2.5,0-4.6.6-6.4,1.7-1.9,1.2-3.4,3.1-4.4,5.6v-6.5h-4.2v36.9h4.2v-20.5c0-4.3.9-7.5,2.8-9.7,1.8-2.2,4.4-3.3,7.8-3.3h.6v-4.4ZM-123.3,270.8h-.5c-2.5,0-4.6.6-6.4,1.7-1.9,1.2-3.4,3.1-4.4,5.6v-6.5h-4.2v36.9h4.2v-20.5c0-4.3.9-7.5,2.8-9.7,1.8-2.2,4.4-3.3,7.8-3.3h.6v-4.4Z"/>
  <g id="BdIoEl.tif">
    <g>
      <path class="cls-1" d="M5,214.7c0-36.6,0-73.2,0-109.8,110.4,0,220.7,0,331.1,0,.3.4.6.9.9,1.3v108.2c-.4.5-.8.9-1.2,1.4h-36c0,.5,0,.9-.2,1.2-.8,2.4-1.7,4.7-2.3,7.2-.6,2.1-1.2,4.2-2.2,6.2-2.1,4.1-7.2,6.8-11.1,6.8-75.3,0-150.5,0-225.8,0-1.2,0-2.5,0-3.6-.5-3.1-1.4-6.1-3-7.5-6.5-.4-1-1.1-1.8-1.3-2.8-.4-1.6-.9-3.1-1.4-4.7-.7-2.3-1.4-4.7-2.2-7H6.3c-.6-.4-.9-.7-1.3-.9ZM38.9,186c0-13.9,0-27.6,0-41.3,0,0,0-.1.2-.2,0,0,.1,0,.2,0,.3,1.8.9,3.6,1.1,5.5.1,1,.1,2.2.4,3.1.9,2.6,1,5.4,1.8,8.1.4,1.1,0,2.6.6,3.6.6,1.1-.1,2.5.9,3.5.4,3.3,1.3,6.5,1.9,9.7.5,2.7,1.1,5.3,1.6,7.9h4.6c.3-2,.7-3.9,1.1-5.8.7-2.9,1.1-5.9,1.7-8.8.4-2,.8-4,1.1-6,.4-2.3.9-4.6,1.4-6.8.2-1,.1-2.1.5-2.9.6-1.1.1-2.2.8-3.3.5-.9.3-2.2.6-3.3.3-1.5.7-3.1,1.1-4.6.1,0,.2,0,.3,0v41.4h8v-54.8h-12.2c-.2.8-.6,1.5-.6,2.2,0,2.1-1.1,4-1,6-.8.7-.2,2-1,2.7.3,1.1-.5,2.1-.5,3.1,0,1-.1,2-.5,2.9-.4.9-.2,1.9-.5,2.7-.7,2.1-1,4.4-1.5,6.6-.2.8-.2,1.6-.4,2.4-.2.8-.7,1.6-1.1,2.7-2.2-10.7-4.4-21-6.6-31.4-4,0-8,0-11.9,0,0,0-.1,0-.2,0,0,0-.1.1,0,0v54.7h8.1ZM311.6,186v-54.8h-9v30.8c-.7-1.7-1.4-3.1-1.9-4.6-1.3-4.4-3.1-8.6-4.6-12.9-1.1-3.4-2.7-6.7-3.6-10.2-.3-1.1-1-2.1-1.5-3.1h-8.9v54.8h9c0-10.9,0-21.7,0-32.5,0,0,0-.1,0-.2,0,0,.1,0,.3-.2,0,.5,0,.9,0,1.2,1.8,3.1,2.3,6.7,3.8,9.9,1.3,3,2.1,6.3,3.3,9.4,1.4,3.6,2.4,7.4,3.9,11,.2.5.3,1,.4,1.5h8.6ZM12.2,112.5v93.1c0,.6,0,1.1,0,1.7,0,.4.4.8.5,1.2,7.6,0,15.1,0,22.6,0,3.1,0,6.2-.4,9.4-.6,0-.6,0-1.2-.1-1.8H14.1v-89.1c0-.3,0-.6,0-1,0-.7.2-1.2.8-1.5,104.2,0,208.5,0,312.7,0,0,0,.1,0,.2,0,0,0,.1.1,0,0v91.5h-29.9q-.8,1.2,0,2.3h31.1c1.2-.7.7-1.7.7-2.5,0-30.5,0-61,0-91.4v-1.9H12.2ZM170.1,131.2v2.4c0,12.2,0,24.5,0,36.7,0,1.6,0,3.2-.4,4.8-.4,1.7-1.4,2.6-2.8,3.2-.5.2-1.2,0-1.5.3-.8.7-1-.4-1.7-.3-1.6.2-2.4-.9-3.1-2.1-.5-.8-.5-1.7-.5-2.7,0-13.4,0-26.7,0-40.1v-2.4c-3.3,0-6.4,0-9.6,0,0,14,0,27.9,0,41.7,0,1.5,0,2.9.4,4.3.8,2.6,2,4.9,4,6.7,1,.9,2.4,1.6,3.7,2.1,1.4.5,2.9.9,4.4.9,2,0,4,.1,6-.4,4.3-1,7.4-3.2,9.2-7.2,1-2.3,1.4-4.8,1.4-7.3,0-13,0-25.9,0-38.9v-2.1h-9.6ZM140.4,148.7c-.2-2.1,0-4-.4-6-.5-2.3-1-4.5-2.3-6.5-3.3-4.7-6.5-5.6-11.1-6-1.4-.1-2.7,0-4.1.4-2.7.6-4.9,1.8-6.9,3.6-1.2,1.1-1.7,2.7-2.4,4-.7,1.2-1,2.6-1,4.1,0,10.7,0,21.5,0,32.2,0,2.5.8,4.7,2,6.8.5,1,1.2,2.1,2.1,2.7,2.8,1.8,5.8,3.2,9.3,3,2.7-.2,5-1.1,6.9-2.9.6-.5,1.1-1,1.8-1.7.7,1.3,1.3,2.5,1.9,3.5h4.7v-27.5h-15.7c0,2.3,0,4.6,0,6.8,0,0,0,.1.2.3h5.6c.2.5.4,1,.4,1.5,0,2.3,0,4.6-.4,7-.2,1.3-.7,2.3-1.2,3.3-.2.5-1.2,1.2-1.6,1-1-.4-1.6,1-2.6.3-.4-.3-1-.2-1.6-.3-1.7-1.2-2.2-2.9-2.2-5,0-9.8,0-19.6,0-29.4,0-2.1.4-4,2.3-5.2,1,0,1.9,0,2.9,0,.4,0,.8.3,1.3.4,2.1.6,2.5,2.5,2.6,4.1.1,1.9.8,3.6.6,5.4h9.1ZM236.1,186v-1.4c0-5.7,0-11.5,0-17.2,0-2.1,1.8-3.4,2.4-5.2.2-.4.6-.8,1.2-1.5.3,2,1,3.5,1.3,5.1.3,1.6.9,3.2,1.4,4.7,1.2,3.6,2.2,7.2,3.3,10.8.5,1.6,1.1,3.2,1.6,4.6h9.5c-.4-1.4-.6-2.7-1.1-4-3.5-9.6-6.5-19.3-9.8-28.9-.3-.9-.3-1.7.2-2.6,2-3.9,3.7-8,5.8-11.9,1.2-2.3,2.3-4.8,3.5-7.3h-9.3c-3.2,6.6-6.5,13.2-9.9,20.1v-20.1h-9.5v54.7h9.5ZM217.4,149.2c0-1.7,0-3.2,0-4.7-.1-1.5-.6-2.9-.9-4.4-.6-3.5-3.6-7.2-6.8-8.6-1.8-.8-3.7-1.1-5.6-1.4-.8-.1-1.6,0-2.4,0-.7,0-1.5.3-2.2.5-1.3.3-2.7.4-3.8,1.1-1.9,1.1-3.6,2.7-5,4.6-.9,1.2-1.9,5.2-1.9,6.6,0,10.4,0,20.8,0,31.3,0,1.2.1,2.3.5,3.4,1,2.5,2.1,4.8,4.4,6.6,2.4,1.9,5.1,2.6,7.9,2.8,3.7.4,3.9.1,8.3-1.4,1.7-.6,4.4-2.8,5.3-4.3,1.3-2.2,2.1-4.6,2.3-7.1.3-2.5,0-5.1,0-7.6h-9.6c0,2.5.1,4.9,0,7.3-.1,1.8-.5,3.6-2.4,4.4-1.9.8-3.6.4-5.3-.4-.6-.3-1.1-.9-1.4-1.7-.3-.9-.4-1.8-.4-2.7,0-7.5,0-15,0-22.4s0-5.4,0-8.1c0-1.4.6-2.8,1.5-3.4,1.3-1,4.6-.9,6-.2.3.1.6.4.7.7.6,1.7,1.7,3.2,1.5,5.1,0,.7,0,1.4,0,2.1,0,.7,0,1.4,0,2h9.5ZM94.9,156.9c0,1.7,0,3.4,0,5,0,1.4-.7,2.5-1.6,3.4-.6.6-1.7.9-2.6,1.1-.5.1-1.1-.3-1.7-.4-1.9-.6-3.1-2.1-3.1-4.1,0-6.5,0-13,0-19.6,0-.9.3-1.8.7-2.6,1-1.6,3.6-2.5,5.3-1.9,1.6.6,3,2.5,3,4.4,0,1,0,2,0,3.1h8.6c-.1-1.9.2-3.7-.5-5.5-.7-1.7-1.2-3.5-2.3-5-.9-1.2-2.2-2.1-3.6-2.8-1.4-.8-3-1.2-4.5-1.3-2.8-.3-5.6-.3-8.2.9-2.1.9-4,2.1-5.1,4.3-1.4,2.6-2.2,5.4-2.2,8.4,0,5.1,0,10.2,0,15.3,0,1.5.2,2.9.4,4.3.5,3.5,2.8,5.5,5,7.7.3.3.8.4,1.2.6,1.9.5,3.8,1.2,5.8,1,1.2-.1,2.4,0,3.6,0,1.7-.2,3.4-.7,4.8-1.6,1.4-.9,2.5-2.4,3.5-3.8,1.2-1.6,1.6-3.5,1.9-5.4.3-1.8,0-3.6,0-5.4h-8.6ZM262.5,131.1v54.9c3.2,0,6.4,0,9.4-.1v-54.8h-9.4ZM269.7,228.4c0-.2,0-.4,0-.6-.4-.2-.8-.6-1.3-.7-.5-.1-1.1,0-1.7,0H75.3c-.5,0-1,0-1.4,0-.9,0-1.3.4-1.5,1.1.7,1.3,1.8.8,2.8.8,63.9,0,127.8,0,191.6,0s1,0,1.4,0c.5-.1.9-.4,1.4-.6ZM175.7,197.5c.2,1.6,0,2.9.5,4.3.5,1.3.4,2.9.6,4.3.1,1.4.3,2.8.6,4.1.4,1.4.3,2.8.7,4.2.4,1.2.2,2.7.8,4h3.7c.5-3.7,1.1-7.3,1.7-11.2.6,4,1.1,7.6,1.7,11.2h3.7c.4-1.3.8-2.6.6-3.9,0-.2,0-.4,0-.5.8-.8.2-1.9.5-2.7.4-1,.4-1.9.4-2.9,0-.2-.1-.6,0-.7.9-.8.1-1.9.5-2.7.5-.9.4-1.8.4-2.7,0-.3,0-.7,0-.9.9-1.3.2-2.7.4-4h-3.3c-.3,2.4-.7,4.7-.9,7,0,1.2-.5,2.2-.8,3.3-.2-.6,0-1.4-.2-1.8-.6-1-.3-2-.4-2.9-.1-1-.4-1.9-.4-2.9,0-1-.2-1.9-.7-2.7h-3.1c-.5,3.7-1.1,7.3-1.7,11.3-.3-1.6-.6-2.7-.7-3.9-.1-1.3,0-2.6-.5-3.9-.4-1.1.5-2.5-.7-3.6h-3.2ZM85.4,206c0-2.5,0-4.8,0-7.1,0-.5-.3-1-.4-1.4h-3.3v20.9q2.7,0,3.8-.7v-7.8h2.8c0,2.8,0,5.5,0,8.1,0,0,0,.1,0,.2,0,0,.1.1.2.2h3.1c.2-.4.5-.9.5-1.4,0-6.3,0-12.7,0-19-1.2-1-2.6-.5-3.9-.6v8.5h-2.8ZM229.4,197.5c-.2.4-.5.8-.5,1.2,0,.9,0,1.9,0,2.9,0,5,0,10,0,15,0,.7-.1,1.4.7,1.9h3.2v-7.1c1.6,2.2,1.9,4.8,3.1,7.1,1.2,0,2.4,0,3.9-.1-.6-1.6-1.2-3-1.6-4.4-.5-1.4-.8-2.9-1.1-4,.8-1,1.7-1.8,1.9-2.6.3-1.6,1-3.2.2-5.1-.9-2.1-1.1-2.9-3-3.8-1.3-.6-2.6-1.1-4.1-1-.8,0-1.6,0-2.5,0ZM136.8,209.8c.2,0,.3-.1.5-.2.5-.9,1.2-1.7,1.6-2.7.3-.7-.1-1.5.5-2.2.1-.1,0-.7,0-.9-.5-.4-.3-1-.4-1.5-.2-2-1.9-4-3.8-4.4-1-.2-1.9-.4-2.9-.5-1.1,0-2.2,0-3.3,0v20.9h3.7c.2-2.4-.1-4.7.5-7.1.9,2.4,1.7,4.8,2.5,7.1h3.9c-1-3-1.9-5.8-2.8-8.6ZM152.9,197.5c-.2.4-.5.8-.5,1.2,0,6.2,0,12.4,0,18.6,0,.4.3.8.5,1.2,1.1,0,2.2,0,3.2,0,1.6-.2,3.4-.7,4.5-1.8,1.4-1.4,2.4-3.2,2.4-5.4,0-.7,0-1.3.3-2,.4-.7.3-1.8,0-2.5-.2-.5-.4-1-.3-1.5.2-1-.2-2-.5-2.9-.7-1.7-1.5-3.2-3.5-4-1.9-.7-3.8-.9-5.9-.8ZM112.2,214.2c-.1,1.6,0,2.9.6,4.2h3c.4-1.5,0-2.9-.3-4.3-.3-1.4-.5-2.8-.9-4.1-.4-1.4-.2-2.9-.6-4.3-.4-1.4-.6-2.8-.8-4.2-.2-1.4-.5-2.8-1-4h-3.7c-.5,1.8-.7,3.6-1,5.4-.3,1.7-.8,3.4-1,5.1-.3,1.8-.7,3.5-.9,5.3-.2,1.7-.9,3.4-.9,5.2h3.1c1.1-1.2.4-2.9,1.4-4.3h3.1ZM209,197.5c-.3.3-.5.4-.6.6-.4,1.6-.6,3.2-1,4.8-.3,1-.3,2.1-.5,3.1-.2,1-.1,2.2-.5,3.1-.5,1.1-.5,2.2-.7,3.3-.4,2-1.1,4-.5,6.1.7,0,1.3,0,2,0,.7,0,1.1-.4,1.2-.9.3-1.1.4-2.2.6-3.3h3.4c-.5,1.5.1,2.8.5,4.1h3.1c0-1.2.4-2.6,0-3.5-.5-1.1-.1-2.2-.8-3.3-.5-.9-.3-2.2-.6-3.3-.3-1.1-.2-2.3-.6-3.3-.3-.8,0-1.9-.4-2.4-.7-.9-.2-1.8-.5-2.7-.3-.7-.4-1.6-.5-2.4h-3.4ZM252.4,197.5v20.9h8v-3.8h-4.1v-4.8h3.8c-.1-1.3,0-2.5-.2-3.8h-3.7v-4.7h4.2v-3.7h-8ZM66.8,221.3c-1.1-1.9-2.1-3.6-3-5.2h-5.9c-.4.4-.9.7-1.1,1.2-.5,1.1-.9,2.3-1.8,3.3-.2.2,0,.9.1,1.2.9,1.6,1.8,3.3,2.6,4.7h6.3c1-1.7,1.9-3.4,3-5.2ZM278.2,226h6.3c.9-1.6,1.7-3.1,2.6-4.7.2-.4.3-1,.2-1.3-.9-1.5-2-3-2.9-4.4h-6.1c-1,1.8-2,3.5-2.9,5.2,1,1.8,2,3.5,2.9,5.2ZM90.3,185.5c1.9,0,4.1-2,4.2-3.8,0-.4-.7-2.4-1-2.7-.7-.7-1.5-1.2-2.6-1.2-1.3,0-2.4,0-3.4,1-.8.7-.9,1.8-1.1,2.6-.3,1.7,2,4,3.9,4Z"/>
      <path class="cls-1" d="M306,231c-.5-3.5,2.5-6.6,6.3-6.3,1.7.1,3,.6,4.3,1.8,1.3,1.3,1.7,2.8,1.8,4.5.3,3-3.1,6.5-6.4,6.2-1.8-.2-3.2-.7-4.5-1.9-1.3-1.3-1.8-2.6-1.6-4.2ZM314.8,235.1c.2-.4.3-.8.4-.8.7,0,1-.4,1.2-.9,1-2.3.8-5.3-1.9-6.8-2.6-1.4-5.1-.6-6.5,1.5-.2.3-.4.5-.6.6-.3,2.5-.4,5.1,2.1,6.5,1.7,1,3.7.9,5.3,0Z"/>
      <path class="cls-1" d="M232.8,208.1v-6.6c2,0,2.8.7,2.8,2.5,0,.7,0,1.4-.2,2.1-.3,1.2-1.3,1.7-2.6,2.1Z"/>
      <path class="cls-1" d="M132.7,201.4c1.6,0,2.7.9,2.9,2.2,0,.9.1,1.7-.3,2.7-.5,1.1-1.4,1.2-2.3,1.9-.4-2.3,0-4.5-.3-6.8Z"/>
      <path class="cls-1" d="M156.3,201.4c1.4,0,2.6.9,2.8,2.2.3,1.5.5,3,.5,4.5,0,1.4-.2,2.9-.5,4.3-.2,1.3-1.4,2.1-2.8,2.1v-13.2Z"/>
      <path class="cls-1" d="M110.6,205.3c.3,2,.5,3.6.8,5.4-.7,0-1.3,0-2.1.1.2-1,.5-1.8.5-2.7,0-1,.3-1.7.8-2.9Z"/>
      <path class="cls-1" d="M211.4,210.8h-2.1c.2-1.1.3-2.1.5-3.1.2-1,.4-2,.9-3,.2,2,.5,4,.7,6.1Z"/>
      <path class="cls-1" d="M58.6,220q2.2-1.4,4.2,0v2.5q-2.1,1.5-4.2,0v-2.6Z"/>
      <path class="cls-1" d="M283.4,222.2q-2.1,1.4-4.2,0v-2.5q2-1.5,4.2,0v2.6Z"/>
      <path class="cls-1" d="M315.1,234.2h-1.7c-.7-1-.8-2.5-2.4-2.9-.4.9-.1,1.8-.3,2.9-.4,0-.8,0-1.3,0v-6.7c1.2,0,2.5,0,4.1,0,.2.3.6.8.9,1.2.5,1,0,1.8-.8,2.4.5,1.1,1,2.1,1.5,3.1ZM313.2,229.5c-.5-1.2-1.4-1-2.2-.9-.2,0-.2,1-.2,1.5,0,.1.1.2.2.4.8,0,1.7.2,2.2-.9Z"/>
    </g>
  </g>
</svg>