<?xml version="1.0" encoding="UTF-8"?>
<svg xmlns="http://www.w3.org/2000/svg" version="1.1" viewBox="0 0 225 225">
  <defs>
    <style>
      .cls-1 {
        fill: #2e2e2e;
      }
    </style>
  </defs>
  <!-- Generator: Adobe Illustrator 28.7.3, SVG Export Plug-In . SVG Version: 1.2.0 Build 164)  -->
  <g>
    <g id="Layer_1">
      <g>
        <path class="cls-1" d="M113.91,65.42c1.57-.55,2.73-.95,5.17-1.81-1.63-.46-2.25-.64-2.86-.81.17-.23.35-.46.52-.69h-7.6v-4.88c.36-.36.71-.71,1.42-1.42.45.82.91,1.65,1.17,2.11h4.31c1.73-1.13,3.3-2.16,4.83-3.17,3.47,1.05,6.72,2.03,10,3.02-.47,1.23-.76,2-1.37,3.6,1.18-.82,1.62-1.12,2.29-1.58,3.52,1.59,7.17,3.25,10.9,4.93v4.6c1.54.77,2.9,1.45,4.2,2.1,2.78,2.63,2.22,6.83,4.62,9.9,1.99-1.3,3.35-2.69,4.45-4.57,2.63-4.47,3.19-9.27,2.93-14.31.48-.46.96-.91,1.5-1.42.3.27.79.51.96.88,1.83,4.16,3.87,8.26,3.58,13.02-.09,1.49-.03,3-.01,4.5.1,6.9-1.78,12.96-7.51,17.39h-4.61c-.77-1.83-1.54-3.68-2.4-5.73-.16-.04-.61-.14-1.28-.28v-3.28c-1.2-1.01-2.28-1.93-3.8-3.21-.76,3.13-.15,5.72-.5,8.29.93.59,1.71,1.09,2.78,1.76,1.12,2.77,1.33,6.4,4.06,8.89,1.35,5.71-.99,11.01-2.14,16.41-.22,1.04-.49,2.13-.6,3.22-.19,1.9-.49,2.45-2.71,5.3-.47.6-.94,1.33-1.04,2.05-.59,4.19-2.31,8.07-3.22,12.16-.21.95-.03,1.99-.03,3.17-.91.74-1.82,1.7-2.92,2.35-3.83,2.29-3.78,2.27-5.11,6.47-.7,2.21-1.02,4.56-3.06,6.27-1.61,1.34-2.87,6.67-2.91,9.75-.02,1.91.31,3.89-.99,5.59-.39.5-.62,1.21-1.12,1.51-1.31.81-2.88,1.26-4.06,2.21-1.14.92-1.91,2.29-3.32,4.06-.53-3.95-3.09-6.47-2.56-10.07.49-3.33.59-6.72.88-10.32,1.11-.9,2.27-1.82,3.14-2.53v-2.51c-1.77-.77-3.4-.64-5.11.74-2.68-1.3-5.87-2.17-8.09-4.14-2.12-1.88-3.22-4.9-4.41-6.84-.52-4.65-.97-8.66-1.42-12.62.52-.52.99-.99,1.62-1.61,3.81,1.38,7.25,4.18,11.65,4.06,4.36-.11,8.23-1.66,11.85-4.13.55.37,1.04.7,1.53,1.04.35-.35.71-.71,1.12-1.12-.02-.18.03-.5-.1-.63-1.51-1.55-3.05-3.08-4.27-4.3-.44-1.88-.8-3.4-1.03-4.4.34-2.28.62-4.13.9-5.99-.82-3.58-5.67-3.45-6.33-7,2.74-1.68,4.98,1.55,7.69.29.8-1.39,1.55-3,1.53-5.05-.01-1.27.92-2.58,1.54-3.82.49-.97,1.17-1.85,1.75-2.78,2.84-4.57,1.88-5.61-1.38-9.6v-5.01c-.95-.91-1.9-1.84-2.43-2.35-.8-2.58-1.44-4.65-2.11-6.83-1.27-.19-2.19-.33-3.19-.47-2.32-2.81-3.25-6.94-7.27-8.12v-2.28ZM132.36,109.47c1.65-3.56,3.83-5.9,7.29-6.77.58-.15,1.17-.4,1.66-.74,1.27-.89,2.11-2,1.34-3.81-1.34-.46-2.78-.94-3.89-1.32-1.53,1.43-2.73,2.55-3.86,3.61.4,3.29-4,4.78-2.55,9.04ZM141.26,104.83c-.9,3.69-4.38,4.67-6.64,6.9.42.62.71.98.92,1.39.27.55.48,1.13.73,1.74h3.24c1.16-1.16,2.22-2.22,3.28-3.28v-5.23l-1.52-1.52ZM107.41,147.97h3.61c1.72-1.67,3.25-3.14,4.68-4.52-.75-.83-1.53-1.69-2.21-2.45h-2.11c-.47,1.33-.93,2.63-1.35,3.81-2,.14-3.56.25-5.4.38,1.14,1.14,1.96,1.96,2.78,2.79ZM126.37,148.19c-.71-1.46-1.25-2.2-1.42-3.01-.22-1.05-.16-2.15-.24-3.62-1.24.62-2.05,1.03-2.68,1.34-1.31-.43-2.45-.8-3.44-1.13-.72.72-1.19,1.19-1.7,1.7,1.18,1.12,2.36,2.25,3.29,3.13,1.9.48,3.55.9,6.18,1.58ZM148.91,79.13c-.99-.51-1.76-.9-2.84-1.46v6.21c1.05-.52,1.95-.96,2.84-1.39v-3.37Z"/>
        <path class="cls-1" d="M80.21,130.39c-2.88-2.07-4.47-4.24-4.34-7.47.03-.72-.48-1.45-.69-2.19-.76-2.6-1.28-5.19-1.36-7.97-.14-4.86-1.48-9.53-3.56-13.98-2.31-4.94-5.31-9.49-7.96-14.22-1.75-3.13-3.94-7.02-1.41-11.07-.45-3.99,1.55-7.3,3.05-10.73.3-.68.95-1.22,1.51-1.92,1.57,11.73,4.06,16.56,10.93,20.47.51-1.01,1.11-2.21,1.71-3.41,1.31-9.36,10.19-17.69,17.42-17.97,1.97-2.57,4.61-4.37,7.6-5.6,1.09-.45,2.44-.28,3.58-.38.14.53.27.73.21.82-.59.94-1.21,1.87-1.65,2.54-.49,1.88-.93,3.55-1.35,5.18-.86.44-1.68.86-2.82,1.45h-4.77c-.86,1.03-1.77,2.11-2.9,3.46,4.33,1.82,7.49-2.54,11.67-1.08-2.69,2.46-6.41,3.23-8.28,6.27-1.81,2.93-3.59,5.88-6.01,9.85v10.53c-1.68-4.97-2.06-10.31-6.28-13.91-.73.85-1.47,1.7-2.68,3.1.16-.65.1-.5.09-.35-.01.5,0,1,0,1.88,2.09.06,3.82,1.03,5.25,3.33-.4,2.92-.86,6.25-1.34,9.76-.88.53-1.81,1.1-2.63,1.6-.43,2.35-.85,4.68-1.31,7.17-.76.7-1.62,1.48-2.72,2.48-.14-.95-.26-1.81-.41-2.83-.39-.09-.84-.19-1.57-.36-1.05,8.68.21,16.97,3.03,25.56Z"/>
        <path class="cls-1" d="M103.63,21.41c-.28-3.15-.12-5.75-.83-8.08-.73-2.37-1.05-4.63-.73-7.19h3.5c.33.33.8.8,1.39,1.39-.76,4.47,1.71,8.81.95,13.41,1.76,2.69.66,5.7,1.05,8.5-.53.53-1,1-1.41,1.41h-4.63c-1.01-2.45-2.05-4.85-2.99-7.29-.9-2.31-1.76-4.63-3.36-6.67.69,2.47-.37,5.2.52,7.24,1.15,2.63.47,5.05.91,7.7h-3.68c-.38-.73-.8-1.56-1.21-2.36-.39-5.14-.39-10.39-1.37-15.45-.43-2.22-.73-4.36-.78-6.81h6.3c2.62,4.43,2.87,9.71,6.39,14.21Z"/>
        <path class="cls-1" d="M12.99,72.6c3.06.5,5.73.93,8.92,1.44.65.81,1.58,1.96,2.58,3.2,3.39-2.91,5.98.26,8.88.72,3.58,5.16.37,9.95-.89,15.18-3.75-1.89-7.8-2.8-11.69-4.18-3.92-1.39-7.82-2.84-12-4.35,1.38-3.94,2.74-7.83,4.2-12.01ZM30.89,82.55c-1.46-1.95-3.06-1.68-4.84-1.4-.65,1.1-1.34,2.27-2.23,3.78,1.91.75,3.73,1.47,5.48,2.16.64-.64,1.11-1.11,1.6-1.6v-2.94ZM20.79,79.25c-1.39-.51-2.83-1.04-4.1-1.51-1.46,1.22-2.44,2.29-1.6,3.88,1.55.76,3.02,1.47,4.47,2.17,1.77-1.13,1.39-2.8,1.23-4.54Z"/>
        <path class="cls-1" d="M27.41,176.8c5.05-4.64,9.58-8.93,14.28-13.02,1.22-1.06,3.01-1.48,4.4-2.13,2.79,2.79,5.26,5.26,7.78,7.78v3.26c-4.94,4.29-10.08,8.74-15.22,13.2h-4.36c-2.25-2.98-4.44-5.87-6.88-9.08ZM45.55,167.11c-4.41,3.43-8.7,6.6-11.94,11.12,1.21,1.1,2.25,2.04,3.29,2.99,4.2-3.7,8.14-7.17,12.1-10.65-1.33-1.33-2.39-2.39-3.46-3.46Z"/>
        <path class="cls-1" d="M60.36,20.16c3.48-4.36,8.07-4.43,11.9-6.66,3.88,5.84,6.11,12.17,9.53,17.98v4.46c-3.16,1.63-6.33,3.26-9.8,5.04-.68-.32-1.65-.77-2.91-1.36-2.66-6.39-5.93-12.85-8.71-19.48ZM65.35,21.44c3.29,5,4.76,10.23,7.96,14.52,1.44-.96,2.59-1.73,3.8-2.54-2.26-5-4.41-9.76-6.67-14.76-1.65.9-3.14,1.71-5.09,2.78Z"/>
        <path class="cls-1" d="M91.81,95.44c5.55,5.15,8.76,11.08,12.32,16.71h3.67v3.01c-1.2-.46-2.14-.83-3.2-1.24-1.16,1.94-2.35,3.9-3.64,6.04,1.02,4.69.75,6.74-1.65,10.2-.3-.65-.56-1.22-.82-1.8-.16.12-.31.23-.47.35v-6.01c-2.79-2.22-1.03-8.22-6.65-7.79-2.4-2.18-2.67-4.85-2.45-7.44l-1.87-1.87v-5.53c1.38,1.52,2.65,2.92,3.92,4.32l2.16-2.16c-.38-1.94-.8-4.11-1.33-6.8Z"/>
        <path class="cls-1" d="M53.91,201.9c0-1.51-.35-2.62.05-3.13,4.38-5.55,6.08-12.83,11.5-17.89,4.06.44,6.89,3.36,10.32,5.25v4.32c-.68,1.14-1.33,2.21-2.11,3.5-1.37-.82-2.63-1.57-4.05-2.42.51-1.03.92-1.85,1.49-3-1.25-.84-2.5-1.68-3.71-2.5-2.43,1.81-3.19,4.63-4.53,7.11-1.24,2.32-2.78,4.48-4.4,7.04.91.42,1.54.71,2.16,1,.69.32,1.39.64,2.34,1.09.73-.68,1.4-1.3,2.19-2.04-.4-1.14-.75-2.16-1.19-3.43.42-.8.98-1.86,1.61-3.06,2.19,1.15,4.24,2.23,6.28,3.29-2.14,3.54-4.14,6.84-5.99,9.91h-4.06c-2.83-1.81-5.35-3.43-7.89-5.05Z"/>
        <path class="cls-1" d="M122.78,210.4v7.19c-.47.47-.83.83-1.28,1.28h-12.18c-1.82-2.25-1.42-4.87-1.4-7.66h4.87v3.54h4.99v-4.4l-1.21-1.21h-3.97c-1.75-1.27-3.3-2.39-4.71-3.41,0-3.28,0-6.27,0-9.26.47-.47.94-.94,1.19-1.19,3.57-.51,6.89-.98,10.22-1.46.86.94,1.64,1.79,2.46,2.68v5.34h-3.67v-2.66c-1.72-.1-3.28-.18-5.31-.3.48,2.2-.87,4.42,1.69,6.1,3.49-.2,7.03-.02,8.3,5.41Z"/>
        <path class="cls-1" d="M203.1,146.11c-.91,3.73-3.15,5.89-6.65,7.05-2.72-1.09-5.43-2.18-8.13-3.27-.48-.97-.96-1.93-1.38-2.78,1.42-3.35,2.8-6.6,4.2-9.89,2.8-1.07,5.18.65,7.82,1.07-.51,1.62-.97,3.09-1.52,4.86-.84-.4-1.64-.78-2.6-1.23-1.95.72-2.19,2.74-3.11,4.56,1.86.57,3.61,1.1,5.69,1.73,1.18-3.38,2.87-6.32,6.94-7.32,2.95,1.67,7.27,1.08,9.69,4.94-1.19,3.72-1.97,7.7-4.27,10.99q-4.42.14-7.69-2.18c.47-.92.92-1.85,1.42-2.75.16-.28.46-.48.65-.67,1,.31,1.98.62,3.21,1,.65-1.53,1.24-2.91,1.82-4.26-1.79-1.69-3.61-2.35-6.07-1.86Z"/>
        <path class="cls-1" d="M51.91,43.85c-3.21.64-5.38,4.44-9.02,3.03-2.28-2.28-4.5-4.49-6.99-6.99v-2.49c3.16-2.55,5.2-6.94,9.86-6.47,1.49,1.51,2.74,2.78,4.45,4.51-.98.5-2.17,1.11-3.5,1.79.04.06-.51-.73-1.14-1.63-1.86,1.07-3.79,1.4-4.67,2.98,1.55,1.47,2.92,2.77,4.54,4.31,1.36-1.88,3.65-3.19,6.41-3.86,1.04.37,2.2.79,4.09,1.47,1.3,1.63,3.09,3.89,5.21,6.56-.39.7-.71,1.84-1.45,2.53-2.66,2.49-4.65,5.97-8.33,6.4-1.75-1.75-3.25-3.25-4.5-4.5.6-.6,1.71-1.71,2.96-2.96.35.49,1.09,1.51,1.8,2.51,1.22-1.44,2.38-2.8,3.55-4.19-.5-.46-1.72-1.56-3.28-2.98Z"/>
        <path class="cls-1" d="M199.95,80.51c-.52-.52-.99-.99-1.58-1.58-2.82.98-5.72,1.99-8.66,3.01-1.55-.61-2.1-1.82-1.7-3.99,6.86-3.24,14.47-5.32,21.46-8.14,1.83.56,2.63,1.43,2.43,2.99-.21,1.57-1.24,1.91-2.69,2.24-2.2.5-4.28,1.52-6.81,2.47.83,1.06,1.4,1.79,1.98,2.53,3.29-1.83,6.76-.79,10.07-1.11.42,1.29.8,2.46,1.22,3.77.12-.12,0,.09-.12.11-4.32.49-8.65.96-13.11,1.44-3.23,2.45-6.66,5.05-10.1,7.67-.43-1.28-.87-2.59-1.47-4.37,2.44-2.73,6.03-4.57,9.08-7.04Z"/>
        <path class="cls-1" d="M183.3,69.41q-2.1-1.95-2.41-3.96c.94-.87,1.92-1.77,2.98-2.74-.83-1.36-1.6-2.62-2.55-4.17-1.76.76-3.31,1.43-5.16,2.23-.6-.89-1.34-2.01-2.57-3.83.41-.18.98-.43,1.55-.7,4.99-2.42,9.98-4.82,14.95-7.27,1.94-.95,3.82-2.01,6.07-3.2.73.72,1.63,1.42,2.28,2.31.63.86,1.01,1.9,1.63,3.14-5.48,5.95-11.01,11.95-16.77,18.21ZM193.96,52.73c-.14-.28-.28-.56-.42-.85-.53.18-1.07.36-1.6.55-2.35.86-3.88,3.22-6.53,3.55-.14.02-.23.43-.35.69.62.53,1.21,1.03,1.84,1.58,2.51-1.97,4.78-3.75,7.05-5.52Z"/>
        <path class="cls-1" d="M139.38,35.06c-1.68-.6-3.1-1.11-4.51-1.61,3.04-7.83,6.03-15.56,9.07-23.4,2.6.99,4.94,1.99,7.35,2.77,2.48.8,4.74,1.73,5.26,4.69-1.2,2.88-2.48,5.96-3.78,9.09-3.35,2.3-6.87,1.57-10.47-.08-1.04,3.04-1.93,5.65-2.92,8.54ZM146.54,15.7c-1.07,2.7-1.9,4.79-2.73,6.88,1.75.52,3.2.95,4.62,1.36,1.99-1.94,2.94-4.12,2.32-6.77-1.53-.54-2.83-.99-4.21-1.48Z"/>
        <path class="cls-1" d="M193.29,175.47c-.92-.31-1.5-.51-2.08-.71-1.25-2.52,1.04-3.39,2.08-4.62,1.56,1.45,3.13,2.92,4.63,4.32v2.66c-2.12,2.59-4.25,5.19-6.39,7.8h-3.07c-5.13-4.32-10.33-8.69-15.37-12.94-.99-5.72,3.69-7.76,6.25-11.02h2.11c1.72,1.73,2.98,2.99,4.38,4.41-.76.53-1.83,1.28-2.92,2.05-.17-.16-.87-.83-1.83-1.74-1.08.91-2.15,1.81-3.14,2.65v1.77c4.11,3.44,8.03,6.71,12.23,10.22.52-.96.9-1.74,1.36-2.45.5-.77,1.09-1.49,1.78-2.41Z"/>
        <path class="cls-1" d="M173.86,29.92c-1.34,1.43-2.56,2.72-3.91,4.14.48,2.48,3.67,2.52,5.16,4.82-.85,1-1.75,2.07-2.55,3-1.83-1.31-3.51-2.52-5.28-3.79-.99,1.09-2.1,2.3-3.38,3.7v1.49c2.04,1.51,4.03,2.97,6.32,4.66-.91,1-1.76,1.93-2.8,3.07-3.39-2.5-6.77-4.98-10.32-7.6,4.73-6.34,9.6-12.86,14.72-19.73,4.23,1.58,7.08,5.51,10.7,7.39-.77,1.06-1.52,2.11-2.41,3.35-2.22-1.6-4.13-2.97-6.26-4.5Z"/>
        <path class="cls-1" d="M206.63,104.77c1.55,2.39,3.06,4.73,4.61,7.11.69-1.01,1.35-1.98,2.31-3.38,2.23,3.88,4.28,7.46,6.47,11.28h-26.19c1.05-4.28,4.14-7.21,5.85-11.37,1.08,1.46,1.87,2.52,2.68,3.63,1.39-2.38,2.72-4.65,4.25-7.28ZM211.98,117.97c-1.94-2.93-2.53-6.29-5.14-8.55-.17-.15-.45-.17-.35-.13-.93,1.24-1.76,2.35-2.83,3.79.46,1.5.99,3.24,1.49,4.89h6.83ZM196.91,117.78c1.98.27,3.97.39,5.95-.07-.97-1.81-1.81-3.39-2.97-5.56-1.17,2.2-2.01,3.79-2.98,5.62ZM213.47,112.71c-1.41,2.52.49,3.71.95,5.43.67-.25,1.08-.41,1.8-.68-.93-1.6-1.78-3.07-2.75-4.75Z"/>
        <path class="cls-1" d="M146.31,187.64c.73,1.55,1.25,2.65,1.74,3.69-1.56.69-2.94,1.29-4.54,1.99,2.33,6.52,4.51,12.61,6.77,18.93-1.28.68-2.32,1.23-3.76,2-2.79-6.24-5.08-12.52-6.96-19.35-1.71.38-3.47.76-5.21,1.15-.42-1.36-.77-2.52-1.2-3.92,4.09-1.4,8.47-2.89,13.16-4.49Z"/>
        <path class="cls-1" d="M11.32,108.74c.93,1.26,1.72,2.32,2.74,3.7,1.47-2.74,2.75-5.15,4.32-8.07,1.56,2.89,2.86,5.28,4.4,8.12.96-1.35,1.73-2.42,2.68-3.76,2.16,3.75,4.23,7.32,6.39,11.06H4.98c2.13-3.71,4.19-7.29,6.35-11.04ZM23.31,117.75c-1.85-3.09-2.59-6.32-5.16-9.08-1.2,2.3-2.16,4.13-3.08,5.89.73,1.18,1.38,2.23,1.97,3.19h6.27ZM14.42,117.73c-1.13-1.97-1.97-3.41-3.07-5.32-1.05,1.97-1.85,3.47-2.84,5.32h5.91ZM23.99,114.38c.65,1.08,1.09,2.11,1.81,2.9.39.44,1.22.49,2.97,1.11-1.46-2.51-2.32-3.98-3.23-5.56-.68.68-1.03,1.03-1.55,1.55Z"/>
        <path class="cls-1" d="M12.06,150.15c7.8-2.72,15.07-7.27,23.23-9.57.74,1.54,1.28,2.65,1.81,3.77-6.51,2.89-12.84,5.69-19.26,8.54,1.1,2.13,1.99,3.87,2.98,5.79-1.02.67-2.18,1.43-3.6,2.36-1.7-3.58-3.39-7.15-5.17-10.89Z"/>
        <path class="cls-1" d="M110.92,105.8c-1.46-3.61-3.07-7.03-6.1-9.31.12-1.03.2-1.79.33-2.99,3.12,2.03,5.84,3.81,8.46,5.51,3.67-.88,5.87-5.38,10.26-3.71.15,2.41-2.09,3.18-2.91,4.79-.89,1.76-1.31,3.75-1.95,5.7h-8.09Z"/>
        <path class="cls-1" d="M174.88,199.76c-1.31.78-2.64,1.57-4.05,2.41-4.71-6.79-9.32-13.43-14.19-20.45,1.19-.86,2.4-1.73,3.82-2.75,4.77,6.88,9.54,13.76,14.42,20.8Z"/>
        <path class="cls-1" d="M21.7,56.18c.76-1.33,1.52-2.68,2.36-4.17,7.1,4.78,14.04,9.47,20.88,14.08-.98,1.42-1.77,2.58-2.61,3.8-6.74-4.48-13.59-9.03-20.63-13.71Z"/>
        <path class="cls-1" d="M88.46,217.33c-.93-.56-1.53-1.1-2.24-1.32-.72-.22-1.53-.13-2.27-.18,2.07-8.42,4.07-16.53,6.08-24.71.37.13.6.22.83.3,1.02.35,2.75.51,2.9,1.09.35,1.33.26,3-.26,4.28-1.83,4.5-2.05,9.38-3.56,13.95-.64,1.91-.9,3.95-1.48,6.59Z"/>
        <path class="cls-1" d="M91.85,146.97c8.07,2.32,10.22,9.57,13.6,16.16.66-.33,1.33-.66,2.11-1.05.3.35.72.84,1.15,1.34-.37,2.05-.76,4.18-1.17,6.44h-1.93c-1.31-1.66-2.49-3.15-3.67-4.63-2.88-6.33-4.77-13.22-10.1-18.25Z"/>
        <path class="cls-1" d="M91.91,146.97h-1.62c-.91-1.76-3.69-2.29-3.38-5,1.67,1.67,3.33,3.33,5,5Z"/>
        <path class="cls-1" d="M85.91,139.97c1.5.09.85,1.24,1,2-1.5-.09-.85-1.24-1-2Z"/>
        <path class="cls-1" d="M82.91,134.97c-1.5-.09-.85-1.24-1-2,1.5.09.85,1.24,1,2Z"/>
        <path class="cls-1" d="M79.91,129.97c1.5.09.85,1.24,1,2-1.5-.09-.85-1.24-1-2Z"/>
        <path class="cls-1" d="M91.13,96c-.05-.64-.11-1.28-.16-1.92.22-.03.43-.05.65-.08.13.65.25,1.3.38,1.95-.29.01-.58.03-.86.04Z"/>
        <path class="cls-1" d="M84.24,137.97v-1h.33v1h-.33Z"/>
        <path class="cls-1" d="M83,134.86l.82.7-.32.32c-.23-.27-.46-.54-.7-.82.07-.07.13-.13.2-.2Z"/>
        <path class="cls-1" d="M81.91,132.97c-.33-.33-.67-.67-1-1,.33.33.67.67,1,1Z"/>
        <path class="cls-1" d="M85.81,140.07c-.27-.23-.54-.46-.82-.7l.32-.32c.23.27.46.54.7.82-.07.07-.13.13-.2.2Z"/>
      </g>
    </g>
  </g>
</svg>