<?xml version="1.0" encoding="UTF-8"?>
<svg xmlns="http://www.w3.org/2000/svg" version="1.1" viewBox="0 0 342 342">
  <defs>
    <style>
      .cls-1 {
        fill-rule: evenodd;
      }
    </style>
  </defs>
  <!-- Generator: Adobe Illustrator 28.6.0, SVG Export Plug-In . SVG Version: 1.2.0 Build 709)  -->
  <g>
    <g id="Layer_1">
      <path class="cls-1" d="M189,167.1c2.1,3,3.2,6.5,3.2,10.8s-1.1,7.8-3.2,10.7c-2.3,3.3-5.4,4.9-9.4,4.9s-7.1-1.6-9.4-4.9c-2.1-2.9-3.1-6.5-3.1-10.7s1-7.8,3.1-10.8c2.3-3.2,5.4-4.9,9.4-4.9s7.1,1.6,9.4,4.9ZM180.1,268.2c-3.2,0-5.9,1.1-8,3.4-2.4,2.6-3.5,5.8-3.5,9.6h22.6c0-3.8-1.1-7-3.3-9.6-2-2.3-4.6-3.4-7.8-3.4ZM233.8,59.5c-2-2.3-4.6-3.4-7.8-3.4s-5.9,1.1-8,3.4c-2.4,2.6-3.5,5.8-3.5,9.6h22.6c0-3.8-1.1-7-3.3-9.6ZM342,0v342H0V0h342ZM99.4,56.7h5v26.9c0,2.6.4,4.5,1.1,5.6.9,1.2,2.5,1.9,4.8,1.9s1.6,0,2.4-.2c.8,0,1.8-.3,2.8-.6v-3.3h-.7c-.8.3-1.5.4-1.9.5-.6,0-1.1.2-1.5.2-1.2,0-1.9-.3-2.3-1-.3-.6-.5-1.5-.5-2.9v-26.9h6.9v-3.5h-6.9v-10.6h-4.2v10.6h-5v3.5-.2ZM130.5,278.7c0-2.4,0-4.1-.2-5.2-.2-1.6-.6-2.9-1.2-3.9-1-1.7-2.5-3-4.4-3.9s-4.2-1.3-6.7-1.3-5,.6-7.1,1.7c-2,1.2-3.7,2.9-5.1,5.1v-5.9h-4.2v36.9h4.2v-21.7c0-3.8,1-6.9,3.1-9.1,2-2.2,4.8-3.3,8.2-3.3s6.1.9,7.4,2.7c1.2,1.6,1.8,4.3,1.8,8.3v23h4.2v-23.5h0ZM130.5,183.5h-4.2c-.5,3.1-1.7,5.5-3.6,7.3s-4.3,2.6-7.1,2.6-6.6-1.4-8.8-4.1c-2.2-2.8-3.3-6.7-3.3-11.6s1.1-8.7,3.3-11.5c2.2-2.7,5.1-4,8.7-4s5.1.8,7,2.4c1.9,1.6,3.1,3.8,3.5,6.5h4.1c-.2-3.8-1.7-6.8-4.4-9.2-2.7-2.3-6.1-3.5-10.2-3.5s-9.1,1.7-12,5.1c-3,3.5-4.4,8.4-4.4,14.5s1.5,10.6,4.4,14,6.8,5.1,11.8,5.1,7.9-1.2,10.6-3.7,4.3-5.8,4.7-10h-.1ZM155.5,59.4c2-2.2,4.7-3.3,8-3.3s5.9.9,7.1,2.8c1.1,1.7,1.7,4.6,1.7,8.8v22.4h4.2v-22.5c0-2.8,0-4.7-.2-5.8-.2-1.8-.7-3.2-1.3-4.3-1-1.6-2.5-2.9-4.4-3.8-1.9-.9-4-1.4-6.3-1.4s-4.8.6-6.9,1.7c-2,1.1-3.7,2.8-5.1,5v-20.1h-4.2v51.2h4.2v-21.7c0-3.8,1-6.8,3.1-9.1h0ZM195.6,283.2c0-5.9-1.4-10.5-4.2-13.9-2.8-3.2-6.5-4.9-11.2-4.9s-8.9,1.7-11.7,5.1c-2.9,3.5-4.3,8.3-4.3,14.5s1.4,10.8,4.2,14.2c2.8,3.4,6.7,5.1,11.6,5.1s7.5-1.2,10.2-3.5c2.8-2.3,4.4-5.3,4.9-9h-4.2c-.4,2.6-1.6,4.7-3.5,6.3-1.9,1.5-4.2,2.3-6.9,2.3s-6.3-1.3-8.5-4-3.3-6.3-3.3-11h27v-1.4.2ZM196.5,177.9c0-5.3-1.4-9.7-4.2-13.4-3.1-4-7.4-6-12.7-6s-9.6,2-12.7,6c-2.8,3.7-4.2,8.1-4.2,13.4s1.4,9.6,4.2,13.3c3.1,4.1,7.4,6.1,12.7,6.1s9.6-2,12.7-6.1c2.8-3.6,4.2-8,4.2-13.3ZM226,91.2c4.1,0,7.5-1.2,10.2-3.5,2.8-2.3,4.4-5.3,4.9-9h-4.2c-.4,2.6-1.6,4.7-3.5,6.3-1.9,1.5-4.2,2.3-6.9,2.3s-6.3-1.3-8.5-4-3.3-6.3-3.3-11h27v-1.4c0-5.9-1.4-10.5-4.2-13.9-2.8-3.2-6.5-4.9-11.2-4.9s-8.9,1.7-11.7,5.1c-2.9,3.5-4.3,8.3-4.3,14.5s1.4,10.8,4.2,14.2c2.8,3.4,6.7,5.1,11.6,5.1v.2ZM244.6,264.4h-.5c-2.5,0-4.6.6-6.4,1.7-1.9,1.2-3.4,3.1-4.4,5.6v-6.5h-4.2v36.9h4.2v-20.5c0-4.3.9-7.5,2.8-9.7,1.8-2.2,4.4-3.3,7.8-3.3h.6v-4.4.2ZM245.7,158.5h-.5c-2.5,0-4.6.6-6.4,1.7-1.9,1.2-3.4,3.1-4.4,5.6v-6.5h-4.2v36.9h4.2v-20.5c0-4.3.9-7.5,2.8-9.7,1.8-2.2,4.4-3.3,7.8-3.3h.6v-4.4.2Z"/>
    </g>
  </g>
</svg>