<?xml version="1.0" encoding="UTF-8"?>
<svg id="Layer_1" data-name="Layer 1" xmlns="http://www.w3.org/2000/svg" version="1.1" viewBox="0 0 342 342">
  <defs>
    <style>
      .cls-1 {
        fill: #ceb97f;
      }

      .cls-1, .cls-2, .cls-3 {
        stroke-width: 0px;
      }

      .cls-2 {
        fill: #282424;
      }

      .cls-3 {
        fill: #fefefe;
      }
    </style>
  </defs>
  <g id="kzTu2K">
    <g>
      <path class="cls-1" d="M4.8,130.5V59.7c0-3.8,1.2-6.6,3.7-9.1,6.2-6,12.4-11.9,18.5-17.9,6.2-6.2,12.1-12.6,18.5-18.6,1.8-1.7,4.8-3.2,7.3-3.2,47.7-.2,95.3-.2,143,0,2.8,0,6.2,1.4,8.2,3.4,12.9,12.5,25.5,25.2,38,38,1.5,1.6,2.6,4.3,2.7,6.6.5,9.5.8,19.1.5,28.6,0,3.7,1.4,4,4.1,4h28.2c18.1,0,36.2,0,54.2,0,4,0,5.6.9,5.5,5.2-.2,22.7,0,45.4-.1,68.1,0,5.5-.5,5.9-5.8,6-4.3,0-8.7.2-13,0-3.3-.2-4.4.8-4.4,4.3.1,36,0,72,.1,108,0,3.6-1.1,6.1-3.7,8.6-10.4,10-21.5,19.4-30.8,30.4-6.9,8.2-14.5,9.8-24.5,9.7-36.6-.5-73.2-.2-109.8-.1-3.2,0-5.6-.9-7.9-3.2-10.6-10.9-21.4-21.5-32.2-32.2-.6-.6-1.4-1-2.1-1.6-4.3-3.5-7.2-7.4-6.8-13.6.6-8.3,0-16.7.2-25.1,0-3.4-1.1-4.4-4.4-4.3-11.5.2-23-.2-34.5.2-6.1.2-10.6-1.3-14.9-6-10.6-11.3-21.8-21.9-32.9-32.6-3.4-3.3-5.1-6.8-5-11.8.2-23.5,0-46.9,0-70.4v-.5ZM239.9,96.3c0-10.6-.6-20.5.2-30.2.6-7.1-2.5-11.8-7-16.2-10.5-10.4-20.8-20.9-31.4-31-1.8-1.7-4.9-3.1-7.3-3.1-46.5-.2-92.9-.2-139.4,0-2.2,0-5,1.1-6.7,2.7-12.3,12-24.4,24.1-36.4,36.4-1.5,1.5-2.5,4.1-2.5,6.2-.1,46.6-.1,93.2,0,139.9,0,2.3,1.3,5.2,3,6.9,11.9,12.1,24,24,36.1,35.8,1.4,1.4,3.9,2.3,5.9,2.3,14,.2,28.1.1,42.1.1s3.1.2,5,.3c0,12,0,23.5,0,35,0,2.2.8,4.9,2.2,6.3,12,12.2,24.1,24.3,36.5,36.3,1.7,1.6,4.7,2.8,7.1,2.8,38.7.2,77.4.2,116.1,0,2.2,0,5-1.1,6.6-2.7,12.1-11.6,23.8-23.5,35.9-35.2,2.5-2.4,3.2-4.9,3.2-8.2-.1-36.5,0-72.9-.2-109.4,0-4.6,1.4-6.1,5.8-5.7,4.3.4,8.7-.1,13,.1,3.4.2,4.3-1,4.3-4.3-.1-20-.2-40,0-60.1,0-3.9-1-5.1-5-5.1-27.2.2-54.4,0-81.6,0h-5.6Z"/>
      <path class="cls-2" d="M239.9,96.3h87.1c4,0,5,1.1,5,5.1-.2,20-.2,40,0,60.1,0,3.4-.9,4.5-4.3,4.3-4.3-.2-8.7.2-13-.1-4.5-.4-5.9,1-5.8,5.7.2,36.5,0,72.9.2,109.4,0,3.3-.7,5.8-3.2,8.2-12,11.7-23.8,23.6-35.9,35.2-1.6,1.5-4.4,2.7-6.6,2.7-38.7.2-77.4.2-116.1,0-2.4,0-5.4-1.2-7.1-2.8-12.3-11.9-24.5-24-36.5-36.3-1.4-1.5-2.2-4.2-2.2-6.3-.2-11.5,0-23,0-35-1.9-.1-3.4-.3-5-.3-14,0-28.1,0-42.1-.1-2,0-4.5-.9-5.9-2.3-12.2-11.8-24.3-23.7-36.1-35.8-1.7-1.7-3-4.6-3-6.9-.2-46.6-.2-93.2,0-139.9,0-2.1,1-4.7,2.5-6.2,12-12.3,24.1-24.4,36.4-36.4,1.6-1.6,4.4-2.7,6.7-2.7,46.5-.1,92.9-.1,139.4,0,2.5,0,5.5,1.3,7.3,3.1,10.6,10.2,21,20.7,31.4,31,4.5,4.5,7.6,9.1,7,16.2-.8,9.8-.2,19.7-.2,30.2h0ZM250.5,108.1v160.1h-91.2v-33.4c2-.2,3.7-.4,5.5-.4,7.9,0,15.9-.2,23.8,0,4.1.1,7-1.2,9.8-4.1,8.9-9.1,18.1-17.9,27-27,1.4-1.5,2.9-3.7,2.9-5.6.3-13.6.1-27.2.2-40.8,0-2.8-1.3-3.2-3.6-3.2h-43v33.9h-23v-79.5h-68.9v45.8c6.6,0,13-.1,19.4.1,1.2,0,3.3,1.4,3.3,2.2.2,10.4,0,20.8,0,31.5h-45.4v-114.2h114.4v34.4h46.4c0-15.1,0-30-.1-44.9,0-1.2-1.3-2.6-2.2-3.6-9.7-9.9-19.3-19.8-29.2-29.5-1.5-1.5-4.1-2.5-6.1-2.6-44.1-.1-88.2-.1-132.3,0-1.6,0-3.6.7-4.7,1.8-10.3,9.9-20.4,19.9-30.4,30.1-1.4,1.4-2.2,3.9-2.2,5.9-.1,43.8-.1,87.6,0,131.4,0,2.3,1.3,5.2,2.9,6.8,9.3,9.6,18.7,18.9,28.3,28.1,1.7,1.6,4.6,2.9,6.9,2.9,16.3.2,32.6.2,48.9,0,3.6,0,5,1,5,4.8-.2,12.6-.2,25.1,0,37.7,0,2.2,1.1,5,2.6,6.6,9.8,10.1,19.9,20,30,29.8,1,1,2.8,1.8,4.2,1.8,36.8,0,73.5.1,110.3,0,1.6,0,3.7-.7,4.8-1.8,10.2-9.9,20.4-20,30.3-30.2,1.5-1.6,2.5-4.3,2.5-6.5.2-39,.1-78,.1-117v-5.5h21.9v-45.9h-69.3.1Z"/>
      <path class="cls-3" d="M250.5,108.1h69.3v45.9h-21.9v5.5c0,39,0,78-.1,117,0,2.2-1,5-2.5,6.5-9.9,10.2-20.1,20.3-30.3,30.2-1.1,1.1-3.2,1.8-4.8,1.8h-110.3c-1.4,0-3.2-.8-4.2-1.8-10.1-9.8-20.2-19.7-30-29.8-1.5-1.6-2.6-4.3-2.6-6.6-.2-12.6-.2-25.1,0-37.7,0-3.8-1.3-4.9-5-4.8-16.3.2-32.6.2-48.9,0-2.3,0-5.2-1.3-6.9-2.9-9.6-9.2-19.1-18.6-28.3-28.1-1.6-1.7-2.9-4.5-2.9-6.8-.2-43.8-.2-87.6,0-131.4,0-2,.9-4.5,2.2-5.9,10-10.2,20.2-20.2,30.4-30.1,1.1-1.1,3.1-1.8,4.7-1.8,44.1,0,88.2-.1,132.3,0,2.1,0,4.6,1.1,6.1,2.6,9.9,9.7,19.6,19.6,29.2,29.5,1,1,2.2,2.4,2.2,3.6.2,14.9.1,29.8.1,44.9h-46.4v-34.4h-114.4v114.2h45.4c0-10.6,0-21,0-31.5,0-.8-2.1-2.2-3.3-2.2-6.4-.2-12.8-.1-19.4-.1v-45.8h68.9v79.5h23v-33.9h43c2.3,0,3.6.4,3.6,3.2-.1,13.6,0,27.2-.2,40.8,0,1.9-1.5,4.1-2.9,5.6-8.9,9.1-18.1,17.9-27,27-2.8,2.9-5.8,4.2-9.8,4.1-7.9-.3-15.8-.1-23.8,0-1.8,0-3.5.3-5.5.4v33.4h91.2V108.1h-.1ZM291.9,148.5h18.7c2.6,0,3.8-.7,3.8-3.5-.1-9.3-.1-18.5,0-27.8,0-3-1.3-3.9-4.1-3.9h-49.8c-2.7,0-3.9,1.2-3.9,3.7s.6,5.6.6,8.5c-.2,48.3-.5,96.5-.6,144.8,0,3.4-1.2,4.4-4.5,4.4h-94.2c-3.2,0-4.6-.9-4.5-4.3.1-12.6.1-25.1,0-37.7,0-3.3.9-4.4,4.3-4.4,10,.2,20,.1,30,0,1.9,0,4.4-.6,5.7-1.8,9-8.6,17.9-17.5,26.6-26.5,1.5-1.5,2.3-4.2,2.4-6.3.3-9.9,0-19.7.2-29.6,0-3.8-1.2-4.9-4.9-4.8-8.5.2-17,.2-25.6,0-3.5,0-4.8,1-4.7,4.5.2,8.7.2,17.3,0,26,0,1.4-1.6,4-2.6,4.1-10.2.3-20.5.2-31.5.2v-80.6h-54.9c-3,0-3.2,1.9-3.2,4.2,0,8.5.2,17,0,25.6-.2,4.5,1.5,5.7,5.7,5.4,5.8-.3,11.5,0,17.6,0v37.9c0,8.5.4,7.7-7.8,7.6-14.3,0-28.7-.3-43-.5-6.4,0-6.4-.1-6.4-6.7v-113.4c0-4.5,1.2-5.9,5.8-5.8,38.9.2,77.7,0,116.6,0,1.3,0,2.6.2,4.1.3v30c0,3,.9,4.7,4.4,4.6,8.8-.2,17.6,0,26.5,0,3.1,0,4.2-1.1,4.2-4.2-.1-10.6,0-21.2-.1-31.8,0-1.5-.9-3.4-2-4.5-8.3-8.6-16.8-17-25-25.6-2.6-2.7-5.3-3.8-9.1-3.8-41.4,0-82.8,0-124.2,0-3.7,0-6,1.3-8.4,4-5.8,6.2-12.1,11.9-17.8,18.1-3.7,4-9.2,6.9-9.2,13.5v125.6c0,2,1,4.4,2.4,5.8,7.7,8.1,15.7,15.9,23.3,24,3.4,3.6,7.2,4.9,12.2,4.8,16.1-.3,32.3,0,48.4-.2,4.5,0,5.5,1.4,5.4,5.6-.3,13.3-.2,26.6,0,39.9,0,2.2.9,4.8,2.3,6.3,8.7,8.9,17.6,17.6,26.6,26.2,1.5,1.4,3.7,2.7,5.7,2.7,34.7.2,69.4.2,104,0,2,0,4.3-1.2,5.8-2.6,7.1-6.5,13.9-13.4,20.9-20,5.6-5.2,8.3-10.8,8.2-19.1-.6-37.7-.2-75.3-.2-113v-5.9h-.2Z"/>
      <path class="cls-1" d="M291.9,148.5v5.9c0,37.7-.3,75.3.2,113,.1,8.2-2.6,13.9-8.2,19.1-7,6.6-13.8,13.4-20.9,20-1.5,1.4-3.8,2.6-5.8,2.6-34.7.2-69.4.2-104,0-1.9,0-4.2-1.3-5.7-2.7-9-8.6-17.9-17.3-26.6-26.2-1.4-1.5-2.3-4.2-2.3-6.3-.2-13.3-.3-26.6,0-39.9,0-4.2-.9-5.7-5.4-5.6-16.1.3-32.3,0-48.4.2-5,0-8.8-1.2-12.2-4.8-7.7-8.1-15.7-15.9-23.3-24-1.4-1.4-2.4-3.9-2.4-5.8-.1-41.9,0-83.7,0-125.6s5.5-9.6,9.2-13.5c5.8-6.2,12.1-11.9,17.8-18.1,2.4-2.6,4.8-4,8.4-4,41.4,0,82.8,0,124.2,0,3.8,0,6.5,1.1,9.1,3.8,8.3,8.6,16.8,17,25,25.6,1.1,1.1,1.9,3,2,4.5.2,10.6,0,21.2.1,31.8,0,3.1-1.1,4.2-4.2,4.2-8.8,0-17.6-.2-26.5,0-3.5,0-4.4-1.6-4.4-4.6v-30c-1.5,0-2.8-.3-4.1-.3-38.9,0-77.7,0-116.6,0-4.6,0-5.8,1.3-5.8,5.8.2,37.8,0,75.6,0,113.4s0,6.6,6.4,6.7c14.3.2,28.7.4,43,.5,8.3,0,7.8.9,7.8-7.6v-37.9c-6.1,0-11.9-.2-17.6,0-4.2.2-5.9-.9-5.7-5.4.3-8.5,0-17,0-25.6,0-2.3.2-4.2,3.2-4.2h54.9v80.6c11,0,21.2.1,31.5-.2.9,0,2.5-2.6,2.6-4.1.2-8.7.3-17.3,0-26,0-3.6,1.2-4.6,4.7-4.5,8.5.2,17,.2,25.6,0,3.7,0,5,1.1,4.9,4.8-.2,9.9,0,19.7-.2,29.6,0,2.1-.9,4.8-2.4,6.3-8.7,9-17.6,17.8-26.6,26.5-1.3,1.3-3.8,1.8-5.7,1.8-10,.2-20,.2-30,0-3.4,0-4.4,1.1-4.3,4.4.2,12.6.2,25.1,0,37.7,0,3.4,1.3,4.3,4.5,4.3h94.2c3.3,0,4.4-1,4.5-4.4.2-48.3.4-96.5.6-144.8,0-2.8-.5-5.6-.6-8.5,0-2.5,1.2-3.7,3.9-3.7h49.8c2.8,0,4.1.9,4.1,3.9,0,9.3-.1,18.5,0,27.8,0,2.8-1.1,3.6-3.8,3.5-6-.1-11.9,0-18.7,0h.2Z"/>
    </g>
  </g>
</svg>