<?xml version="1.0" encoding="UTF-8"?>
<svg id="Layer_1" data-name="Layer 1" xmlns="http://www.w3.org/2000/svg" version="1.1" viewBox="0 0 342 342">
  <defs>
    <style>
      .cls-1 {
        fill: #d86503;
        stroke-width: 0px;
      }
    </style>
  </defs>
  <g id="rZ7YY8">
    <g>
      <path class="cls-1" d="M17.9,327.4V0h306v256.4c-31.6-28.8-62.7-57-94.3-85.8-19,17.4-37.9,34.6-57.2,52.3-6.4-5.8-12.5-11.3-19.3-17.4-44.8,40.4-89.4,80.6-135.2,121.9ZM293.9,195.4c9.5-43-14.9-92.3-55.2-112.8-45.5-23.1-97.7-13.3-131.3,24.9-31,35.3-32.7,85.7-14.2,117.7,19.9-17.9,39.7-35.8,59.7-53.9,6.8,6.1,13,11.8,19.5,17.6,19.2-17.8,37.8-34.9,56.9-52.5,21.6,19.7,42.7,39,64.6,58.9Z"/>
      <path class="cls-1" d="M124,303.1v38h-13.9v-69.2c11.1-3.2,13.6-2.2,19.1,7.4,5.7,10,11.5,20.1,18.4,29.9v-38h14.5v69.3c-11.8,2.8-13.5,2.1-19.4-8.1-5.7-10-11.4-20-17.1-29.9-.5.2-1,.4-1.5.6Z"/>
      <path class="cls-1" d="M222,306.8c0,7.1.1,14.2,0,21.4-.2,8.6-4.6,13.1-13.3,13.3-7.6.2-15.2.2-22.8,0-8.8-.2-13.3-4.5-13.4-13.2-.2-14.7-.2-29.4,0-44.1,0-8.2,3.9-12.7,11.8-13.2,8.5-.5,17.1-.5,25.6,0,7.9.5,11.7,5,12,13.1,0,.2,0,.5,0,.7,0,7.4,0,14.7,0,22.1ZM188.3,326.7h17.9v-41.5h-17.9v41.5Z"/>
      <path class="cls-1" d="M323.1,291.5h-13.7c-.5-2.1-.9-4.3-1.4-6.5h-14.8q-2,10.6,7.2,13.2c.7.2,1.4.4,2.1.6,24.6,6.6,21.6,5.3,21.6,30.7,0,7.1-4.6,11.5-11.7,11.8-7.8.3-15.7.4-23.5,0-9.5-.4-12.9-6.5-11.6-20.6h14.3c.3,1.8.5,3.8.9,6.2h15.4c2.9-9.8,2.2-11.1-7.2-13.8-3.6-1-7.3-1.9-10.9-3-2.5-.8-5.3-1.2-7.3-2.7-9.9-7.6-5.1-18.3-4.6-27.7.3-7,6.7-9,13.2-8.9,4.7,0,9.5,0,14.2,0,16.2,0,19.3,3.5,17.7,20.8Z"/>
      <path class="cls-1" d="M232.4,271h14.5v56.1h22.2v14h-36.7v-70.1Z"/>
    </g>
  </g>
</svg>