<?xml version="1.0" encoding="UTF-8"?>
<svg id="Layer_1" data-name="Layer 1" xmlns="http://www.w3.org/2000/svg" version="1.1" viewBox="0 0 1438.7 601.8">
  <defs>
    <style>
      .cls-1 {
        fill: #000;
      }

      .cls-1, .cls-2 {
        stroke-width: 0px;
      }

      .cls-2 {
        fill: #f0f0f0;
      }

      .cls-3 {
        display: none;
      }
    </style>
  </defs>
  <g class="cls-3">
    <polygon class="cls-1" points="1246.3 195.8 1191.1 227.7 1188.7 229.6 1186.9 231.9 1185.7 234.7 1185.3 237.7 1185.7 240.7 1186.9 243.6 1188.7 245.9 1191.1 247.7 1193.9 248.9 1196.9 249.3 1199.9 248.9 1202.7 247.7 1257.9 215.9 1260.3 214.1 1262.1 211.7 1263.3 208.8 1263.7 205.8 1263.3 202.8 1262.1 200.1 1260.3 197.7 1257.9 195.8 1255.1 194.7 1252.1 194.3 1249.1 194.7 1246.3 195.8"/>
    <polygon class="cls-1" points="1184.7 134.2 1182.3 136.1 1180.4 138.4 1148.5 193.7 1147.4 196.4 1147 199.4 1147.4 202.4 1148.5 205.2 1150.4 207.7 1152.8 209.6 1155.6 210.7 1158.6 211.1 1161.6 210.7 1164.4 209.6 1166.8 207.7 1168.6 205.2 1200.5 150.1 1201.6 147.2 1202 144.2 1201.6 141.2 1200.5 138.4 1198.6 136.1 1196.2 134.2 1193.4 133.1 1190.4 132.7 1187.4 133.1 1184.7 134.2"/>
    <polygon class="cls-1" points="1205.2 280.1 1202.8 281.8 1200.9 284.2 1199.8 287 1199.4 289.9 1286.2 289.9 1285.9 287 1284.7 284.2 1282.9 281.8 1280.5 280.1 1277.7 278.8 1274.7 278.4 1211 278.4 1208 278.8 1205.2 280.1"/>
    <path class="cls-1" d="M1106.3,208.9c-44.7,0-81,36.2-81.1,80.9h162.3c0-44.7-36.4-80.9-81.1-80.9h-.1Z"/>
    <polygon class="cls-1" points="1021.5 247.8 1023.9 246.1 1025.7 243.7 1026.9 240.8 1027.2 237.8 1026.9 234.8 1025.7 232.1 1023.9 229.7 1021.5 227.8 966.3 195.9 963.5 194.8 960.5 194.4 957.5 194.8 954.7 195.9 952.3 197.8 950.4 200.2 949.3 202.9 948.9 205.9 949.3 208.9 950.4 211.7 952.3 214.2 954.7 216.1 1009.9 247.8 1012.7 249.1 1015.7 249.4 1018.7 249.1 1021.5 247.8"/>
    <polygon class="cls-1" points="1095.1 188.4 1096.2 191.2 1098.1 193.7 1100.5 195.6 1103.3 196.7 1106.3 197.1 1109.3 196.7 1112 195.6 1114.4 193.7 1116.3 191.2 1117.4 188.4 1117.8 185.4 1117.8 121.7 1117.4 118.7 1116.3 115.9 1114.4 113.6 1112 111.7 1109.3 110.6 1106.3 110.2 1103.3 110.6 1100.5 111.7 1098.1 113.6 1096.2 115.9 1095.1 118.7 1094.7 121.7 1094.7 185.4 1095.1 188.4"/>
    <polygon class="cls-1" points="1013.2 289.9 1012.9 287.2 1011.7 284.3 1009.9 281.9 1007.5 280.2 1004.7 278.9 1001.7 278.6 937.9 278.6 934.9 278.9 932.2 280.2 929.8 281.9 927.9 284.3 926.8 287.2 926.4 289.9 1013.2 289.9"/>
    <polygon class="cls-1" points="1045.7 207.7 1048.1 209.6 1050.9 210.7 1053.9 211.2 1056.9 210.7 1059.7 209.6 1062.1 207.7 1064 205.3 1065.1 202.6 1065.5 199.6 1065.1 196.6 1064 193.7 1032.1 138.6 1030.3 136.2 1027.9 134.3 1025.1 133.2 1022.1 132.7 1019.1 133.2 1016.3 134.3 1013.9 136.2 1012 138.6 1010.9 141.3 1010.5 144.3 1010.9 147.3 1012 150.2 1043.9 205.3 1045.7 207.7"/>
  </g>
  <g>
    <g>
      <circle class="cls-2" cx="719.3" cy="213.7" r="96.4"/>
      <polygon class="cls-2" points="833.8 263.9 899.4 301.7 902.2 303.9 904.4 306.7 905.8 310.1 906.3 313.6 905.8 317.2 904.4 320.5 902.2 323.4 899.4 325.5 896.1 326.9 892.5 327.4 889 326.9 885.6 325.5 820.1 287.7 817.2 285.5 815 282.7 813.7 279.3 813.2 275.8 813.7 272.2 815 268.9 817.2 266.1 820.1 263.9 823.4 262.5 827 262 830.5 262.5 833.8 263.9"/>
      <polygon class="cls-2" points="793.4 314.4 831.3 380 832.6 383.3 833.1 386.8 832.6 390.4 831.3 393.7 829.1 396.6 826.2 398.8 822.9 400.1 819.3 400.6 815.8 400.1 812.5 398.8 809.6 396.6 807.4 393.7 769.6 328.2 768.2 324.9 767.7 321.3 768.2 317.7 769.6 314.4 771.8 311.6 774.6 309.4 777.9 308 781.5 307.5 785.1 308 788.4 309.4 791.2 311.6 793.4 314.4"/>
      <polygon class="cls-2" points="733.1 338 733.1 413.7 732.7 417.2 731.3 420.6 729.1 423.4 726.3 425.6 722.9 427 719.4 427.4 715.8 427 712.5 425.6 709.6 423.4 707.5 420.6 706.1 417.2 705.6 413.7 705.6 338 706.1 334.4 707.5 331.1 709.6 328.3 712.5 326.1 715.8 324.7 719.4 324.2 722.9 324.7 726.3 326.1 729.1 328.3 731.3 331.1 732.7 334.4 733.1 338"/>
      <polygon class="cls-2" points="669.1 328.3 631.3 393.8 629.1 396.7 626.3 398.8 622.9 400.2 619.4 400.7 615.8 400.2 612.5 398.8 609.6 396.6 607.5 393.8 606.1 390.5 605.6 386.9 606.1 383.4 607.5 380 645.3 314.5 647.5 311.6 650.3 309.5 653.7 308.1 657.2 307.6 660.8 308.1 664.1 309.5 667 311.6 669.1 314.5 670.5 317.8 671 321.4 670.5 324.9 669.1 328.3"/>
      <polygon class="cls-2" points="618.6 287.8 553 325.7 549.7 327 546.2 327.5 542.6 327 539.3 325.7 536.4 323.5 534.2 320.6 532.9 317.3 532.4 313.8 532.9 310.2 534.2 306.9 536.4 304 539.3 301.8 604.8 264 608.1 262.6 611.7 262.1 615.3 262.6 618.6 264 621.4 266.2 623.6 269 625 272.3 625.5 275.9 625 279.5 623.6 282.8 621.4 285.6 618.6 287.8"/>
      <polygon class="cls-2" points="595 227.5 519.3 227.5 515.8 227.1 512.5 225.7 509.6 223.5 507.4 220.7 506 217.3 505.6 213.8 506 210.2 507.4 206.9 509.6 204 512.5 201.9 515.8 200.5 519.3 200 595 200 598.6 200.5 601.9 201.9 604.7 204 606.9 206.9 608.3 210.2 608.8 213.8 608.3 217.3 606.9 220.7 604.7 223.5 601.9 225.7 598.6 227.1 595 227.5"/>
      <polygon class="cls-2" points="604.8 163.5 539.2 125.7 536.4 123.5 534.2 120.7 532.8 117.3 532.3 113.8 532.8 110.2 534.2 106.9 536.4 104.1 539.2 101.9 542.5 100.5 546.1 100 549.6 100.5 553 101.9 618.5 139.7 621.4 141.9 623.6 144.7 624.9 148.1 625.4 151.6 624.9 155.2 623.6 158.5 621.4 161.4 618.5 163.5 615.2 164.9 611.6 165.4 608.1 164.9 604.8 163.5"/>
      <polygon class="cls-2" points="645.2 113 607.3 47.4 606 44.1 605.5 40.6 606 37 607.3 33.7 609.5 30.8 612.4 28.6 615.7 27.3 619.3 26.8 622.8 27.3 626.1 28.6 629 30.8 631.2 33.7 669 99.2 670.4 102.5 670.9 106.1 670.4 109.7 669 113 666.8 115.8 664 118 660.7 119.4 657.1 119.9 653.5 119.4 650.2 118 647.4 115.8 645.2 113"/>
      <polygon class="cls-2" points="705.5 89.4 705.5 13.7 705.9 10.2 707.3 6.9 709.5 4 712.3 1.8 715.7 .4 719.2 0 722.8 .4 726.1 1.8 729 4 731.1 6.9 732.5 10.2 733 13.7 733 89.4 732.5 93 731.1 96.3 729 99.2 726.1 101.3 722.8 102.7 719.2 103.2 715.7 102.7 712.3 101.3 709.5 99.2 707.3 96.3 705.9 93 705.5 89.4"/>
      <polygon class="cls-2" points="769.5 99.2 807.3 33.6 809.5 30.8 812.3 28.6 815.7 27.2 819.2 26.7 822.8 27.2 826.1 28.6 829 30.8 831.1 33.6 832.5 36.9 833 40.5 832.5 44.1 831.1 47.4 793.3 112.9 791.1 115.8 788.3 118 784.9 119.3 781.4 119.8 777.8 119.3 774.5 118 771.6 115.8 769.5 112.9 768.1 109.6 767.6 106 768.1 102.5 769.5 99.2"/>
      <polygon class="cls-2" points="820 139.6 885.6 101.7 888.9 100.4 892.4 99.9 896 100.4 899.3 101.7 902.2 103.9 904.4 106.8 905.7 110.1 906.2 113.7 905.7 117.2 904.4 120.5 902.2 123.4 899.3 125.6 833.8 163.4 830.5 164.8 826.9 165.3 823.3 164.8 820 163.4 817.2 161.2 815 158.4 813.6 155.1 813.1 151.5 813.6 147.9 815 144.6 817.2 141.8 820 139.6"/>
      <polygon class="cls-2" points="843.6 199.9 919.3 199.9 922.8 200.3 926.1 201.7 929 203.9 931.2 206.8 932.6 210.1 933 213.6 932.6 217.2 931.2 220.5 929 223.4 926.1 225.6 922.8 226.9 919.3 227.4 843.6 227.4 840 226.9 836.7 225.6 833.9 223.4 831.7 220.5 830.3 217.2 829.8 213.6 830.3 210.1 831.7 206.8 833.9 203.9 836.7 201.7 840 200.3 843.6 199.9"/>
    </g>
    <g>
      <path class="cls-2" d="M50.6,433.1H5c-2.9,0-5-2.4-5-5v-7.6c0-2.6,2.1-5,5-5h111.1c2.9,0,5,2.4,5,5v7.6c0,2.6-2.1,5-5,5h-45.6v160.9c0,2.6-2.4,5-5,5h-10c-2.6,0-5-2.4-5-5v-160.9h.1Z"/>
      <path class="cls-2" d="M138.9,420.5c0-2.6,2.4-5,5-5h8.1c2.6,0,5,2.4,5,5v84.9s13.9-13.9,35.1-13.9,40.6,16.5,40.6,47.2v55.3c0,2.6-2.4,5-5,5h-8.4c-2.6,0-5-2.4-5-5v-55.3c0-19.9-8.9-29.6-23.6-29.6s-33.8,14.7-33.8,14.7v70.2c0,2.6-2.4,5-5,5h-8.1c-2.6,0-5-2.4-5-5v-173.5h0Z"/>
      <path class="cls-2" d="M307.4,491.6c27.5,0,47.4,20.4,47.4,48s-.3,5.2-.5,7.1c-.3,2.6-2.4,4.5-4.7,4.5h-75.5c1,17.6,16.5,34.1,35.1,34.1s19.9-4.2,25.9-7.9c3.7-2.1,5.2-3.4,7.3-.5,1.6,2.1,2.9,3.9,4.5,6,1.8,2.4,2.9,3.9-1,6.8-6.3,5-20.4,12.1-38.5,12.1-31.7,0-51.4-24.9-51.4-55s19.7-55,51.4-55v-.2ZM336.8,536.4c-.8-15.2-13.4-28.8-29.4-28.8s-31.2,12.6-33,28.8h62.4Z"/>
      <path class="cls-2" d="M437.9,571.5c1.3-1.6,2.6-3.4,3.9-5,2.6-3.4,5.5-5.5,9.2-2.4,1.8,1.6,21,19.9,44.3,19.9s35.1-13.4,35.1-28.8-15.7-28.8-45.9-41.4c-28.8-12.6-46.1-24.4-46.1-54.2s14.2-46.6,55.8-46.6,44.8,13.4,44.8,13.4c1.6.8,4.7,3.9,1.6,8.9-1,1.6-2.1,3.4-3.1,5-2.4,3.7-5,4.7-9.2,2.4-1.8-1-18.3-12.1-34.3-12.1-27.8,0-36.2,17.8-36.2,28.8,0,17.6,13.4,27.8,35.4,36.9,35.4,14.4,58.2,27.8,58.2,58.2s-25.9,47.2-56.6,47.2-51.9-18.1-55.3-21.2c-2.1-1.8-4.7-3.9-1.6-8.9h0Z"/>
      <path class="cls-2" d="M577,499.2c0-2.6,2.4-5,5-5h8.4c2.6,0,5,2.4,5,5v55.3c0,19.9,8.9,29.6,23.6,29.6s31.2-14.9,31.2-14.9v-70c0-2.6,2.4-5,5-5h8.1c2.6,0,5,2.4,5,5v94.9c0,2.6-2.4,5-5,5h-5c-2.9,0-3.9-1.8-4.7-4.5l-1.8-6.8s-12.3,13.9-34.1,13.9-40.6-19.7-40.6-47.4v-55h-.1Z"/>
      <path class="cls-2" d="M699.1,499.2c0-2.6,2.4-5,5-5h5c2.4,0,3.7,1,4.2,3.1l2.4,8.1s14.9-13.9,36.7-13.9,40.6,19.9,40.6,47.2v55.3c0,2.6-2.4,5-5,5h-8.4c-2.6,0-5-2.4-5-5v-55.3c0-19.9-8.9-29.6-23.6-29.6s-33.8,14.9-33.8,14.9v70c0,2.6-2.4,5-5,5h-8.1c-2.6,0-5-2.4-5-5v-94.9h0Z"/>
      <path class="cls-2" d="M976.4,412.9c26.5,0,45.6,9.2,63.4,24.4,2.1,2.1,2.4,5.2.3,7.3l-7.1,7.1c-2.1,2.6-4.2,2.4-6.8-.3-13.6-11.8-32.2-19.7-50.1-19.7-41.4,0-73.1,34.9-73.1,75.5s31.7,75.2,73.1,75.2,36.2-9.2,50.1-19.7c2.6-2.1,4.7-1.8,6.3-.8l7.9,7.1c2.1,1.6,1.6,5.2-.3,7.1-17.8,17.3-40.4,25.4-63.7,25.4-52.4,0-94.6-41.7-94.6-94.1s42.2-94.6,94.6-94.6h0Z"/>
      <path class="cls-2" d="M1064,420.5c0-2.6,2.4-5,5-5h8.1c2.6,0,5,2.4,5,5v173.5c0,2.6-2.4,5-5,5h-8.1c-2.6,0-5-2.4-5-5v-173.5Z"/>
      <path class="cls-2" d="M1158.4,491.6c29.1,0,52.1,25.2,52.1,54.8s-23.1,55.3-52.1,55.3-52.1-25.2-52.1-55.3,23.1-54.8,52.1-54.8ZM1158.4,584.6c19.1,0,34.1-17,34.1-38.3s-14.9-37.5-34.1-37.5-34.1,16.8-34.1,37.5,14.9,38.3,34.1,38.3Z"/>
      <path class="cls-2" d="M1281.7,491.6c15.7,0,28,6.3,37.5,18.3,1.8,2.4,1.3,5.5-1,7.3l-5,4.2c-3.9,3.7-5.2,1-7.6-1-5.2-6-13.9-11-24.1-11-19.7,0-34.9,16.2-34.9,37.2s14.9,37.7,34.6,37.7,21.8-7.9,27.8-13.6c3.1-3.1,5-2.6,7.9-.5l2.9,2.1c2.6,1.8,3.4,4.7,1.8,7.3-7.9,12.6-22.3,22-40.1,22-29.1,0-53.7-23.3-53.7-54.8s25.4-55.3,54-55.3h-.1Z"/>
      <path class="cls-2" d="M1343.8,420.5c0-2.6,2.4-5,5-5h8.1c2.6,0,5,2.4,5,5v113.5l44.5-36.7c2.1-1.8,4.2-3.1,6.3-3.1h14.2c4.5,0,4.2,5,2.4,6.6l-49.8,39.8,57.9,51.9c2.1,1.8,1.8,6.6-2.6,6.6h-14.4c-2.4,0-4.2-1.3-5.2-2.1l-53.2-50.6v47.7c0,2.6-2.4,5-5,5h-8.1c-2.6,0-5-2.4-5-5v-173.5h-.1Z"/>
    </g>
  </g>
</svg>