<svg version="1.1" id="Layer_1" xmlns="http://www.w3.org/2000/svg" xmlns:xlink="http://www.w3.org/1999/xlink" x="0px" y="0px"
	 viewBox="0 0 380 380" style="enable-background:new 0 0 380 380;" xml:space="preserve">
	 <g>
	<path class="logoW" fill="hsla(159, 76%, 54%, 1)" d="M205.07,243.67c6.81,11.47,9.02,24.44,10.11,37.44c0.9,9.37,1.52,18.73,1.79,28.13
		c-0.1,2.4,1.13,5.92,2.08,7.78c-1.53-1.58-4.32-2.43-6.51-1.71c-0.71,0.27-0.2,0.15,0.36-0.23c0.65-0.46,1.55-1.18,2.18-1.77
		c5.1-5.27,10.3-12.38,15.79-17.5c9.4-9.38,22.24-15.92,35.71-11.71c10.79,3.29,19.04,10.83,24.49,20.34
		c1.95,3.69,3.69,8.66,6.57,11.03c0.63,0.44,0.51,0.51,1.14,0.51c-0.41,0.09-0.89,0.31-1.26,0.56c-0.46,0.33-0.36,0.36-0.21,0.24
		c3.44-3.95,5.57-10.42,7.49-15.65c5.64-16.86,7.73-35.16,5.61-53.02c-0.71-6.32-1.24-12.65,0.27-19.06
		c0.18-0.89,1.51-1.13,1.97-0.33c3.56,5.6,5.48,11.55,6.84,17.92c2.86,12.64,3.9,25.97,2.89,38.99
		c-0.96,12.09-5.02,38.94-15.92,45.82c-7.92,4.67-18.16,1.43-23.86-4.92c-3.78-3.98-5.77-7.63-8.03-11.74
		c-1.96-3.19-4.95-6.11-8.09-8.05c-5-3.11-9.54-3.56-14.28,0.17c-6.09,4.44-11.69,12.56-16.48,18.62
		c-4.77,6.11-11.35,12.56-19.52,13.6c-13.73,1.45-20.71-11.09-23-22.74c-1-5.29-0.46-10.83-0.4-16.2
		c0.81-15.8,0.72-31.93,6.03-47.06c1.12-3.14,2.39-6.29,4.26-9.44C203.49,242.95,204.63,242.93,205.07,243.67z"/>
	<path class="logoH" fill="hsla(196, 100%, 44%, 1)" d="M188.39,336.29c-3.5-0.15-6.52-2.26-8.86-4.66c-6.31-6.67-7.88-15.74-10.2-24.18
		c-2.64-10.98-4.39-21.96-5.95-32.85c-0.64-4.44-1.41-10.92-2.59-15.17c-1.22-4.76-2.82-9.54-4.77-13.81
		c-1.35-2.9-2.73-5.56-4.66-7.66c-0.44-0.47-0.82-0.66-0.65-0.47c0.57,0.47,1.38,0.66,2.15,0.7c0.13-0.01,0.02,0.01,0.02,0.01
		l-0.07,0.02c-1.78,0.4-2.89,1.17-4.76,2.69c-2.71,2.29-5.51,5.86-7.99,9.77c-6.43,10.25-10.88,21.7-13.37,33.61
		c-1.83,7.92-3.7,16.35-5.88,24.3c-1.7,6.09-3.26,11.47-6.08,17.58c-1.75,3.48-3.52,6.99-7.58,10.19
		c-6.68,5.39-16.79,4.33-23.26-1.31c-8.07-7.25-10.73-17.04-13.22-26.79c-5.23-22.52-5.18-45.62-4.65-68.53
		c0.58-43.77,3.16-87.13,8.9-130.58c1.49-11.64,2.32-23.84,2.88-35.88c0.89-9.7-2.02-20.27,4.3-28.63c0.46-0.6,1.31-0.71,1.91-0.25
		c1.42,1.24,2.44,2.53,3.32,3.82c4.13,5.99,4.37,13.26,5.62,20.21c4.71,34.13,4.67,72.39,5.12,106.9
		c0.12,27.11-0.99,54.18-1.48,81.2c-0.17,9.1,0.07,18.02,0.72,27.07c0.45,6.05,1.32,12.39,2.51,18.18
		c0.76,3.66,1.96,8.45,3.37,11.28c0.2,0.42,0.35,0.52-0.17,0.04c-3.56-3.22-9.99-2.42-13.31,0.26c-1.2,0.97-1.32,1.31-1.42,1.41
		c1.21-1.67,2.29-4.55,3.32-7.17c2.73-7.21,4.95-14.58,7.16-22.16c0.79-2.73,2.67-9.25,3.45-11.87c2.12-7.24,5.33-14.5,8.74-21.02
		c7.59-13.94,18.07-30.01,34.4-34.86c4.72-1.26,10.12-1.5,14.58,0.74c12.31,6.3,16.62,25.02,18.89,37.31
		c1.01,5.03,1.14,12.02,1.49,17.17c0.61,10.75,1.41,21.39,2.99,31.75c0.78,5.17,1.83,10.26,3.16,15.04
		c1.32,5.04,1.54,9.86,2.99,14.92C189.82,335.38,189.27,336.34,188.39,336.29z"/>
</g>
</svg>
