<?xml version="1.0" encoding="UTF-8"?>
<svg id="Layer_1" data-name="Layer 1" xmlns="http://www.w3.org/2000/svg" version="1.1" viewBox="0 0 530.8 191.8">
  <defs>
    <style>
      .cls-1 {
        fill: #f0f0f0;
        stroke-width: 0px;
      }
    </style>
  </defs>
  <g>
    <path class="cls-1" d="M9.5,74H3.3c-1.8,0-3.3-1.6-3.3-3.5v-12.2c0-2,1.5-3.5,3.3-3.5h6.2v-20.3c0-1.8,1.6-3.5,3.5-3.5l15-.2c1.8,0,3.3,1.6,3.3,3.5v20.5h16.1c2,0,3.5,1.5,3.5,3.5v12.2c0,1.8-1.5,3.5-3.5,3.5h-16.1v29.2c0,5.1,2.7,5.8,5.7,5.8s6.9-1.3,8.9-2,3.5.2,4,2l3.7,11.5c.7,1.8-.2,3.7-2,4.4-.9.5-12.8,4.7-21.7,4.7-14.1,0-20.3-8.8-20.3-23.6v-32.1h-.1Z"/>
    <path class="cls-1" d="M100.4,53c20.6,0,37.4,17.5,37.4,38.2s-16.8,38.5-37.4,38.5-37.4-17.5-37.4-38.5,16.8-38.2,37.4-38.2ZM100.4,109.9c9.7,0,17.5-8.4,17.5-18.8s-7.9-18.4-17.5-18.4-17.5,8.2-17.5,18.4,7.7,18.8,17.5,18.8Z"/>
    <path class="cls-1" d="M184.8,53c7.3,0,13,2,16.3,3.3V3.5c0-1.8,1.6-3.5,3.5-3.5h15.5c1.8,0,3.5,1.6,3.5,3.5v120.9c0,1.8-1.6,3.5-3.5,3.5h-7.1c-1.6,0-2.9-1.5-3.5-3.5l-1.8-5.7s-8.6,11-23.9,11-35.1-17.4-35.1-38.4,14.4-38.4,36.2-38.4h-.1ZM186.5,109.9c9.7,0,14.1-7.5,15.3-11.9v-21.2s-5.1-4.2-14.2-4.2-17.7,8.4-17.7,18.6,6.9,18.6,16.6,18.6h0Z"/>
    <path class="cls-1" d="M277.2,53c20.6,0,37.4,17.5,37.4,38.2s-16.8,38.5-37.4,38.5-37.4-17.5-37.4-38.5,16.8-38.2,37.4-38.2ZM277.2,109.9c9.7,0,17.5-8.4,17.5-18.8s-7.9-18.4-17.5-18.4-17.5,8.2-17.5,18.4,7.7,18.8,17.5,18.8Z"/>
    <path class="cls-1" d="M326.9,119.1l4.9-9.9c.7-1.8,2.6-2.2,4.2-1.3,0,0,8.2,4.4,16.6,4.4s6.2-1.5,6.2-4.6-2.6-5.3-12.2-9.1c-14.1-5.5-20.6-13-20.6-24.1s8.2-21.6,26.8-21.6,18.6,3.1,22.5,5.7c1.6,1.1,2.6,3.1,1.6,4.9l-4.6,9.3c-.9,1.6-2.9,1.8-4.4,1.3,0,0-8.2-3.8-15.2-3.8s-6.2,1.8-6.2,4.2,3.3,4.4,10,7.1c14.1,5.5,24.7,11.5,24.7,25.8s-10.6,22.3-29,22.3-20.5-3.8-24.3-6.8c-1.1-.9-1.8-2.4-1.1-3.8h.1Z"/>
  </g>
  <g>
    <path class="cls-1" d="M6.2,191.6v-41.9h2.8v10l-.5,5.3.6,5.3v21.3h-2.9ZM21.6,180.4c-2.7,0-5.1-.6-7.3-1.9-2.2-1.2-3.9-3-5.2-5.4-1.3-2.3-1.9-5.1-1.9-8.3s.6-6,1.9-8.3,3-4.1,5.2-5.4c2.2-1.2,4.6-1.9,7.3-1.9s5.5.7,7.8,2c2.3,1.3,4.1,3.1,5.4,5.5,1.3,2.3,2,5,2,8.1s-.7,5.7-2,8.1c-1.3,2.3-3.1,4.2-5.4,5.5s-4.9,2-7.8,2h0ZM21.4,177.8c2.3,0,4.5-.5,6.3-1.6,1.9-1.1,3.3-2.6,4.4-4.5,1.1-2,1.6-4.2,1.6-6.7s-.5-4.8-1.6-6.8c-1.1-1.9-2.5-3.4-4.4-4.5s-4-1.6-6.3-1.6-4.4.5-6.3,1.6c-1.9,1.1-3.3,2.6-4.4,4.5s-1.6,4.2-1.6,6.8.5,4.8,1.6,6.7c1.1,2,2.5,3.5,4.4,4.5,1.9,1.1,4,1.6,6.3,1.6Z"/>
    <path class="cls-1" d="M45.7,180.2v-30.6h2.8v8.4l-.3-.9c.9-2.5,2.3-4.4,4.3-5.7s4.6-2,7.6-2v2.9h-.8c-3.4,0-6.1,1.1-8,3.2-1.9,2.1-2.9,5.1-2.9,8.9v15.9h-2.9.2Z"/>
    <path class="cls-1" d="M80.8,180.4c-2.9,0-5.5-.7-7.8-2s-4.1-3.2-5.4-5.5-2-5-2-8,.7-5.7,2-8.1c1.3-2.3,3.2-4.1,5.4-5.5,2.3-1.3,4.9-2,7.8-2s5.5.7,7.8,2,4.1,3.2,5.4,5.5,2,5,2,8.1-.7,5.7-2,8-3.1,4.2-5.4,5.5-4.9,2-7.8,2ZM80.8,177.8c2.3,0,4.5-.5,6.3-1.6,1.9-1.1,3.3-2.6,4.4-4.5,1.1-2,1.6-4.2,1.6-6.7s-.5-4.8-1.6-6.8c-1.1-1.9-2.5-3.4-4.4-4.5s-4-1.6-6.3-1.6-4.4.5-6.3,1.6-3.3,2.6-4.4,4.5-1.6,4.2-1.6,6.8.5,4.8,1.6,6.7c1.1,2,2.5,3.5,4.4,4.5,1.9,1.1,4,1.6,6.3,1.6Z"/>
    <path class="cls-1" d="M116.9,180.4c-2.9,0-5.4-.7-7.7-2-2.3-1.3-4.1-3.1-5.4-5.5-1.3-2.3-2-5-2-8.1s.7-5.8,2-8.1,3.1-4.1,5.4-5.4c2.3-1.3,4.9-2,7.7-2s5.1.6,7.3,1.9c2.2,1.3,3.9,3,5.2,5.3s1.9,5.1,1.9,8.3-.6,5.9-1.9,8.3c-1.3,2.3-3,4.1-5.1,5.4-2.2,1.2-4.6,1.9-7.4,1.9h0ZM117.1,177.8c2.3,0,4.4-.5,6.3-1.6s3.3-2.6,4.4-4.5c1.1-2,1.6-4.2,1.6-6.7s-.5-4.8-1.6-6.8c-1.1-1.9-2.5-3.4-4.4-4.5s-4-1.6-6.3-1.6-4.4.5-6.3,1.6-3.3,2.6-4.4,4.5-1.6,4.2-1.6,6.8.5,4.8,1.6,6.7c1.1,2,2.5,3.5,4.4,4.5,1.9,1.1,4,1.6,6.3,1.6ZM129.5,180.2v-10l.5-5.3-.6-5.3v-22.8h2.9v43.5h-2.9.1Z"/>
    <path class="cls-1" d="M157.1,180.4c-2.6,0-4.9-.5-6.8-1.4-1.9-1-3.4-2.4-4.4-4.3-1-1.9-1.6-4.3-1.6-7.2v-17.9h2.9v17.6c0,3.4.9,6.1,2.6,7.9,1.8,1.8,4.2,2.7,7.4,2.7s4.3-.5,6-1.5,3-2.4,3.9-4.1c.9-1.8,1.3-3.9,1.3-6.3v-16.3h2.9v30.6h-2.8v-8.5l.4,1c-.9,2.4-2.4,4.3-4.5,5.7s-4.6,2.1-7.5,2.1h.2Z"/>
    <path class="cls-1" d="M196,180.4c-3,0-5.6-.7-7.9-2-2.3-1.3-4.2-3.2-5.5-5.5s-2-5-2-8,.7-5.7,2-8.1c1.3-2.3,3.2-4.2,5.5-5.5s5-2,7.9-2,4.7.5,6.7,1.4,3.6,2.3,4.9,4.2l-2.2,1.6c-1.1-1.6-2.5-2.7-4.1-3.5-1.6-.7-3.4-1.1-5.3-1.1s-4.5.5-6.4,1.6-3.4,2.6-4.5,4.5-1.6,4.2-1.6,6.8.5,4.8,1.6,6.8c1.1,1.9,2.6,3.4,4.5,4.5s4,1.6,6.4,1.6,3.7-.4,5.3-1.1c1.6-.7,3-1.9,4.1-3.5l2.2,1.6c-1.2,1.9-2.9,3.3-4.9,4.2s-4.2,1.4-6.7,1.4h0Z"/>
    <path class="cls-1" d="M211.4,152.1v-2.5h18.3v2.5h-18.3ZM225.3,180.4c-2.7,0-4.8-.7-6.2-2.2s-2.1-3.5-2.1-6.1v-29.2h2.9v28.9c0,2,.5,3.5,1.5,4.5,1,1.1,2.4,1.6,4.2,1.6s3.5-.6,4.7-1.7l1.2,2.1c-.8.7-1.7,1.3-2.8,1.6-1.1.4-2.3.5-3.4.5h0Z"/>
    <path class="cls-1" d="M241.2,142.2c-.7,0-1.2-.2-1.7-.7s-.7-1-.7-1.6.2-1.2.7-1.7,1-.7,1.7-.7,1.3.2,1.7.7c.4.4.7,1,.7,1.7s-.2,1.2-.7,1.7c-.4.5-1,.7-1.7.7h0ZM239.7,180.2v-30.6h2.9v30.6h-2.9Z"/>
    <path class="cls-1" d="M262.7,180.2l-13.8-30.6h3.1l12.9,28.9h-1.4l13-28.9h3l-13.8,30.6h-3Z"/>
    <path class="cls-1" d="M287.4,142.2c-.7,0-1.2-.2-1.7-.7s-.7-1-.7-1.6.2-1.2.7-1.7,1-.7,1.7-.7,1.3.2,1.7.7c.4.4.7,1,.7,1.7s-.2,1.2-.7,1.7c-.4.5-1,.7-1.7.7h0ZM285.9,180.2v-30.6h2.9v30.6h-2.9Z"/>
    <path class="cls-1" d="M296.2,152.1v-2.5h18.3v2.5h-18.3ZM310.1,180.4c-2.7,0-4.8-.7-6.2-2.2-1.4-1.5-2.1-3.5-2.1-6.1v-29.2h2.9v28.9c0,2,.5,3.5,1.5,4.5,1,1.1,2.4,1.6,4.2,1.6s3.5-.6,4.7-1.7l1.2,2.1c-.8.7-1.7,1.3-2.8,1.6-1.1.4-2.3.5-3.4.5h0Z"/>
    <path class="cls-1" d="M323.8,191.8c-1.4,0-2.7-.2-4-.7-1.2-.5-2.3-1.2-3.1-2.1l1.5-2.2c.8.8,1.6,1.4,2.5,1.8.9.4,2,.6,3.1.6s2.6-.4,3.7-1.2,2.1-2.2,3-4.3l2.1-4.7.4-.5,12.9-28.9h3l-15.7,34.7c-.8,1.9-1.7,3.3-2.7,4.4-1,1.1-2,1.8-3.1,2.3s-2.4.7-3.7.7h.1ZM332.7,181l-14.2-31.3h3.1l12.9,28.8-1.8,2.6h0Z"/>
    <path class="cls-1" d="M370.5,180.2v-43.5h2.9v22.8l-.6,5.3.5,5.3v10h-2.8ZM385.9,180.4c-2.7,0-5.1-.6-7.3-1.9-2.2-1.2-3.9-3-5.2-5.4-1.3-2.3-1.9-5.1-1.9-8.3s.6-6,1.9-8.3,3-4.1,5.2-5.3,4.6-1.9,7.3-1.9,5.5.7,7.8,2,4.1,3.1,5.4,5.4c1.3,2.3,2,5,2,8.1s-.7,5.7-2,8.1c-1.3,2.3-3.1,4.2-5.4,5.5s-4.9,2-7.8,2h0ZM385.7,177.8c2.3,0,4.5-.5,6.3-1.6,1.9-1.1,3.3-2.6,4.4-4.5,1.1-2,1.6-4.2,1.6-6.7s-.5-4.8-1.6-6.8c-1.1-1.9-2.5-3.4-4.4-4.5s-4-1.6-6.3-1.6-4.4.5-6.3,1.6-3.3,2.6-4.4,4.5-1.6,4.2-1.6,6.8.5,4.8,1.6,6.7c1.1,2,2.5,3.5,4.4,4.5,1.9,1.1,4,1.6,6.3,1.6Z"/>
    <path class="cls-1" d="M422,180.4c-2.9,0-5.5-.7-7.8-2s-4.1-3.2-5.4-5.5-2-5-2-8,.7-5.7,2-8.1c1.3-2.3,3.2-4.1,5.4-5.5,2.3-1.3,4.9-2,7.8-2s5.5.7,7.8,2,4.1,3.2,5.4,5.5,2,5,2,8.1-.7,5.7-2,8-3.1,4.2-5.4,5.5-4.9,2-7.8,2ZM422,177.8c2.3,0,4.5-.5,6.3-1.6,1.9-1.1,3.3-2.6,4.4-4.5,1.1-2,1.6-4.2,1.6-6.7s-.5-4.8-1.6-6.8c-1.1-1.9-2.5-3.4-4.4-4.5s-4-1.6-6.3-1.6-4.4.5-6.3,1.6-3.3,2.6-4.4,4.5-1.6,4.2-1.6,6.8.5,4.8,1.6,6.7c1.1,2,2.5,3.5,4.4,4.5,1.9,1.1,4,1.6,6.3,1.6Z"/>
    <path class="cls-1" d="M454.6,180.4c-2.3,0-4.2-.4-5.9-1.1-1.7-.7-2.9-1.7-3.8-3.1-.9-1.3-1.3-2.9-1.3-4.6s.4-3,1.1-4.2c.7-1.3,1.9-2.3,3.6-3.1s3.9-1.2,6.7-1.2h11.2v2.3h-11.2c-3.2,0-5.4.6-6.6,1.8-1.3,1.2-1.9,2.6-1.9,4.4s.7,3.5,2.2,4.7,3.6,1.8,6.3,1.8,4.8-.6,6.5-1.8c1.8-1.2,3.1-2.9,4-5.1l.8,2c-.8,2.2-2.2,4-4.2,5.3s-4.5,2-7.5,2h0ZM465.6,180.2v-8c-.1,0-.1-11.5-.1-11.5,0-2.9-.8-5-2.3-6.5s-3.8-2.2-6.8-2.2-4.1.4-5.9,1.1c-1.8.7-3.4,1.7-4.7,2.8l-1.5-2.1c1.5-1.4,3.4-2.4,5.5-3.2s4.4-1.1,6.7-1.1c3.8,0,6.7,1,8.7,2.9s3,4.8,3,8.6v19.4h-2.8l.2-.2Z"/>
    <path class="cls-1" d="M480.5,180.2v-30.6h2.8v8.4l-.3-.9c.9-2.5,2.3-4.4,4.3-5.7s4.6-2,7.6-2v2.9h-.8c-3.4,0-6.1,1.1-8,3.2-1.9,2.1-2.9,5.1-2.9,8.9v15.9h-2.9.2Z"/>
    <path class="cls-1" d="M515.4,180.4c-2.9,0-5.4-.7-7.7-2-2.3-1.3-4.1-3.1-5.4-5.5-1.3-2.3-2-5-2-8.1s.7-5.8,2-8.1,3.1-4.1,5.4-5.4c2.3-1.3,4.9-2,7.7-2s5.1.6,7.3,1.9c2.2,1.3,3.9,3,5.2,5.3s1.9,5.1,1.9,8.3-.6,5.9-1.9,8.3c-1.3,2.3-3,4.1-5.1,5.4-2.2,1.2-4.6,1.9-7.4,1.9h0ZM515.6,177.8c2.3,0,4.4-.5,6.3-1.6,1.9-1.1,3.3-2.6,4.4-4.5,1.1-2,1.6-4.2,1.6-6.7s-.5-4.8-1.6-6.8c-1.1-1.9-2.5-3.4-4.4-4.5s-4-1.6-6.3-1.6-4.4.5-6.3,1.6-3.3,2.6-4.4,4.5-1.6,4.2-1.6,6.8.5,4.8,1.6,6.7c1.1,2,2.5,3.5,4.4,4.5,1.9,1.1,4,1.6,6.3,1.6ZM527.9,180.2v-10l.5-5.3-.6-5.3v-22.8h2.9v43.5h-2.9,0Z"/>
  </g>
</svg>