<?xml version="1.0" encoding="UTF-8"?>
<svg id="Layer_1" data-name="Layer 1" xmlns="http://www.w3.org/2000/svg" version="1.1" viewBox="0 0 257.4 295.7">
  <defs>
    <style>
      .cls-1 {
        fill: #31e3a4;
      }

      .cls-1, .cls-2 {
        stroke-width: 0px;
      }

      .cls-2 {
        fill: #00a5e0;
      }
    </style>
  </defs>
  <path class="cls-1" d="M139.6,199.7c6.8,11.5,9,24.4,10.1,37.4.9,9.4,1.5,18.7,1.8,28.1-.1,2.4,1.1,5.9,2.1,7.8-1.5-1.6-4.3-2.4-6.5-1.7-.7.3-.2.1.4-.2.6-.5,1.6-1.2,2.2-1.8,5.1-5.3,10.3-12.4,15.8-17.5,9.4-9.4,22.2-15.9,35.7-11.7,10.8,3.3,19,10.8,24.5,20.3,2,3.7,3.7,8.7,6.6,11,.6.4.5.5,1.1.5-.4.1-.9.3-1.3.6-.5.3-.4.4-.2.2,3.4-4,5.6-10.4,7.5-15.6,5.6-16.9,7.7-35.2,5.6-53-.7-6.3-1.2-12.6.3-19.1.2-.9,1.5-1.1,2-.3,3.6,5.6,5.5,11.6,6.8,17.9,2.9,12.6,3.9,26,2.9,39-1,12.1-5,38.9-15.9,45.8-7.9,4.7-18.2,1.4-23.9-4.9-3.8-4-5.8-7.6-8-11.7-2-3.2-5-6.1-8.1-8-5-3.1-9.5-3.6-14.3.2-6.1,4.4-11.7,12.6-16.5,18.6-4.8,6.1-11.4,12.6-19.5,13.6-13.7,1.5-20.7-11.1-23-22.7-1-5.3-.5-10.8-.4-16.2.8-15.8.7-31.9,6-47.1,1.1-3.1,2.4-6.3,4.3-9.4.3-.9,1.4-.9,1.9,0h0Z"/>
  <path class="cls-2" d="M122.9,292.3c-3.5-.1-6.5-2.3-8.9-4.7-6.3-6.7-7.9-15.7-10.2-24.2-2.6-11-4.4-22-5.9-32.9-.6-4.4-1.4-10.9-2.6-15.2-1.2-4.8-2.8-9.5-4.8-13.8-1.4-2.9-2.7-5.6-4.7-7.7-.4-.5-.8-.7-.6-.5.6.5,1.4.7,2.1.7s0,0,0,0h-.1c-1.8.4-2.9,1.2-4.8,2.7-2.7,2.3-5.5,5.9-8,9.8-6.4,10.2-10.9,21.7-13.4,33.6-1.8,7.9-3.7,16.4-5.9,24.3-1.7,6.1-3.3,11.5-6.1,17.6-1.8,3.5-3.5,7-7.6,10.2-6.7,5.4-16.8,4.3-23.3-1.3-8.1-7.2-10.7-17-13.2-26.8C-.3,241.6-.3,218.5.2,195.6c.6-43.8,3.2-87.1,8.9-130.6,1.5-11.6,2.3-23.8,2.9-35.9.9-9.7-2-20.3,4.3-28.6.5-.6,1.3-.7,1.9-.2,1.4,1.2,2.4,2.5,3.3,3.8,4.1,6,4.4,13.3,5.6,20.2,4.7,34.1,4.7,72.4,5.1,106.9,0,27.1-1,54.2-1.5,81.2-.2,9.1,0,18,.7,27.1.4,6,1.3,12.4,2.5,18.2.8,3.7,2,8.5,3.4,11.3.2.4.3.5-.2,0-3.6-3.2-10-2.4-13.3.3-1.2,1-1.3,1.3-1.4,1.4,1.2-1.7,2.3-4.5,3.3-7.2,2.7-7.2,4.9-14.6,7.2-22.2.8-2.7,2.7-9.2,3.4-11.9,2.1-7.2,5.3-14.5,8.7-21,7.6-13.9,18.1-30,34.4-34.9,4.7-1.3,10.1-1.5,14.6.7,12.3,6.3,16.6,25,18.9,37.3,1,5,1.1,12,1.5,17.2.6,10.8,1.4,21.4,3,31.8.8,5.2,1.8,10.3,3.2,15,1.3,5,1.5,9.9,3,14.9.7,1,.2,1.9-.7,1.9h0Z"/>
</svg>