<?xml version="1.0" encoding="utf-8"?>
<!-- Generator: Adobe Illustrator 28.3.0, SVG Export Plug-In . SVG Version: 6.00 Build 0)  -->
<svg version="1.1" id="Layer_1" xmlns="http://www.w3.org/2000/svg" xmlns:xlink="http://www.w3.org/1999/xlink" x="0px" y="0px"
	 viewBox="0 0 380 380" style="enable-background:new 0 0 380 380;" xml:space="preserve">
<style type="text/css">
	.st0{fill:#31E3A4;}
	.st1{fill:#00A5E0;}
</style>
<g>
	<path class="st0" d="M205.1,243.7c6.8,11.5,9,24.4,10.1,37.4c0.9,9.4,1.5,18.7,1.8,28.1c-0.1,2.4,1.1,5.9,2.1,7.8
		c-1.5-1.6-4.3-2.4-6.5-1.7c-0.7,0.3-0.2,0.1,0.4-0.2c0.6-0.5,1.6-1.2,2.2-1.8c5.1-5.3,10.3-12.4,15.8-17.5
		c9.4-9.4,22.2-15.9,35.7-11.7c10.8,3.3,19,10.8,24.5,20.3c2,3.7,3.7,8.7,6.6,11c0.6,0.4,0.5,0.5,1.1,0.5c-0.4,0.1-0.9,0.3-1.3,0.6
		c-0.5,0.3-0.4,0.4-0.2,0.2c3.4-4,5.6-10.4,7.5-15.6c5.6-16.9,7.7-35.2,5.6-53c-0.7-6.3-1.2-12.6,0.3-19.1c0.2-0.9,1.5-1.1,2-0.3
		c3.6,5.6,5.5,11.6,6.8,17.9c2.9,12.6,3.9,26,2.9,39c-1,12.1-5,38.9-15.9,45.8c-7.9,4.7-18.2,1.4-23.9-4.9c-3.8-4-5.8-7.6-8-11.7
		c-2-3.2-5-6.1-8.1-8c-5-3.1-9.5-3.6-14.3,0.2c-6.1,4.4-11.7,12.6-16.5,18.6c-4.8,6.1-11.4,12.6-19.5,13.6
		c-13.7,1.5-20.7-11.1-23-22.7c-1-5.3-0.5-10.8-0.4-16.2c0.8-15.8,0.7-31.9,6-47.1c1.1-3.1,2.4-6.3,4.3-9.4
		C203.5,242.9,204.6,242.9,205.1,243.7z"/>
	<path class="st1" d="M188.4,336.3c-3.5-0.1-6.5-2.3-8.9-4.7c-6.3-6.7-7.9-15.7-10.2-24.2c-2.6-11-4.4-22-5.9-32.9
		c-0.6-4.4-1.4-10.9-2.6-15.2c-1.2-4.8-2.8-9.5-4.8-13.8c-1.4-2.9-2.7-5.6-4.7-7.7c-0.4-0.5-0.8-0.7-0.6-0.5
		c0.6,0.5,1.4,0.7,2.1,0.7c0.1,0,0,0,0,0l-0.1,0c-1.8,0.4-2.9,1.2-4.8,2.7c-2.7,2.3-5.5,5.9-8,9.8c-6.4,10.2-10.9,21.7-13.4,33.6
		c-1.8,7.9-3.7,16.4-5.9,24.3c-1.7,6.1-3.3,11.5-6.1,17.6c-1.8,3.5-3.5,7-7.6,10.2c-6.7,5.4-16.8,4.3-23.3-1.3
		c-8.1-7.2-10.7-17-13.2-26.8c-5.2-22.5-5.2-45.6-4.7-68.5c0.6-43.8,3.2-87.1,8.9-130.6c1.5-11.6,2.3-23.8,2.9-35.9
		c0.9-9.7-2-20.3,4.3-28.6c0.5-0.6,1.3-0.7,1.9-0.2c1.4,1.2,2.4,2.5,3.3,3.8c4.1,6,4.4,13.3,5.6,20.2c4.7,34.1,4.7,72.4,5.1,106.9
		c0.1,27.1-1,54.2-1.5,81.2c-0.2,9.1,0.1,18,0.7,27.1c0.4,6,1.3,12.4,2.5,18.2c0.8,3.7,2,8.5,3.4,11.3c0.2,0.4,0.3,0.5-0.2,0
		c-3.6-3.2-10-2.4-13.3,0.3c-1.2,1-1.3,1.3-1.4,1.4c1.2-1.7,2.3-4.5,3.3-7.2c2.7-7.2,4.9-14.6,7.2-22.2c0.8-2.7,2.7-9.2,3.4-11.9
		c2.1-7.2,5.3-14.5,8.7-21c7.6-13.9,18.1-30,34.4-34.9c4.7-1.3,10.1-1.5,14.6,0.7c12.3,6.3,16.6,25,18.9,37.3c1,5,1.1,12,1.5,17.2
		c0.6,10.8,1.4,21.4,3,31.8c0.8,5.2,1.8,10.3,3.2,15c1.3,5,1.5,9.9,3,14.9C189.8,335.4,189.3,336.3,188.4,336.3z"/>
</g>
</svg>
