<?xml version="1.0" encoding="utf-8"?>
<!-- Generator: Adobe Illustrator 27.9.0, SVG Export Plug-In . SVG Version: 6.00 Build 0)  -->
<svg version="1.1" id="Capa_1" xmlns="http://www.w3.org/2000/svg" xmlns:xlink="http://www.w3.org/1999/xlink" x="0px" y="0px"
	 viewBox="0 0 512 512" style="enable-background:new 0 0 512 512;" xml:space="preserve">
<g>
	<path id="Path_2520" d="M436.3,436.3h-75.9V317.5c0-28.3-0.5-64.8-39.5-64.8c-39.5,0-45.6,30.9-45.6,62.8v120.9h-75.8V191.9h72.8
		v33.4h1c14.9-25.4,42.5-40.5,71.9-39.5c76.9,0,91.1,50.6,91.1,116.4L436.3,436.3z M113.9,158.5c-24.3,0-44-19.7-44-44
		s19.7-44,44-44s44,19.7,44,44C157.9,138.8,138.2,158.5,113.9,158.5L113.9,158.5 M151.8,436.3H75.9V191.9h75.9V436.3z M474.1,0H37.8
		C17.2-0.2,0.3,16.3,0,36.9v438.1c0.3,20.6,17.2,37.2,37.8,36.9h436.3c20.7,0.3,37.6-16.3,37.9-36.9V36.9
		C511.7,16.3,494.7-0.3,474.1,0"/>
</g>
</svg>
