<?xml version="1.0" encoding="utf-8"?>
<!-- Generator: Adobe Illustrator 27.9.0, SVG Export Plug-In . SVG Version: 6.00 Build 0)  -->
<svg version="1.1" id="Outline" xmlns="http://www.w3.org/2000/svg" xmlns:xlink="http://www.w3.org/1999/xlink" x="0px" y="0px"
	 viewBox="0 0 512 512" style="enable-background:new 0 0 512 512;" xml:space="preserve">
<path d="M398,19.8L137.9,279.9c-20.1,20-31.3,47.1-31.2,75.4V384c0,11.8,9.6,21.3,21.3,21.3h28.7c28.3,0.1,55.5-11.2,75.4-31.2
	L492.2,114c26-26,26-68.1,0-94.2C465.8-5.3,424.3-5.3,398,19.8z M462,83.8L201.9,343.9c-12,12-28.3,18.7-45.2,18.7h-7.3v-7.3
	c0-17,6.8-33.2,18.7-45.2L428.2,50c9.5-9,24.4-9,33.8,0C471.3,59.4,471.3,74.5,462,83.8z"/>
</svg>
