<?xml version="1.0" encoding="utf-8"?>
<!-- Generator: Adobe Illustrator 27.9.0, SVG Export Plug-In . SVG Version: 6.00 Build 0)  -->
<svg version="1.1" id="Layer_1" xmlns="http://www.w3.org/2000/svg" xmlns:xlink="http://www.w3.org/1999/xlink" x="0px" y="0px"
	 viewBox="0 0 512 512" style="enable-background:new 0 0 512 512;" xml:space="preserve">
<path d="M384,64H210.8c28.7,28,45.2,66.5,45.2,106.7V384c0,24.1-8.3,46.1-21.9,64H448c35.3,0,64-28.7,64-64V192
	C512,121.4,454.6,64,384,64z M448,256c-0.1,27.9-42.6,27.9-42.7,0v-21.3h-64c-27.9-0.1-27.9-42.6,0-42.7h85.3
	c11.8,0,21.3,9.6,21.3,21.3V256z"/>
<!-- <path d="M448,256c-0.1,27.9-42.6,27.9-42.7,0v-21.3h-64c-27.9-0.1-27.9-42.6,0-42.7h85.3c11.8,0,21.3,9.6,21.3,21.3V256z"/> -->
<path d="M96,64.5C40.6,69.9,0,119.7,0,175.4V384c0,35.3,28.7,64,64,64h85.3c35.3,0,64-28.7,64-64V170.7
	C213.3,108.3,159.6,58.3,96,64.5z M128,234.7H85.3c-27.9-0.1-27.9-42.5,0-42.7H128C155.9,192.1,155.9,234.5,128,234.7z"/>
<!-- <path d="M128,234.7H85.3c-27.9-0.1-27.9-42.5,0-42.7H128C155.9,192.1,155.9,234.5,128,234.7z"/> -->
</svg>
