<?xml version="1.0" encoding="UTF-8"?>
<svg id="Layer_1" data-name="Layer 1" xmlns="http://www.w3.org/2000/svg" xmlns:xlink="http://www.w3.org/1999/xlink" version="1.1" viewBox="0 0 1484 1195.93">
  <defs>
    <style>
      .cls-1, .cls-2, .cls-3, .cls-4 {
        stroke-width: 0px;
      }

      .cls-1, .cls-5 {
        fill: #f08b5f;
      }

      .cls-6 {
        filter: url(#drop-shadow-2);
      }

      .cls-7 {
        filter: url(#drop-shadow-1);
      }

      .cls-2 {
        fill: #4ba3df;
      }

      .cls-3 {
        fill: #f0f0f0;
      }

      .cls-5 {
        stroke-miterlimit: 10;
      }

      .cls-5, .cls-8, .cls-9 {
        stroke: #303143;
        stroke-width: 6px;
      }

      .cls-8 {
        fill: none;
      }

      .cls-8, .cls-9 {
        stroke-linecap: round;
        stroke-linejoin: round;
      }

      .cls-4 {
        fill: #303143;
      }

      .cls-9 {
        fill: #68e0a5;
      }
    </style>
    <filter id="drop-shadow-1" filterUnits="userSpaceOnUse">
      <feOffset dx="-5" dy="-5"/>
      <feGaussianBlur result="blur" stdDeviation="9"/>
      <feFlood flood-color="#fff" flood-opacity="1"/>
      <feComposite in2="blur" operator="in"/>
      <feComposite in="SourceGraphic"/>
    </filter>
    <filter id="drop-shadow-2" filterUnits="userSpaceOnUse">
      <feOffset dx="5" dy="5"/>
      <feGaussianBlur result="blur-2" stdDeviation="9"/>
      <feFlood flood-color="#ccc" flood-opacity="1"/>
      <feComposite in2="blur-2" operator="in"/>
      <feComposite in="SourceGraphic"/>
    </filter>
  </defs>
  <g class="cls-7">
    <path class="cls-5" d="M694.81,428.66s-32.46,81.14-36.28,90.38-42.01,61.16-36.28,73.4,45.63,64.46,127.85-10.35c82.22-74.81,96.93-136.84,96.93-136.84,0,0,92.93-41.09,225.3-121.3,132.37-80.21-101.57-117.11-101.57-117.11l-275.95,221.82Z"/>
    <path class="cls-5" d="M600.29,366.12s-46.69,39.94-53.01,48.37-122.96,82.29-124.01,90.71,30.56,85.79,110.64,46.58c80.08-39.21,76.92-46.58,95.89-55.01,18.97-8.43,82.19-49.52,106.42-62.17s140.14-43.2,258.15-113.8-311.89-32.66-311.89-32.66l-82.19,77.97Z"/>
    <path class="cls-9" d="M578.07,466.76c16.76-2.4,70.2,1.3,87.18,14.05,0,0-53.4-42.85-84.62-44.5"/>
    <circle class="cls-5" cx="679.76" cy="927.88" r="14.88"/>
    <path class="cls-9" d="M709.19,684.74c8.73-3.56,43.05-3.9,56.13,1.95,0,0-43.58-19.92-61.55-17.1"/>
    <circle class="cls-5" cx="352.28" cy="636.17" r="17.43"/>
    <path class="cls-9" d="M699.7,894.93c-24.14-2.18-71.78,25.81-71.78,25.81,15.01-8.21,58.09-10.4,70.53-6.63"/>
    <path class="cls-9" d="M1079.27,600.51c-14.01-5.33-59.11-13.59-73.89-7.3,0,0,47.56-15.68,73.89-10.46"/>
    <path class="cls-9" d="M669.72,581.96c-.08-5.9,15.03-25.44,21.97-32.38s31.22-21.97,40.47-13.88,2.48,31.65,2.48,38.54,0,18.05-7.22,34.79-10.5,42.34-10.5,55.47-2.3,74.51-3.28,89.28c-.98,14.77-2.63,59.08-4.6,71.89s-.66,62.04-.66,66.31-3.61,21.01-3.61,21.01h-15.1s1.97-3.28,2.95-25.27-1.97-81.41-.66-100.12-1.97-117.51-3.28-129.99-7.88-32.82-8.21-38.08-8.53-23.96-8.86-26.26-1.83-5.92-1.9-11.33Z"/>
    <path class="cls-5" d="M837.42,206.84s-280.93,68.16-325.81,84.69-133.28,54.07-258.64,79.13c-22.13,4.42-28.34,22.71-23.62,43.83,4.72,21.12,18,99.01,127.55,70.72,214.94-55.51,257.32-91.39,296.43-106.29,24.8-9.45,85.95,2.36,336.59-69.68,250.64-72.04-152.5-102.41-152.5-102.41Z"/>
    <path class="cls-9" d="M335.35,825.33c13.18-10.63,60.99-34.78,82.1-32.5,0,0-67.8-9.51-95.47,5.03"/>
    <path class="cls-9" d="M326.41,642.89c9.14-8.54,64.08-38.59,69.01-31.91-7.27-7.09-45.31.81-67.83,19.99"/>
    <path class="cls-9" d="M571.25,391.46c-14.79-6.44-97.63-4.76-102.42,13.14,7.83-21.17,61.53-46.76,97.44-34.46"/>
    <path class="cls-9" d="M305.92,724.12c-5.51-11.28-34.73-43.95-55.91-50.94,0,0,69.42,21.19,85.96,40.41"/>
    <path class="cls-9" d="M570.5,685.34c-31.04-3.7-90.97,29.41-90.97,29.41,18.91-9.67,72.19-4.19,88.3,1.03"/>
    <path class="cls-9" d="M555.18,676.69c23.77-8.86,94.79,6.07,94.79,6.07-21.92-4.09-63.28,10.42-73.55,17.64"/>
    <path class="cls-9" d="M321.78,446.51c7.96,1.06,18.48-6.6,22.45-6.6s30.37,0,31.03,11.88-30.37,49.51-29.71,148.53-7.26,50.83-5.28,89.78,3.96,53.47,3.96,81.86-7.26,61.39-6.6,73.28,3.96,31.69.66,37.63-13.2,12.54-13.2,12.54l-6.6-5.94s.66-73.94,0-89.12-.66-72.62,0-90.44c.66-17.82,1.65-89.78-.5-109.59-2.15-19.8,2.15-59.41,0-71.96-2.15-12.54-5.45-32.35-8.75-38.29s-19.14-16.5-17.82-25.09,6.6-17.82,13.2-18.48,7.26-1.32,17.16,0Z"/>
    <path class="cls-9" d="M767.07,307.26c16.88-6.53,54.68-17.5,60.15-12.03s6.56,48.12,12.03,69.99,18.59,85.3,32.81,114.83c14.22,29.53,42.65,112.64,49.21,126.86s24.06,80.93,25.15,92.96-8.75,38.28-8.75,38.28c0,0-9.84-50.31-18.59-80.93s-21.87-74.37-37.18-107.17-31.71-62.34-40.46-82.02c-8.75-19.68-29.53-56.87-43.74-72.18s-17.5-40.46-30.62-51.4-28.43-19.68-22.97-26.25c5.47-6.56,9.74-5.82,22.97-10.94Z"/>
    <circle class="cls-5" cx="985.11" cy="681.22" r="17.43"/>
    <path class="cls-9" d="M1010.47,668.81c-17.42-1.39-70.81,12.78-85.57,25.02,0,0,45.92-40.93,77.2-43.84"/>
    <g id="tybalt">
      <g id="backFoot">
        <polygon class="cls-2" points="1042.32 830.79 1044.46 865.52 1081.92 863.79 1079.59 839.42 1077.68 828.53 1075.72 819.99 1062.12 824.56 1042.32 830.79"/>
        <path class="cls-8" d="M1081.92,863.79c-8.55,1.83-30.65,3.6-37.46,1.73.91-15.44-2.14-34.73-2.14-34.73"/>
      </g>
      <g id="torso">
        <polygon class="cls-2" points="936.98 828.53 962.7 835.78 1000.06 836.53 1032.46 832.53 1059.78 825.43 1089.14 813.04 1110.78 788.3 1130.13 755.26 1112.42 720.63 1093.06 703.67 1062.12 693.37 1027.36 692.14 995.05 697.11 967.92 702.35 953.52 705.39 936.98 724.62 926.58 778.04 929.58 809.04 936.98 828.53"/>
        <path class="cls-8" d="M962.7,835.78c28.62,4.02,82.62-1.38,109.62-15.78"/>
      </g>
      <path class="cls-9" d="M926.58,712.83c41.34-10.48,92.03,120.64,37.38,122.85,0,0,8.55.85,23.87.85,40.52,0,7.21-139.42-37.67-130.58-60.12,11.84-23.58,6.88-23.58,6.88Z"/>
      <g id="farFrontLeg">
        <polygon class="cls-2" points="866.51 712.84 864.91 810.52 866.51 869.88 906.61 869.88 934.01 848.56 953.52 788.3 953.52 737.79 953.03 692.14 951.85 662.03 947.43 616.59 936.98 576.68 924.4 558.49 906.12 551.79 882.36 557.2 862.3 578.05 854.52 597.5 851.89 634.21 864.91 697.81 866.51 712.84"/>
        <path class="cls-1" d="M866.24,732.09c3.31,7.9,5.92,13.81,10.48,15.29,4.57,1.48,15.43-5.31,14.67-9.59-.59-3.31,3.45-12.11,11.32-17.05s-.46-11.34-6.78-12.33-9.46-15.78-20.99-21.7c-4.1-2.11-8.32-1.77-12.24.29l2.21,10.81,1.6,15.03-.31,19.2.04.05Z"/>
        <path class="cls-8" d="M906.61,869.88c-6.72,3.09-32.88,1.71-40.09,0-3.61-58.11,0-157.05,0-157.05"/>
      </g>
      <g id="closeBackLeg">
        <polygon class="cls-2" points="1059.58 779.04 1069.34 799.99 1076.85 824.69 1081.92 848.56 1081.92 871.72 1081.32 884.19 1112.77 883.04 1138.92 875.79 1141.76 871.72 1141.76 837.07 1136.07 779.04 1126.08 744.28 1117.22 727.29 1100.67 708.89 1085.7 699.88 1057.58 730.04 1055.58 759.04 1059.58 779.04"/>
        <path class="cls-8" d="M953.52,705.39c113.2-24.21,194.71-37.75,187.84,169.28-1.38.63-2.44,1.12-2.44,1.12-6.72,3.09-50.39,10.11-57.6,8.4,3.89-60.37-18-97.2-18-97.2"/>
      </g>
      <g id="Head">
        <path class="cls-8" d="M852.1,634.17s-6.58-82.38,54.02-82.38c41.4,0,47.4,79.2,47.4,186"/>
        <g>
          <circle class="cls-4" cx="866.52" cy="618.39" r="12"/>
          <circle class="cls-3" cx="871.92" cy="614.19" r="2.4"/>
        </g>
        <polygon class="cls-2" points="883.92 712.84 851.89 712.13 833.36 709.28 808.85 698.62 798.75 683.06 798.11 671.92 803.43 659.41 813.04 649.57 832.79 639.44 852.1 634.17 878.52 630.99 890.58 656.04 895.92 692.14 883.92 712.84"/>
        <path class="cls-1" d="M898.56,739.1c4.11-.46,10.64,6.31,10.02,9.62s-8.2,7.82-12.57,7.33-4.85-16.12,2.55-16.94Z"/>
        <path class="cls-1" d="M889.69,702.89c-3.51-5.11-7.45-12.42-14.75-16.18-11.52-5.92-23.99,7.4-27.92,24.12l.57.63,4.3.66,32.03.71,5.77-9.95Z"/>
        <path class="cls-1" d="M892.58,706.51c-3.51-5.11-10.34-16.04-17.64-19.79-11.52-5.92-23.99,7.4-27.92,24.12l.57.63,4.3.66"/>
        <path class="cls-8" d="M876.72,630.99s-77.4,3-78.6,45,78.6,36.62,78.6,36.62"/>
        <g>
          <circle class="cls-4" cx="895.92" cy="621.39" r="12"/>
          <circle class="cls-3" cx="900.72" cy="616.59" r="2.4"/>
        </g>
      </g>
      <g id="closeFrontLeg">
        <polygon class="cls-2" points="906.87 792.28 906.61 823.93 906.03 856.7 906.87 877.05 907.92 896.05 957.47 894.09 958.44 855.69 963.62 813.22 970.75 792.28 962.7 768.81 938.39 764.84 915.58 768.04 907.32 782.79 906.87 792.28"/>
        <path class="cls-8" d="M967.92,797.79c-10.8,30-10.2,79.2-10.45,96.3-6.77,3.11-42.88,2-49.71.26-3.62-58.17-.44-111.56-.44-111.56"/>
      </g>
    </g>
    <path class="cls-9" d="M1006.49,695.38c16.99-3.95,95.88,124.65,38.16,135.45,0,0-.01,1.34,31.07-10.85,31.08-12.19-13.16-128.44-47.37-127.25-34.2,1.19-21.87,2.64-21.87,2.64Z"/>
    <path class="cls-9" d="M1257,523.79c-26.25,33.9-73.27,92.96-91.86,111.55-18.59,18.59-82.02,88.58-84.21,92.96s-20.78,19.68-20.78,19.68l1.97,21.98s53.81-64.63,122.7-124.23,72.18-121.94,72.18-121.94Z"/>
    <circle class="cls-5" cx="581.59" cy="702.21" r="20.99"/>
    <circle class="cls-5" cx="546" cy="687.15" r="20.99"/>
    <path class="cls-9" d="M1071.09,340.07c3.28,35,12.03,115.92,10.94,144.36s-8.75,98.42-10.94,119.2-10.94,69.99-12.03,92.96-7.66,54.68-7.66,54.68l11.17,31.52s14.17-102.61,19.55-150.73c5.37-48.12,21.78-150.92,30.53-179.35,8.75-28.43,29.53-66.71,29.53-66.71l-5.47-76.55-65.62,30.62Z"/>
    <path class="cls-9" d="M1044.84,326.94c0,37.18-1.09,141.08-5.47,169.51-4.37,28.43-31.71,120.3-39.37,137.79-7.66,17.5-32.81,83.11-35,89.68s7.89,25.59,15.55,5.9,31.48-62.77,39.13-86.83c7.66-24.06,31.71-100.61,36.09-117.02s17.5-49.21,26.25-62.34c8.75-13.12,48.12-53.59,69.99-71.08,21.87-17.5-29.53-118.11-29.53-118.11l-77.65,52.49Z"/>
    <path class="cls-9" d="M1127.3,694.25c21.09,16.81,26.43,62.37,16.63,75.71,8.99-10.17-19.09-59.02-28.6-65.38"/>
    <path class="cls-5" d="M1492.09,64.53s-361.54,42.55-408.94,39.5c-47.41-3.05-301.99-18.73-368.71-19.67-66.72-.94-158.51,16.77-210.84,12.01-33.46-3.04-133.05-7.25-206.98-10.89-41.69-2.05-74.91-10.99-84.14-5.29-26.12,16.13-27.43,89.66,21.88,120.82,78.08,49.34,176,30.44,207.4,35.2,31.4,4.76,216.8,15.71,266.78,21.03s429.8,35.94,467.95,327.57c10.44,79.78-132.94,289.81-142.51,395.1-9.57,105.29,105.07,144.74,144.43,128.16,0,0,111.66-435.31,313.68-550.27s0-493.28,0-493.28Z"/>
    <path class="cls-9" d="M533.28,183.05c19.53,2.2,13.88,4.63,26.59,4.63s20.81-2.31,28.91-2.31,31.22,5.78,39.31,12.72,18.5,12.72,18.5,19.66-50.88,106.38-50.88,136.44-4.63,64.75-5.78,92.5c-1.16,27.75-12.72,65.91-12.72,84.41s1.7,75.99,2.49,102.67-3.28,56.24-3.28,66.65-9.62,80.43-9.62,97.78-4.63,42.78-6.94,49.72-10.41-4.63-10.41-4.63c0,0,3.47-27.75,4.63-63.6,1.16-35.84,12.72-95.97,8.09-128.35-4.63-32.38-4.63-106.38-6.94-126.03s-10.41-89.81-8.09-110.81-4.63-73.04-13.88-96.16-39.31-82.1-37-97.13,22.93-39.75,37-38.16Z"/>
    <g>
      <circle class="cls-5" cx="554.82" cy="740.62" r="17.43"/>
      <circle class="cls-5" cx="581.59" cy="723.19" r="17.43"/>
      <circle class="cls-5" cx="343.62" cy="884.19" r="17.43"/>
      <path class="cls-9" d="M326.19,865.52c17.57,15.21,68.96,30.96,82.82,36.1,0,0-44.58-51.97-74.95-59.36"/>
      <circle class="cls-5" cx="308.76" cy="865.52" r="17.43"/>
      <circle class="cls-5" cx="679.76" cy="848.09" r="17.43"/>
      <circle class="cls-5" cx="703.37" cy="913.48" r="17.43"/>
      <circle class="cls-5" cx="1006.1" cy="681.22" r="20.99"/>
      <circle class="cls-5" cx="348.73" cy="820" r="20.99"/>
      <circle class="cls-5" cx="308.54" cy="733.81" r="20.99"/>
      <circle class="cls-5" cx="895.92" cy="506.48" r="20.99"/>
      <circle class="cls-5" cx="1086.27" cy="657.15" r="20.99"/>
      <circle class="cls-5" cx="546" cy="836.53" r="14.88"/>
      <circle class="cls-5" cx="318.55" cy="895.42" r="17.43"/>
      <path class="cls-9" d="M558.88,827.97c-12.18.32-49.45,9.06-59.7,19.72,0,0,31.84-35.39,53.68-40.15"/>
      <circle class="cls-5" cx="540.42" cy="807.55" r="20.99"/>
      <path class="cls-9" d="M572.25,692.24c37.47-.48,82.93,33.14,90.02,50.31-24.52-15.35-79.13-23.47-98.1-33.71"/>
      <path class="cls-9" d="M561.4,720.94c-17.42-1.39-66.93,12.86-81.7,25.1,0,0,45.92-40.93,77.2-43.84"/>
      <circle class="cls-5" cx="564.16" cy="849.52" r="17.43"/>
      <circle class="cls-5" cx="574.56" cy="821.65" r="20.99"/>
      <circle class="cls-5" cx="543.18" cy="710.83" r="20.99"/>
    </g>
    <path class="cls-9" d="M581.59,340.8c20.25-3.75,83.5-4.1,102.27,7.63,0,0-58.72-39.71-95.72-38.98"/>
    <path class="cls-9" d="M329.52,859.15c-18.98,10.24-73.59,18.36-98.1,33.71,7.09-17.16,51.73-52.68,89.2-52.21"/>
    <path class="cls-9" d="M326.34,542.02c-17.42-1.39-70.81,12.78-85.57,25.02,0,0,45.92-40.93,77.2-43.84"/>
    <path class="cls-9" d="M342.27,538.64c-14.74,9.43-54.05,46.45-58.72,65.3,0,0,12.83-60.95,36.15-82.26"/>
    <path class="cls-9" d="M343.97,506.57c13.18-1.09,79.68,15.38,84.53,26.66-.48-18.51-43.91-41.94-75.04-41.89"/>
    <path class="cls-9" d="M333.14,719.41c-15.6-4.09-97.2,10.3-99.18,28.72,4.49-22.12,53.61-55.66,90.98-49.03"/>
    <path class="cls-9" d="M560.19,796.12c12.17,2.27,50.79,26.97,61.47,43.3,0,0-35.28-54.9-57.28-64.78"/>
    <path class="cls-9" d="M695.54,656.05c-14.01-5.33-59.11-13.59-73.89-7.3,0,0,46.58-21.88,72.91-16.66"/>
    <path class="cls-9" d="M702.84,877.99c26.59-4.5,61.93,20.46,65.33,36.67-1.58-13.48-59.91-24.75-70.99-21.9"/>
    <path class="cls-9" d="M701.38,839.54c-17.42-1.39-70.81,12.78-85.57,25.02,0,0,47.35-41.67,78.64-44.57"/>
    <path class="cls-9" d="M867.97,478.54c24.49-10.97,74.79-.06,74.79-.06-15.81-2.83-57.92,15.31-70.38,23.63"/>
    <path class="cls-9" d="M1017.21,644.2c27,16.06,51.85,74.04,51.85,74.04-8.07-17.39-50.19-53.13-66.52-59.36"/>
    <path class="cls-9" d="M1077.42,627.85c22.71-.29,49.77,21.24,54.07,31.64-14.86-9.31-47.96-14.22-59.47-20.43"/>
  </g>
  <g class="cls-6">
    <path class="cls-5" d="M694.81,428.66s-32.46,81.14-36.28,90.38-42.01,61.16-36.28,73.4,45.63,64.46,127.85-10.35c82.22-74.81,96.93-136.84,96.93-136.84,0,0,92.93-41.09,225.3-121.3,132.37-80.21-101.57-117.11-101.57-117.11l-275.95,221.82Z"/>
    <path class="cls-5" d="M600.29,366.12s-46.69,39.94-53.01,48.37-122.96,82.29-124.01,90.71,30.56,85.79,110.64,46.58c80.08-39.21,76.92-46.58,95.89-55.01,18.97-8.43,82.19-49.52,106.42-62.17s140.14-43.2,258.15-113.8-311.89-32.66-311.89-32.66l-82.19,77.97Z"/>
    <path class="cls-9" d="M578.07,466.76c16.76-2.4,70.2,1.3,87.18,14.05,0,0-53.4-42.85-84.62-44.5"/>
    <circle class="cls-5" cx="679.76" cy="927.88" r="14.88"/>
    <path class="cls-9" d="M709.19,684.74c8.73-3.56,43.05-3.9,56.13,1.95,0,0-43.58-19.92-61.55-17.1"/>
    <circle class="cls-5" cx="352.28" cy="636.17" r="17.43"/>
    <path class="cls-9" d="M699.7,894.93c-24.14-2.18-71.78,25.81-71.78,25.81,15.01-8.21,58.09-10.4,70.53-6.63"/>
    <path class="cls-9" d="M1079.27,600.51c-14.01-5.33-59.11-13.59-73.89-7.3,0,0,47.56-15.68,73.89-10.46"/>
    <path class="cls-9" d="M669.72,581.96c-.08-5.9,15.03-25.44,21.97-32.38s31.22-21.97,40.47-13.88,2.48,31.65,2.48,38.54,0,18.05-7.22,34.79-10.5,42.34-10.5,55.47-2.3,74.51-3.28,89.28c-.98,14.77-2.63,59.08-4.6,71.89s-.66,62.04-.66,66.31-3.61,21.01-3.61,21.01h-15.1s1.97-3.28,2.95-25.27-1.97-81.41-.66-100.12-1.97-117.51-3.28-129.99-7.88-32.82-8.21-38.08-8.53-23.96-8.86-26.26-1.83-5.92-1.9-11.33Z"/>
    <path class="cls-5" d="M837.42,206.84s-280.93,68.16-325.81,84.69-133.28,54.07-258.64,79.13c-22.13,4.42-28.34,22.71-23.62,43.83,4.72,21.12,18,99.01,127.55,70.72,214.94-55.51,257.32-91.39,296.43-106.29,24.8-9.45,85.95,2.36,336.59-69.68,250.64-72.04-152.5-102.41-152.5-102.41Z"/>
    <path class="cls-9" d="M335.35,825.33c13.18-10.63,60.99-34.78,82.1-32.5,0,0-67.8-9.51-95.47,5.03"/>
    <path class="cls-9" d="M326.41,642.89c9.14-8.54,64.08-38.59,69.01-31.91-7.27-7.09-45.31.81-67.83,19.99"/>
    <path class="cls-9" d="M571.25,391.46c-14.79-6.44-97.63-4.76-102.42,13.14,7.83-21.17,61.53-46.76,97.44-34.46"/>
    <path class="cls-9" d="M305.92,724.12c-5.51-11.28-34.73-43.95-55.91-50.94,0,0,69.42,21.19,85.96,40.41"/>
    <path class="cls-9" d="M570.5,685.34c-31.04-3.7-90.97,29.41-90.97,29.41,18.91-9.67,72.19-4.19,88.3,1.03"/>
    <path class="cls-9" d="M555.18,676.69c23.77-8.86,94.79,6.07,94.79,6.07-21.92-4.09-63.28,10.42-73.55,17.64"/>
    <path class="cls-9" d="M321.78,446.51c7.96,1.06,18.48-6.6,22.45-6.6s30.37,0,31.03,11.88-30.37,49.51-29.71,148.53-7.26,50.83-5.28,89.78,3.96,53.47,3.96,81.86-7.26,61.39-6.6,73.28,3.96,31.69.66,37.63-13.2,12.54-13.2,12.54l-6.6-5.94s.66-73.94,0-89.12-.66-72.62,0-90.44c.66-17.82,1.65-89.78-.5-109.59-2.15-19.8,2.15-59.41,0-71.96-2.15-12.54-5.45-32.35-8.75-38.29s-19.14-16.5-17.82-25.09,6.6-17.82,13.2-18.48,7.26-1.32,17.16,0Z"/>
    <path class="cls-9" d="M767.07,307.26c16.88-6.53,54.68-17.5,60.15-12.03s6.56,48.12,12.03,69.99,18.59,85.3,32.81,114.83c14.22,29.53,42.65,112.64,49.21,126.86s24.06,80.93,25.15,92.96-8.75,38.28-8.75,38.28c0,0-9.84-50.31-18.59-80.93s-21.87-74.37-37.18-107.17-31.71-62.34-40.46-82.02c-8.75-19.68-29.53-56.87-43.74-72.18s-17.5-40.46-30.62-51.4-28.43-19.68-22.97-26.25c5.47-6.56,9.74-5.82,22.97-10.94Z"/>
    <circle class="cls-5" cx="985.11" cy="681.22" r="17.43"/>
    <path class="cls-9" d="M1010.47,668.81c-17.42-1.39-70.81,12.78-85.57,25.02,0,0,45.92-40.93,77.2-43.84"/>
    <g id="tybalt-2" data-name="tybalt">
      <g id="backFoot-2" data-name="backFoot">
        <polygon class="cls-2" points="1042.32 830.79 1044.46 865.52 1081.92 863.79 1079.59 839.42 1077.68 828.53 1075.72 819.99 1062.12 824.56 1042.32 830.79"/>
        <path class="cls-8" d="M1081.92,863.79c-8.55,1.83-30.65,3.6-37.46,1.73.91-15.44-2.14-34.73-2.14-34.73"/>
      </g>
      <g id="torso-2" data-name="torso">
        <polygon class="cls-2" points="936.98 828.53 962.7 835.78 1000.06 836.53 1032.46 832.53 1059.78 825.43 1089.14 813.04 1110.78 788.3 1130.13 755.26 1112.42 720.63 1093.06 703.67 1062.12 693.37 1027.36 692.14 995.05 697.11 967.92 702.35 953.52 705.39 936.98 724.62 926.58 778.04 929.58 809.04 936.98 828.53"/>
        <path class="cls-8" d="M962.7,835.78c28.62,4.02,82.62-1.38,109.62-15.78"/>
      </g>
      <path class="cls-9" d="M926.58,712.83c41.34-10.48,92.03,120.64,37.38,122.85,0,0,8.55.85,23.87.85,40.52,0,7.21-139.42-37.67-130.58-60.12,11.84-23.58,6.88-23.58,6.88Z"/>
      <g id="farFrontLeg-2" data-name="farFrontLeg">
        <polygon class="cls-2" points="866.51 712.84 864.91 810.52 866.51 869.88 906.61 869.88 934.01 848.56 953.52 788.3 953.52 737.79 953.03 692.14 951.85 662.03 947.43 616.59 936.98 576.68 924.4 558.49 906.12 551.79 882.36 557.2 862.3 578.05 854.52 597.5 851.89 634.21 864.91 697.81 866.51 712.84"/>
        <path class="cls-1" d="M866.24,732.09c3.31,7.9,5.92,13.81,10.48,15.29,4.57,1.48,15.43-5.31,14.67-9.59-.59-3.31,3.45-12.11,11.32-17.05s-.46-11.34-6.78-12.33-9.46-15.78-20.99-21.7c-4.1-2.11-8.32-1.77-12.24.29l2.21,10.81,1.6,15.03-.31,19.2.04.05Z"/>
        <path class="cls-8" d="M906.61,869.88c-6.72,3.09-32.88,1.71-40.09,0-3.61-58.11,0-157.05,0-157.05"/>
      </g>
      <g id="closeBackLeg-2" data-name="closeBackLeg">
        <polygon class="cls-2" points="1059.58 779.04 1069.34 799.99 1076.85 824.69 1081.92 848.56 1081.92 871.72 1081.32 884.19 1112.77 883.04 1138.92 875.79 1141.76 871.72 1141.76 837.07 1136.07 779.04 1126.08 744.28 1117.22 727.29 1100.67 708.89 1085.7 699.88 1057.58 730.04 1055.58 759.04 1059.58 779.04"/>
        <path class="cls-8" d="M953.52,705.39c113.2-24.21,194.71-37.75,187.84,169.28-1.38.63-2.44,1.12-2.44,1.12-6.72,3.09-50.39,10.11-57.6,8.4,3.89-60.37-18-97.2-18-97.2"/>
      </g>
      <g id="Head-2" data-name="Head">
        <path class="cls-8" d="M852.1,634.17s-6.58-82.38,54.02-82.38c41.4,0,47.4,79.2,47.4,186"/>
        <g>
          <circle class="cls-4" cx="866.52" cy="618.39" r="12"/>
          <circle class="cls-3" cx="871.92" cy="614.19" r="2.4"/>
        </g>
        <polygon class="cls-2" points="883.92 712.84 851.89 712.13 833.36 709.28 808.85 698.62 798.75 683.06 798.11 671.92 803.43 659.41 813.04 649.57 832.79 639.44 852.1 634.17 878.52 630.99 890.58 656.04 895.92 692.14 883.92 712.84"/>
        <path class="cls-1" d="M898.56,739.1c4.11-.46,10.64,6.31,10.02,9.62s-8.2,7.82-12.57,7.33-4.85-16.12,2.55-16.94Z"/>
        <path class="cls-1" d="M889.69,702.89c-3.51-5.11-7.45-12.42-14.75-16.18-11.52-5.92-23.99,7.4-27.92,24.12l.57.63,4.3.66,32.03.71,5.77-9.95Z"/>
        <path class="cls-1" d="M892.58,706.51c-3.51-5.11-10.34-16.04-17.64-19.79-11.52-5.92-23.99,7.4-27.92,24.12l.57.63,4.3.66"/>
        <path class="cls-8" d="M876.72,630.99s-77.4,3-78.6,45,78.6,36.62,78.6,36.62"/>
        <g>
          <circle class="cls-4" cx="895.92" cy="621.39" r="12"/>
          <circle class="cls-3" cx="900.72" cy="616.59" r="2.4"/>
        </g>
      </g>
      <g id="closeFrontLeg-2" data-name="closeFrontLeg">
        <polygon class="cls-2" points="906.87 792.28 906.61 823.93 906.03 856.7 906.87 877.05 907.92 896.05 957.47 894.09 958.44 855.69 963.62 813.22 970.75 792.28 962.7 768.81 938.39 764.84 915.58 768.04 907.32 782.79 906.87 792.28"/>
        <path class="cls-8" d="M967.92,797.79c-10.8,30-10.2,79.2-10.45,96.3-6.77,3.11-42.88,2-49.71.26-3.62-58.17-.44-111.56-.44-111.56"/>
      </g>
    </g>
    <path class="cls-9" d="M1006.49,695.38c16.99-3.95,95.88,124.65,38.16,135.45,0,0-.01,1.34,31.07-10.85,31.08-12.19-13.16-128.44-47.37-127.25-34.2,1.19-21.87,2.64-21.87,2.64Z"/>
    <path class="cls-9" d="M1257,523.79c-26.25,33.9-73.27,92.96-91.86,111.55-18.59,18.59-82.02,88.58-84.21,92.96s-20.78,19.68-20.78,19.68l1.97,21.98s53.81-64.63,122.7-124.23,72.18-121.94,72.18-121.94Z"/>
    <circle class="cls-5" cx="581.59" cy="702.21" r="20.99"/>
    <circle class="cls-5" cx="546" cy="687.15" r="20.99"/>
    <path class="cls-9" d="M1071.09,340.07c3.28,35,12.03,115.92,10.94,144.36s-8.75,98.42-10.94,119.2-10.94,69.99-12.03,92.96-7.66,54.68-7.66,54.68l11.17,31.52s14.17-102.61,19.55-150.73c5.37-48.12,21.78-150.92,30.53-179.35,8.75-28.43,29.53-66.71,29.53-66.71l-5.47-76.55-65.62,30.62Z"/>
    <path class="cls-9" d="M1044.84,326.94c0,37.18-1.09,141.08-5.47,169.51-4.37,28.43-31.71,120.3-39.37,137.79-7.66,17.5-32.81,83.11-35,89.68s7.89,25.59,15.55,5.9,31.48-62.77,39.13-86.83c7.66-24.06,31.71-100.61,36.09-117.02s17.5-49.21,26.25-62.34c8.75-13.12,48.12-53.59,69.99-71.08,21.87-17.5-29.53-118.11-29.53-118.11l-77.65,52.49Z"/>
    <path class="cls-9" d="M1127.3,694.25c21.09,16.81,26.43,62.37,16.63,75.71,8.99-10.17-19.09-59.02-28.6-65.38"/>
    <path class="cls-5" d="M1492.09,64.53s-361.54,42.55-408.94,39.5c-47.41-3.05-301.99-18.73-368.71-19.67-66.72-.94-158.51,16.77-210.84,12.01-33.46-3.04-133.05-7.25-206.98-10.89-41.69-2.05-74.91-10.99-84.14-5.29-26.12,16.13-27.43,89.66,21.88,120.82,78.08,49.34,176,30.44,207.4,35.2,31.4,4.76,216.8,15.71,266.78,21.03s429.8,35.94,467.95,327.57c10.44,79.78-132.94,289.81-142.51,395.1-9.57,105.29,105.07,144.74,144.43,128.16,0,0,111.66-435.31,313.68-550.27s0-493.28,0-493.28Z"/>
    <path class="cls-9" d="M533.28,183.05c19.53,2.2,13.88,4.63,26.59,4.63s20.81-2.31,28.91-2.31,31.22,5.78,39.31,12.72,18.5,12.72,18.5,19.66-50.88,106.38-50.88,136.44-4.63,64.75-5.78,92.5c-1.16,27.75-12.72,65.91-12.72,84.41s1.7,75.99,2.49,102.67-3.28,56.24-3.28,66.65-9.62,80.43-9.62,97.78-4.63,42.78-6.94,49.72-10.41-4.63-10.41-4.63c0,0,3.47-27.75,4.63-63.6,1.16-35.84,12.72-95.97,8.09-128.35-4.63-32.38-4.63-106.38-6.94-126.03s-10.41-89.81-8.09-110.81-4.63-73.04-13.88-96.16-39.31-82.1-37-97.13,22.93-39.75,37-38.16Z"/>
    <g>
      <circle class="cls-5" cx="554.82" cy="740.62" r="17.43"/>
      <circle class="cls-5" cx="581.59" cy="723.19" r="17.43"/>
      <circle class="cls-5" cx="343.62" cy="884.19" r="17.43"/>
      <path class="cls-9" d="M326.19,865.52c17.57,15.21,68.96,30.96,82.82,36.1,0,0-44.58-51.97-74.95-59.36"/>
      <circle class="cls-5" cx="308.76" cy="865.52" r="17.43"/>
      <circle class="cls-5" cx="679.76" cy="848.09" r="17.43"/>
      <circle class="cls-5" cx="703.37" cy="913.48" r="17.43"/>
      <circle class="cls-5" cx="1006.1" cy="681.22" r="20.99"/>
      <circle class="cls-5" cx="348.73" cy="820" r="20.99"/>
      <circle class="cls-5" cx="308.54" cy="733.81" r="20.99"/>
      <circle class="cls-5" cx="895.92" cy="506.48" r="20.99"/>
      <circle class="cls-5" cx="1086.27" cy="657.15" r="20.99"/>
      <circle class="cls-5" cx="546" cy="836.53" r="14.88"/>
      <circle class="cls-5" cx="318.55" cy="895.42" r="17.43"/>
      <path class="cls-9" d="M558.88,827.97c-12.18.32-49.45,9.06-59.7,19.72,0,0,31.84-35.39,53.68-40.15"/>
      <circle class="cls-5" cx="540.42" cy="807.55" r="20.99"/>
      <path class="cls-9" d="M572.25,692.24c37.47-.48,82.93,33.14,90.02,50.31-24.52-15.35-79.13-23.47-98.1-33.71"/>
      <path class="cls-9" d="M561.4,720.94c-17.42-1.39-66.93,12.86-81.7,25.1,0,0,45.92-40.93,77.2-43.84"/>
      <circle class="cls-5" cx="564.16" cy="849.52" r="17.43"/>
      <circle class="cls-5" cx="574.56" cy="821.65" r="20.99"/>
      <circle class="cls-5" cx="543.18" cy="710.83" r="20.99"/>
    </g>
    <path class="cls-9" d="M581.59,340.8c20.25-3.75,83.5-4.1,102.27,7.63,0,0-58.72-39.71-95.72-38.98"/>
    <path class="cls-9" d="M329.52,859.15c-18.98,10.24-73.59,18.36-98.1,33.71,7.09-17.16,51.73-52.68,89.2-52.21"/>
    <path class="cls-9" d="M326.34,542.02c-17.42-1.39-70.81,12.78-85.57,25.02,0,0,45.92-40.93,77.2-43.84"/>
    <path class="cls-9" d="M342.27,538.64c-14.74,9.43-54.05,46.45-58.72,65.3,0,0,12.83-60.95,36.15-82.26"/>
    <path class="cls-9" d="M343.97,506.57c13.18-1.09,79.68,15.38,84.53,26.66-.48-18.51-43.91-41.94-75.04-41.89"/>
    <path class="cls-9" d="M333.14,719.41c-15.6-4.09-97.2,10.3-99.18,28.72,4.49-22.12,53.61-55.66,90.98-49.03"/>
    <path class="cls-9" d="M560.19,796.12c12.17,2.27,50.79,26.97,61.47,43.3,0,0-35.28-54.9-57.28-64.78"/>
    <path class="cls-9" d="M695.54,656.05c-14.01-5.33-59.11-13.59-73.89-7.3,0,0,46.58-21.88,72.91-16.66"/>
    <path class="cls-9" d="M702.84,877.99c26.59-4.5,61.93,20.46,65.33,36.67-1.58-13.48-59.91-24.75-70.99-21.9"/>
    <path class="cls-9" d="M701.38,839.54c-17.42-1.39-70.81,12.78-85.57,25.02,0,0,47.35-41.67,78.64-44.57"/>
    <path class="cls-9" d="M867.97,478.54c24.49-10.97,74.79-.06,74.79-.06-15.81-2.83-57.92,15.31-70.38,23.63"/>
    <path class="cls-9" d="M1017.21,644.2c27,16.06,51.85,74.04,51.85,74.04-8.07-17.39-50.19-53.13-66.52-59.36"/>
    <path class="cls-9" d="M1077.42,627.85c22.71-.29,49.77,21.24,54.07,31.64-14.86-9.31-47.96-14.22-59.47-20.43"/>
  </g>
</svg>