<?xml version="1.0" encoding="UTF-8"?>
<svg id="Layer_1" data-name="Layer 1" xmlns="http://www.w3.org/2000/svg" xmlns:xlink="http://www.w3.org/1999/xlink" version="1.1" viewBox="0 0 1484 1080">
  <defs>
    <style>
      .cls-1, .cls-2, .cls-3, .cls-4, .cls-5, .cls-6 {
        stroke: #303143;
        stroke-linecap: round;
        stroke-width: 6px;
      }

      .cls-1, .cls-2, .cls-3, .cls-4, .cls-6 {
        stroke-linejoin: round;
      }

      .cls-1, .cls-7 {
        fill: #f08b5f;
      }

      .cls-2, .cls-8 {
        fill: #4ba3df;
      }

      .cls-3 {
        display: none;
      }

      .cls-3, .cls-6 {
        fill: #68e0a5;
      }

      .cls-7, .cls-8, .cls-9, .cls-10 {
        stroke-width: 0px;
      }

      .cls-9 {
        fill: #f0f0f0;
      }

      .cls-11 {
        isolation: isolate;
        opacity: 0;
      }

      .cls-4, .cls-5 {
        fill: none;
      }

      .cls-10 {
        fill: #303143;
      }

      .cls-5 {
        stroke-miterlimit: 10;
      }
    </style>
  </defs>
  <image class="cls-11" width="2627" height="3503" transform="translate(435.667 -240) scale(.414)" xlink:href="TybaltHandFlat-1.png"/>
  <g>
    <g>
      <path class="cls-6" d="M590.77,373.13c5.59,71.44,22.47,196.7,8.37,283.91s2.78,169.79,2.78,207.83l-88.55,10.88c-19.89-70.77,83.91-330.05,18.97-502.62"/>
      <path class="cls-6" d="M521.13,860.59c-2.95-19.63-58.83-104.97-80.64-98.26,27.21-5.67,88.99,33.63,99.63,79.14"/>
      <path class="cls-6" d="M577.2,862.36c13.56-22.77,64.74-121.43,108.29-104.72-48.83-30.03-133.55,35.07-149.04,85.67"/>
      <path class="cls-3" d="M591.09,851.47c21.97-27.94,77.56-68.94,128.46-56.93-64.44-30.48-128.85,17.88-165.39,74.17"/>
      <path class="cls-3" d="M518.23,864.76c-17.59-14.94-86.63-54.26-121.81-58.24,0,0,113.74,10.52,153.48,33.86"/>
      <path class="cls-3" d="M554.67,875.45c-48.26-30.78-141.58-28.93-141.58-28.93,26.48-3.59,93.22,25.09,118.86,43.58,3.91,2.82,14.7,7.93,25.71,8.17,10.6.23,88.39-58.1,117.25-58.47,0,0-87.23-1.99-125.08,23.28"/>
      <g>
        <g>
          <path class="cls-1" d="M538.75,419.38s-9.25,52.39,8.65,49.4c12.56-2.1,21.14-9,27.39-9.21,7.77-.26,16.43,8.45,21.61,8.03,27.95-2.22,9.46-46.14,3.55-58.77"/>
          <path class="cls-2" d="M538.98,423.67s-8.32,58.97-32.52,38.18c-9.66-8.3-13.65-18.48-18.93-21.84-6.56-4.17-20.91-7.63-25.16-10.61-22.95-16.1,17.73-37.99,29.24-45.87"/>
          <path class="cls-1" d="M482.94,328.25s-54.36-24.33-49.63,7.23c1.89,12.59,9.94,20.7,9.98,26.96.04,7.77-6.22,22.45-5.96,27.63,1.42,28,41.6,5.2,54.4-.36"/>
          <path class="cls-1" d="M626.28,304.55s50.2-17.62,50.15.53c-.03,12.74-5.45,22.32-4.65,28.52,1,7.71,11,14.85,11.43,20.02,2.33,27.94-44,16.81-57.42,13.02"/>
          <path class="cls-1" d="M605.65,422.7s33.71,49.1,46.12,19.7c4.95-11.73,2.31-22.85,5.54-28.21,4.02-6.65,17.01-15.92,19.49-20.48,13.38-24.64-32.8-26.12-46.61-28.05"/>
          <path class="cls-2" d="M618.06,311.52s56.66-18.34,32.01-38.61c-9.84-8.09-20.55-10.26-24.77-14.89-5.24-5.74-11.12-19.29-14.78-22.96-19.81-19.84-34.37,24.01-40.15,36.7"/>
          <path class="cls-2" d="M486.43,331.38s-59.31-5.43-39.72-30.62c7.82-10.05,17.79-14.53,20.89-19.97,3.84-6.75,6.6-21.26,9.37-25.65,14.96-23.71,38.81,15.86,47.24,26.97"/>
          <path class="cls-1" d="M513.04,285.03s-21.6-48.62-3.5-50.03c12.7-.99,22.68,3.64,28.8,2.34,7.6-1.61,13.92-12.15,19.03-13,27.66-4.57,20.3,42.51,17.6,56.19"/>
        </g>
        <path class="cls-1" d="M616.64,371.57s31.17,20.89,20.9,28.54c-7.2,5.37-14.91,6.36-18.07,9.43-3.93,3.82-3.73,12.49-6.47,14.92-14.79,13.13-28.1-17.73-31.63-26.92"/>
        <path class="cls-2" d="M504.14,314.43s-39.31-18.4-36.25,4.66c1.22,9.2,5.85,15.69,5.8,20.25-.07,5.66-3.67,15.8-3.54,19.58.69,20.42,30.25,4.3,39.64.41"/>
        <path class="cls-2" d="M533.99,393.02s-26.03,38.71-1.04,39.27c9.97.22,17.63-3.62,22.46-2.81,6,1.01,16.18,6.5,20.22,6.99,21.8,2.64,9.56-31.42,6.98-42.04"/>
        <path class="cls-1" d="M506.19,362.94s-41.54,5.55-27.03,22.69c5.79,6.84,13.61,8.72,15.95,12.45,2.9,4.64,4.58,15.74,6.66,18.75,11.21,16.24,26.83-12.28,32.43-20.34"/>
        <path class="cls-2" d="M616.87,338.81s45.29-5.19,29.86-24.12c-6.16-7.56-13.87-10.81-16.33-14.92-3.06-5.1-5.42-16.15-7.62-19.46-11.86-17.89-29.42,12.81-35.68,21.46"/>
        <path class="cls-1" d="M611.8,372.66s31.14,27.07,34.35,5.2c1.28-8.73-2.42-15.73-1.19-19.88,1.54-5.16,8.64-13.63,9.51-17.12,4.69-18.85-26.53-11.82-36.13-10.71"/>
        <path class="cls-2" d="M538.42,290.88s-10.84-45.13,12.66-36.98c9.38,3.25,15.18,9.49,19.97,10.42,5.95,1.15,17.34-.45,21.28.5,21.24,5.11-1.99,32.61-8.08,41.62"/>
        <path class="cls-1" d="M505.09,320.61s-31.79-27.45-19.34-34.55c8.73-4.98,17.43-5.03,21.36-8.02,4.89-3.71,5.85-13.36,9.22-15.69,18.22-12.58,28.8,23.53,31.48,34.21"/>
        <path class="cls-2" d="M570.09,318.47s14.54-40.73-8.04-35.52c-9.01,2.08-15.01,7.28-19.54,7.66-5.62.47-16.02-2.15-19.76-1.66-20.19,2.61-1.41,30.41,3.33,39.36"/>
        <path class="cls-1" d="M564.67,317.85s18.54-36.37,28.12-26.27c6.73,7.09,8.79,15.28,12.53,18.3,4.64,3.75,13.97,2.42,16.95,5.06,16.1,14.28-15.52,32.64-24.98,37.65"/>
        <path class="cls-1" d="M570.27,378.26s19.59,39.41,31.71,19.18c4.84-8.07,4.05-16.48,6.97-20.07,3.63-4.45,14.09-9.89,16.38-12.97,12.34-16.64-21.29-22.5-31.2-25.34"/>
        <path class="cls-2" d="M574.88,372.28s10.37,42.76-11.92,35.08c-8.9-3.06-14.41-8.97-18.95-9.83-5.64-1.07-16.44.46-20.17-.42-20.15-4.79,1.82-30.92,7.57-39.47"/>
        <path class="cls-1" d="M529.8,321.67s-40.33-20.38-37.87,3.71c.98,9.61,6.8,16.05,6.6,20.79-.25,5.89-5.52,16.79-5.5,20.73.08,21.27,31.34,5.42,41.24,1.67"/>
        <circle class="cls-6" cx="560.04" cy="343.02" r="38"/>
      </g>
    </g>
    <g id="pinky">
      <polygon class="cls-7" points="843 791.65 856.17 775 875.78 755.54 891 741.45 904.86 729.47 922.94 715.15 938.68 704.16 952.33 696 969.85 688 980.41 662.91 993.73 636.73 1004.93 618 1017.33 600.26 1032.42 582.48 1046.28 569.57 1065 557.06 1080.44 550.81 1095.18 548.18 1108.16 548.91 1118.58 553.23 1127.02 560.7 1130 565 1111.13 583.76 1092.57 605.32 1072.83 631.12 1058.42 651.87 1043.65 675.01 1036 689.83 1003.27 709.39 975.5 732 951.87 754.7 927 782.97 900 811 857 815 843 791.65"/>
      <path class="cls-4" d="M969.85,688s50.15-140,130.15-140c21.21,0,30,17,30,17"/>
      <path class="cls-4" d="M843,789s93.97-105,147-105"/>
    </g>
    <g id="ring">
      <polygon class="cls-7" points="927 782 947.74 758.98 983.19 725.27 1013.81 702.14 1033.24 691.12 1039.46 682 1065 642.19 1104.6 591.05 1136.06 559.01 1166.37 535.96 1194.03 522.59 1222.02 517.89 1239 520.42 1248.26 525.24 1256.24 536.05 1256 545 1228 564 1189.32 597.87 1167.23 619.73 1146.12 642.81 1125.64 667.73 1105.77 696 1100 707.67 1081.09 721 1070.37 730.2 1059 741.13 1047.6 752.98 1036 765.47 1027 774.12 979.04 789 948.26 789 927 782"/>
      <path class="cls-4" d="M1036,688s97.12-175.1,189-170c36,2,31,27,31,27"/>
      <path class="cls-4" d="M927,782s80-97,138-100"/>
    </g>
    <g id="middle">
      <polygon class="cls-7" points="1027.9 774.06 1078.59 723.04 1103.79 705.45 1103.79 699.25 1112.24 686.09 1139.86 650.12 1167.23 619.73 1197.09 590.69 1237.85 557.54 1267.38 538.63 1298.91 524.37 1328.61 517.89 1344.88 519.76 1363.86 527.33 1370.67 535.32 1372.11 550.94 1358.88 572.92 1339.88 596.49 1314.43 625.18 1297.74 645.97 1279 673.13 1261.43 701.01 1251.94 719.49 1230 749 1193.55 771.36 1178.5 779.5 1138 798 1075.5 801.21 1027.9 774.06"/>
      <path class="cls-5" d="M1100,706c31-59,180.01-222.02,260-181,39,20-26,74-57,114-20.29,26.18-47,70-53,82"/>
      <path class="cls-5" d="M1027,775c27-28,54-63,97-79"/>
    </g>
    <g id="indexHand">
      <polygon class="cls-7" points="650 1117 830.57 1095.5 940.41 1070.77 1004.79 1051.8 1061.03 1028.24 1098.57 1003.86 1134.34 970.93 1187.54 927.25 1226.48 900.97 1258.77 880.42 1293.91 851.95 1322.29 820.7 1353.27 790.63 1395.62 751.49 1421.72 722.37 1432.13 698.42 1429.41 684 1417.74 670 1403.18 662.39 1380.26 660.15 1352.28 666.11 1329.81 674.55 1295.96 691.56 1256.24 716.51 1219 745 1200 761 1183.11 775 1155 799 1045 845 691 911 375 1029 149 1030 253 1155 534 1166 650 1117"/>
      <path class="cls-4" d="M1178.5,779.5c46-46,187.49-152,239.24-109.5,51.76,42.5-47.75,92.74-115.24,172.5-38.5,45.5-80.7,51.12-160,121-50.5,44.5-60.5,83.5-315,132"/>
    </g>
    <g id="tybalt">
      <g id="backFoot">
        <polygon class="cls-8" points="839.74 770.75 841.88 805.48 879.34 803.75 877.01 779.38 875.1 768.49 873.14 759.95 859.54 764.52 839.74 770.75"/>
        <path class="cls-4" d="M879.34,803.75c-8.55,1.83-30.65,3.6-37.46,1.73.91-15.44-2.14-34.73-2.14-34.73"/>
      </g>
      <g id="farFrontLeg">
        <polygon class="cls-8" points="663.93 652.8 662.33 750.48 663.93 809.84 704.03 809.84 731.43 788.52 750.94 728.26 750.94 677.75 750.45 632.1 749.27 601.99 744.85 556.55 734.4 516.64 721.82 498.45 703.54 491.75 679.78 497.16 659.72 518.01 651.94 537.46 649.31 574.17 662.33 637.77 663.93 652.8"/>
        <path class="cls-4" d="M704.03,809.84c-6.72,3.09-32.88,1.71-40.09,0-3.61-58.11,0-157.05,0-157.05"/>
      </g>
      <g>
        <path class="cls-6" d="M702.06,813.19c-2.39-15.95-47.79-85.27-65.5-79.82,22.1-4.6,72.29,27.32,80.93,64.28"/>
        <path class="cls-6" d="M729.49,822.12c4.77-20.03,30.06-78.01,48.39-90.42,0,0-60.08,37.61-74.4,71.74"/>
        <path class="cls-6" d="M713.35,808.99c40.09-23.7,115.8-19.49,115.8-19.49-21.39-3.7-76.43,17.76-97.79,32.1-3.25,2.18-12.17,6.04-21.12,5.92-8.61-.12-70.02-49.95-93.44-51.09,0,0,70.87.9,100.85,22.62"/>
      </g>
      <g id="torso">
        <polygon class="cls-8" points="734.4 768.49 760.12 775.74 797.48 776.49 829.88 772.49 857.2 765.39 886.56 753 908.2 728.26 927.55 695.22 909.84 660.59 890.48 643.63 859.54 633.33 824.78 632.1 792.47 637.07 765.34 642.31 750.94 645.35 734.4 664.58 724 718 727 749 734.4 768.49"/>
        <path class="cls-4" d="M760.12,775.74c28.62,4.02,82.62-1.38,109.62-15.78"/>
      </g>
      <g id="closeBackLeg">
        <polygon class="cls-8" points="857 719 866.76 739.95 874.27 764.65 879.34 788.52 879.34 811.68 878.74 824.15 910.19 823 936.34 815.75 939.18 811.68 939.18 777.03 933.49 719 923.5 684.24 914.64 667.25 898.09 648.85 883.12 639.84 855 670 853 699 857 719"/>
        <path class="cls-4" d="M750.94,645.35c113.2-24.21,194.71-37.75,187.84,169.28-1.38.63-2.44,1.12-2.44,1.12-6.72,3.09-50.39,10.11-57.6,8.4,3.89-60.37-18-97.2-18-97.2"/>
      </g>
      <g id="Head">
        <path class="cls-4" d="M649.52,574.13s-6.58-82.38,54.02-82.38c41.4,0,47.4,79.2,47.4,186"/>
        <g>
          <circle class="cls-10" cx="663.94" cy="558.35" r="12"/>
          <circle class="cls-9" cx="669.34" cy="554.15" r="2.4"/>
        </g>
        <polygon class="cls-8" points="681.34 652.8 649.31 652.09 630.78 649.24 606.27 638.58 596.17 623.02 595.53 611.88 600.85 599.37 610.46 589.53 630.21 579.4 649.52 574.13 675.94 570.95 688 596 693.34 632.1 681.34 652.8"/>
        <path class="cls-4" d="M674.14,570.95s-77.4,3-78.6,45,78.6,36.62,78.6,36.62"/>
        <g>
          <circle class="cls-10" cx="693.34" cy="561.35" r="12"/>
          <circle class="cls-9" cx="698.14" cy="556.55" r="2.4"/>
        </g>
      </g>
      <g id="closeFrontLeg">
        <polygon class="cls-8" points="704.29 732.24 704.03 763.89 703.45 796.66 704.29 817.01 705.34 836.01 754.89 834.05 755.86 795.65 761.04 753.18 768.17 732.24 760.12 708.77 735.81 704.8 713 708 704.74 722.75 704.29 732.24"/>
        <path class="cls-4" d="M765.34,737.75c-10.8,30-10.2,79.2-10.45,96.3-6.77,3.11-42.88,2-49.71.26-3.62-58.17-.44-111.56-.44-111.56"/>
      </g>
    </g>
    <g>
      <path class="cls-6" d="M416.43,874.73c-2-16,23-95,41.53-94.53-22.53,1.53-62.23,45.82-60.58,83.74"/>
      <path class="cls-6" d="M392.43,890.73c-10-18-50-67-71-74,0,0,68,20,91,49"/>
      <path class="cls-6" d="M404.43,873.73c-45-12-116.76,12.49-116.76,12.49,19.6-9.34,78.38-3.53,102.83,4.51,3.72,1.22,13.35,2.53,21.93,0,8.26-2.44,53.94-67,76.18-74.41,0,0-68,20-91,49"/>
    </g>
    <g>
      <path class="cls-6" d="M879.86,294.25c-6.27,80.13-25.21,220.63-9.39,318.46s-3.12,190.45-3.12,233.12l99.33,12.2c22.31-79.38-94.12-370.21-21.27-563.78"/>
      <path class="cls-6" d="M957.98,841.02c3.3-22.02,65.99-117.74,90.45-110.22-30.52-6.36-99.82,37.72-111.75,88.77"/>
      <path class="cls-6" d="M895.09,843c-15.21-25.54-72.62-136.2-121.46-117.46,54.77-33.69,149.8,39.33,167.17,96.09"/>
      <path class="cls-3" d="M879.51,830.79c-24.65-31.34-86.99-77.33-144.09-63.86,72.29-34.18,144.52,20.06,185.52,83.19"/>
      <path class="cls-3" d="M961.23,845.69c19.73-16.76,97.18-60.86,136.63-65.33,0,0-127.57,11.8-172.16,37.98"/>
      <path class="cls-3" d="M920.36,857.69c54.13-34.52,158.8-32.45,158.8-32.45-29.7-4.03-104.57,28.14-133.33,48.89-4.38,3.16-16.49,8.9-28.84,9.17-11.89.26-99.14-65.17-131.51-65.58,0,0,97.85-2.24,140.3,26.12"/>
      <g>
        <g>
          <path class="cls-1" d="M832.62,275.97s-59.59,3.15-53.81-16.38c4.05-13.7,12.9-22.3,14-29.24,1.35-8.61-7.16-19.45-5.99-25.15,6.29-30.81,52.66-4.23,65.92,4.08"/>
          <path class="cls-2" d="M827.88,275.13s-66.79,1.2-46.95,30.99c7.92,11.89,18.71,17.72,21.72,24.06,3.75,7.87,5.64,24.33,8.37,29.46,14.79,27.76,44.72-14.55,55.07-26.28"/>
          <path class="cls-1" d="M926.46,350.56s19.66,63.84-14.83,54.26c-13.76-3.82-21.69-13.9-28.66-14.79-8.65-1.11-25.84,3.86-31.58,2.86-30.98-5.41-.1-47.03,7.83-60.51"/>
          <path class="cls-1" d="M972.43,194.22s26.47-53.48,6.26-55.9c-14.18-1.7-25.59,3.02-32.39,1.28-8.44-2.16-15.03-14.27-20.73-15.46-30.79-6.42-24.73,46.69-22.34,62.15"/>
          <path class="cls-1" d="M838.06,201.04s-50.05-44.24-15.63-54.04c13.74-3.91,25.76.55,32.16-2.31,7.96-3.56,20.04-16.76,25.46-18.9,29.26-11.53,24.6,40.08,24.86,55.72"/>
          <path class="cls-2" d="M963.54,202.42s28.16-60.57,47.36-30.36c7.66,12.06,8.62,24.28,13.19,29.61,5.68,6.61,19.95,15.01,23.54,19.6,19.38,24.77-31.42,34.99-46.34,39.69"/>
          <path class="cls-2" d="M923.45,346.25s-2.06,66.77,28.66,48.4c12.26-7.33,18.61-17.82,25.09-20.53,8.05-3.36,24.57-4.44,29.84-6.93,28.44-13.41-12.35-45.38-23.57-56.28"/>
          <path class="cls-1" d="M978.69,322.95s51.17,30.69,55.22,10.74c2.84-14-.95-25.75,1.33-32.39,2.84-8.24,15.43-13.83,17.08-19.41,8.87-30.17-44.55-28.4-60.15-27.27"/>
        </g>
        <path class="cls-1" d="M896.5,195.79s-19-37.56-28.92-27.17c-6.96,7.29-9.11,15.73-12.97,18.83-4.79,3.85-14.41,2.45-17.49,5.17-16.64,14.67,15.91,33.7,25.64,38.89"/>
        <path class="cls-2" d="M944.74,328.85s15.11,46.28-10.14,39.72c-10.08-2.62-16.67-8.65-21.75-9.22-6.31-.7-18.1,1.92-22.29,1.26-22.64-3.56-.65-34.27,4.96-44.19"/>
        <path class="cls-2" d="M861.32,284.87s-46.66,23.69-43.86-4.21c1.12-11.13,6.44-19.13,6.2-24.62-.3-6.82-5.03-18.9-5.02-23.46.04-24.63,36.29-6.35,47.75-2.03"/>
        <path class="cls-1" d="M891.02,319.93s-11.85,45.49-28.95,27c-6.82-7.38-7.84-16.35-11.68-19.46-4.77-3.86-16.9-7.25-19.96-9.97-16.54-14.7,17.34-28.19,27.08-33.33"/>
        <path class="cls-2" d="M932.99,200.01s11.96-49.71,30.93-29.95c7.57,7.89,10.14,16.92,14.38,20.22,5.26,4.1,17.25,8.24,20.63,11.14,18.29,15.65-18.28,31.01-28.76,36.8"/>
        <path class="cls-1" d="M894.62,201.03s-25.88-38.36-1.09-38.95c9.89-.24,17.18,4.85,21.97,4.04,5.95-1.01,16.35-7.76,20.36-8.25,21.62-2.65,9.53,31.15,6.99,41.69"/>
        <path class="cls-2" d="M975.64,293.9s48.76,18.23,42.9-9.04c-2.34-10.88-8.5-18.2-8.87-23.65-.46-6.78,2.87-19.25,2.36-23.75-2.78-24.35-36.58-2.24-47.44,3.31"/>
        <path class="cls-1" d="M937.99,326.94s26.22,39.14,35.82,26.25c6.74-9.04,7.99-18.71,11.85-22.68,4.8-4.93,15.68-4.68,18.73-8.12,16.49-18.56-22.26-35.28-33.78-39.72"/>
        <path class="cls-2" d="M949.26,254.87s47.33-10.62,38.45,13.8c-3.55,9.75-10.16,15.72-11.2,20.71-1.29,6.2.2,18.13-.85,22.23-5.67,22.12-34.05-2.58-43.37-9.09"/>
        <path class="cls-1" d="M949.2,260.99s43.03-15.67,33.09-27.72c-6.97-8.46-15.81-11.88-18.66-16.45-3.54-5.68-.78-15.89-3.32-19.56-13.69-19.87-38.47,12.82-45.33,22.67"/>
        <path class="cls-1" d="M882.71,246.51s-41.2-27.19-17.02-37.92c9.65-4.28,18.9-2.26,23.29-5.02,5.45-3.43,12.93-14.34,16.67-16.46,20.21-11.46,22.14,26.78,23.95,38.2"/>
        <path class="cls-2" d="M890,242.19s-46.19-17.39-40.68,8.48c2.2,10.32,8.01,17.27,8.36,22.44.43,6.43-2.76,18.24-2.28,22.51,2.58,23.09,34.67,2.2,44.98-3.03"/>
        <path class="cls-1" d="M940.18,299.29s17.18,47.68-9.3,41.65c-10.57-2.41-16.94-9.76-22.24-10.19-6.59-.53-19.45,3.85-23.83,3.29-23.67-2.99-1.76-35.64,3.77-46.14"/>
        <circle class="cls-6" cx="920.55" cy="262.7" r="42.63"/>
      </g>
    </g>
    <g id="thumb">
      <polygon class="cls-7" points="180 1008 381.56 898.78 494.44 846.18 576.24 817.66 619 809 662.76 807.93 765.44 799.35 843 791.65 981.92 777.71 1075.5 771.67 1133.47 771.36 1176.94 779.94 1203.76 792.69 1219.71 814.83 1222.02 836.46 1213.1 857.24 1195.25 873.51 1164.26 889.68 1082.94 906.82 1009 914 908 924 871.32 930.43 847.23 937.76 839 945 777 1026 587 1116 70 1084 180 1008"/>
      <path class="cls-4" d="M26,1116s113.46-84.17,154-108c31.61-18.59,322.18-190.58,435-197,334-19,604-88,607,18s-333,75-382,113"/>
    </g>
    <g>
      <path class="cls-6" d="M1212,524c-2-16,23-95,41.53-94.53-22.53,1.53-62.23,45.82-60.58,83.74"/>
      <path class="cls-6" d="M1188,540c-10-18-50-67-71-74,0,0,68,20,91,49"/>
      <path class="cls-6" d="M1200,523c-45-12-116.76,12.49-116.76,12.49,19.6-9.34,78.38-3.53,102.83,4.51,3.72,1.22,13.35,2.53,21.93,0,8.26-2.44,53.94-67,76.18-74.41,0,0-68,20-91,49"/>
    </g>
    <g>
      <path class="cls-6" d="M1135.23,768.62c-2.39-15.95-47.79-85.27-65.5-79.82,22.1-4.6,72.29,27.32,80.93,64.28"/>
      <path class="cls-6" d="M1162.66,777.54c4.77-20.03,30.06-78.01,48.39-90.42,0,0-60.08,37.61-74.4,71.74"/>
      <path class="cls-6" d="M1146.52,764.41c40.09-23.7,115.8-19.49,115.8-19.49-21.39-3.7-76.43,17.76-97.79,32.1-3.25,2.18-12.17,6.04-21.12,5.92-8.61-.12-70.02-49.95-93.44-51.09,0,0,70.87.9,100.85,22.62"/>
    </g>
  </g>
</svg>