<?xml version="1.0" encoding="UTF-8"?>
<svg id="Layer_1" data-name="Layer 1" xmlns="http://www.w3.org/2000/svg" xmlns:xlink="http://www.w3.org/1999/xlink" version="1.1" viewBox="0 0 1484 1195.932">
  <defs>
    <style>
      .cls-1, .cls-2, .cls-3, .cls-4 {
        stroke-width: 0px;
      }

      .cls-1, .cls-5 {
        fill: #f08b5f;
      }

      .cls-6 {
        filter: url(#drop-shadow-2);
      }

      .cls-7 {
        filter: url(#drop-shadow-1);
      }

      .cls-2 {
        fill: #4ba3df;
      }

      .cls-3 {
        fill: #f0f0f0;
      }

      .cls-5 {
        stroke-miterlimit: 10;
      }

      .cls-5, .cls-8, .cls-9 {
        stroke: #303143;
        stroke-width: 6px;
      }

      .cls-8 {
        fill: none;
      }

      .cls-8, .cls-9 {
        stroke-linecap: round;
        stroke-linejoin: round;
      }

      .cls-4 {
        fill: #303143;
      }

      .cls-9 {
        fill: #68e0a5;
      }
    </style>
    <filter id="drop-shadow-1" filterUnits="userSpaceOnUse">
      <feOffset dx="-4.997" dy="-4.997"/>
      <feGaussianBlur result="blur" stdDeviation="9"/>
      <feFlood flood-color="#fff" flood-opacity="1"/>
      <feComposite in2="blur" operator="in"/>
      <feComposite in="SourceGraphic"/>
    </filter>
    <filter id="drop-shadow-2" filterUnits="userSpaceOnUse">
      <feOffset dx="5" dy="5"/>
      <feGaussianBlur result="blur-2" stdDeviation="9"/>
      <feFlood flood-color="#ccc" flood-opacity="1"/>
      <feComposite in2="blur-2" operator="in"/>
      <feComposite in="SourceGraphic"/>
    </filter>
  </defs>
  <g class="cls-7">
    <path class="cls-5" d="M694.807,428.658s-32.465,81.136-36.284,90.384-42.013,61.163-36.284,73.399,45.63,64.458,127.848-10.35,96.93-136.839,96.93-136.839c0,0,92.934-41.092,225.305-121.299s-101.57-117.115-101.57-117.115l-275.945,221.819Z"/>
    <path class="cls-5" d="M600.286,366.121s-46.685,39.942-53.007,48.372-122.958,82.285-124.012,90.715,30.557,85.786,110.637,46.581c80.08-39.205,76.919-46.581,95.885-55.011s82.187-49.523,106.422-62.167,140.14-43.201,258.153-113.798-311.891-32.664-311.891-32.664l-82.187,77.973Z"/>
    <path class="cls-9" d="M578.066,466.764c16.759-2.398,70.198,1.297,87.178,14.052,0,0-53.404-42.849-84.617-44.499"/>
    <circle class="cls-5" cx="679.756" cy="927.882" r="14.876"/>
    <path class="cls-9" d="M709.193,684.744c8.729-3.556,43.046-3.898,56.131,1.948,0,0-43.584-19.918-61.55-17.101"/>
    <circle class="cls-5" cx="352.285" cy="636.168" r="17.428"/>
    <path class="cls-9" d="M699.703,894.927c-24.144-2.18-71.779,25.808-71.779,25.808,15.008-8.21,58.086-10.402,70.531-6.63"/>
    <path class="cls-9" d="M1079.266,600.508c-14.009-5.327-59.111-13.586-73.888-7.296,0,0,47.562-15.682,73.888-10.465"/>
    <path class="cls-9" d="M669.718,581.963c-.076-5.895,15.032-25.438,21.969-32.376s31.22-21.969,40.47-13.875,2.484,31.652,2.484,38.545,0,18.054-7.221,34.794-10.504,42.344-10.504,55.474-2.298,74.512-3.282,89.283-2.626,59.084-4.595,71.886-.656,62.039-.656,66.306-3.611,21.008-3.611,21.008h-15.099s1.969-3.282,2.954-25.275-1.969-81.405-.656-100.115-1.969-117.512-3.282-129.985-7.878-32.825-8.206-38.077-8.534-23.962-8.863-26.26-1.83-5.923-1.9-11.332Z"/>
    <path class="cls-5" d="M837.416,206.839s-280.93,68.159-325.808,84.693-133.276,54.07-258.64,79.127c-22.125,4.422-28.344,22.713-23.62,43.834s18,99.013,127.548,70.723c214.943-55.507,257.319-91.39,296.432-106.29,24.801-9.448,85.951,2.362,336.586-69.679s-152.499-102.408-152.499-102.408Z"/>
    <path class="cls-9" d="M335.346,825.328c13.176-10.63,60.989-34.781,82.104-32.504,0,0-67.805-9.514-95.472,5.029"/>
    <path class="cls-9" d="M326.409,642.887c9.139-8.544,64.08-38.59,69.013-31.909-7.272-7.092-45.306.812-67.834,19.985"/>
    <path class="cls-9" d="M571.246,391.461c-14.786-6.441-97.633-4.763-102.415,13.138,7.833-21.171,61.527-46.762,97.436-34.464"/>
    <path class="cls-9" d="M305.923,724.118c-5.511-11.284-34.731-43.946-55.91-50.938,0,0,69.416,21.187,85.962,40.414"/>
    <path class="cls-9" d="M570.495,685.337c-31.037-3.701-90.97,29.407-90.97,29.407,18.908-9.67,72.193-4.192,88.297,1.031"/>
    <path class="cls-9" d="M555.181,676.694c23.769-8.858,94.794,6.075,94.794,6.075-21.923-4.094-63.276,10.417-73.548,17.642"/>
    <path class="cls-9" d="M321.781,446.514c7.961,1.061,18.484-6.602,22.445-6.602s30.367,0,31.027,11.883-30.367,49.511-29.707,148.534-7.262,50.832-5.281,89.781,3.961,53.472,3.961,81.859-7.262,61.394-6.602,73.277,3.961,31.687.66,37.629-13.203,12.543-13.203,12.543l-6.602-5.941s.66-73.937,0-89.121-.66-72.617,0-90.441,1.65-89.781-.495-109.585,2.145-59.414,0-71.957-5.446-32.348-8.747-38.289-19.144-16.504-17.824-25.086,6.602-17.824,13.203-18.484,7.262-1.32,17.164,0Z"/>
    <path class="cls-9" d="M767.068,307.26c16.882-6.534,54.68-17.498,60.148-12.03s6.562,48.119,12.03,69.991,18.591,85.301,32.808,114.829,42.651,112.641,49.212,126.858,24.059,80.927,25.153,92.957-8.749,38.276-8.749,38.276c0,0-9.842-50.306-18.591-80.927s-21.872-74.365-37.183-107.173-31.715-62.336-40.463-82.02-29.527-56.868-43.744-72.178-17.498-40.463-30.621-51.4-28.434-19.685-22.966-26.247c5.468-6.562,9.744-5.819,22.966-10.936Z"/>
    <circle class="cls-5" cx="985.113" cy="681.221" r="17.428"/>
    <path class="cls-9" d="M1010.47,668.809c-17.42-1.392-70.808,12.784-85.571,25.02,0,0,45.917-40.934,77.2-43.836"/>
    <g id="tybalt">
      <g id="backFoot">
        <polygon class="cls-2" points="1042.323 830.789 1044.463 865.519 1081.923 863.789 1079.593 839.419 1077.683 828.529 1075.723 819.989 1062.123 824.559 1042.323 830.789"/>
        <path class="cls-8" d="M1081.923,863.789c-8.55,1.83-30.65,3.6-37.46,1.73.91-15.44-2.14-34.73-2.14-34.73"/>
      </g>
      <g id="torso">
        <polygon class="cls-2" points="936.983 828.529 962.703 835.779 1000.063 836.529 1032.463 832.529 1059.783 825.429 1089.143 813.039 1110.783 788.299 1130.133 755.259 1112.423 720.629 1093.063 703.669 1062.123 693.369 1027.363 692.139 995.053 697.109 967.923 702.349 953.523 705.389 936.983 724.619 926.583 778.039 929.583 809.039 936.983 828.529"/>
        <path class="cls-8" d="M962.703,835.779c28.62,4.02,82.62-1.38,109.62-15.78"/>
      </g>
      <path class="cls-9" d="M926.583,712.829c41.34-10.48,92.034,120.641,37.382,122.849,0,0,8.549.851,23.873.851,40.519,0,7.214-139.42-37.674-130.58-60.124,11.84-23.581,6.88-23.581,6.88Z"/>
      <g id="farFrontLeg">
        <polygon class="cls-2" points="866.513 712.839 864.913 810.519 866.513 869.879 906.613 869.879 934.013 848.559 953.523 788.299 953.523 737.789 953.033 692.139 951.853 662.029 947.433 616.589 936.983 576.679 924.403 558.489 906.123 551.789 882.363 557.199 862.303 578.049 854.523 597.499 851.893 634.209 864.913 697.809 866.513 712.839"/>
        <path class="cls-1" d="M866.239,732.087c3.306,7.903,5.918,13.81,10.484,15.289,4.565,1.48,15.427-5.313,14.67-9.587-.586-3.31,3.452-12.114,11.315-17.046s-.465-11.344-6.785-12.33-9.462-15.783-20.986-21.701c-4.103-2.107-8.323-1.767-12.237.288l2.213,10.809,1.6,15.03-.315,19.203.041.045Z"/>
        <path class="cls-8" d="M906.613,869.879c-6.72,3.09-32.88,1.71-40.09,0-3.61-58.11,0-157.05,0-157.05"/>
      </g>
      <g id="closeBackLeg">
        <polygon class="cls-2" points="1059.583 779.039 1069.343 799.989 1076.853 824.689 1081.923 848.559 1081.923 871.719 1081.323 884.189 1112.773 883.039 1138.923 875.789 1141.763 871.719 1141.763 837.069 1136.073 779.039 1126.083 744.279 1117.223 727.289 1100.673 708.889 1085.703 699.879 1057.583 730.039 1055.583 759.039 1059.583 779.039"/>
        <path class="cls-8" d="M953.523,705.389c113.2-24.21,194.71-37.75,187.84,169.28-1.38.63-2.44,1.12-2.44,1.12-6.72,3.09-50.39,10.11-57.6,8.4,3.89-60.37-18-97.2-18-97.2"/>
      </g>
      <g id="Head">
        <path class="cls-8" d="M852.103,634.169s-6.58-82.38,54.02-82.38c41.4,0,47.4,79.2,47.4,186"/>
        <g>
          <circle class="cls-4" cx="866.523" cy="618.389" r="12"/>
          <circle class="cls-3" cx="871.923" cy="614.189" r="2.4"/>
        </g>
        <polygon class="cls-2" points="883.923 712.839 851.893 712.129 833.363 709.279 808.853 698.619 798.753 683.059 798.113 671.919 803.433 659.409 813.043 649.569 832.793 639.439 852.103 634.169 878.523 630.989 890.583 656.039 895.923 692.139 883.923 712.839"/>
        <path class="cls-1" d="M898.557,739.104c4.113-.456,10.638,6.31,10.019,9.618s-8.196,7.819-12.571,7.326-4.855-16.123,2.552-16.944Z"/>
        <path class="cls-1" d="M889.692,702.887c-3.513-5.107-7.45-12.424-14.755-16.175-11.524-5.918-23.987,7.398-27.919,24.122l.573.633,4.302.662,32.03.71,5.769-9.952Z"/>
        <path class="cls-1" d="M892.58,706.506c-3.513-5.107-10.338-16.042-17.644-19.794-11.524-5.918-23.987,7.398-27.919,24.122l.573.633,4.302.662"/>
        <path class="cls-8" d="M876.723,630.989s-77.4,3-78.6,45,78.6,36.62,78.6,36.62"/>
        <g>
          <circle class="cls-4" cx="895.923" cy="621.389" r="12"/>
          <circle class="cls-3" cx="900.723" cy="616.589" r="2.4"/>
        </g>
      </g>
      <g id="closeFrontLeg">
        <polygon class="cls-2" points="906.873 792.279 906.613 823.929 906.033 856.699 906.873 877.049 907.923 896.049 957.473 894.089 958.443 855.689 963.623 813.219 970.753 792.279 962.703 768.809 938.393 764.839 915.583 768.039 907.323 782.789 906.873 792.279"/>
        <path class="cls-8" d="M967.923,797.789c-10.8,30-10.2,79.2-10.45,96.3-6.77,3.11-42.88,2-49.71.26-3.62-58.17-.44-111.56-.44-111.56"/>
      </g>
    </g>
    <path class="cls-9" d="M1006.488,695.385c16.987-3.947,95.879,124.652,38.165,135.452,0,0-.012,1.341,31.07-10.848s-13.162-128.439-47.365-127.248-21.869,2.643-21.869,2.643Z"/>
    <path class="cls-9" d="M1257.004,523.794c-26.247,33.902-73.272,92.957-91.863,111.548s-82.02,88.582-84.208,92.957-20.779,19.685-20.779,19.685l1.968,21.982s53.806-64.633,122.703-124.234,72.178-121.937,72.178-121.937Z"/>
    <circle class="cls-5" cx="581.592" cy="702.207" r="20.986"/>
    <circle class="cls-5" cx="545.996" cy="687.149" r="20.986"/>
    <path class="cls-9" d="M1071.091,340.068c3.281,34.995,12.03,115.922,10.936,144.356s-8.749,98.425-10.936,119.203-10.936,69.991-12.03,92.957-7.655,54.68-7.655,54.68l11.167,31.525s14.174-102.609,19.548-150.728,21.778-150.918,30.527-179.351,29.527-66.71,29.527-66.71l-5.468-76.552-65.616,30.621Z"/>
    <path class="cls-9" d="M1044.844,326.945c0,37.183-1.094,141.075-5.468,169.509s-31.715,120.297-39.37,137.794-32.808,83.114-34.995,89.676,7.895,25.588,15.55,5.903,31.475-62.77,39.13-86.83,31.715-100.612,36.089-117.016,17.498-49.212,26.247-62.336,48.119-53.587,69.991-71.084-29.527-118.11-29.527-118.11l-77.646,52.493Z"/>
    <path class="cls-9" d="M1127.304,694.252c21.092,16.805,26.434,62.366,16.632,75.714,8.989-10.169-19.086-59.018-28.603-65.378"/>
    <path class="cls-5" d="M1492.087,64.528s-361.539,42.552-408.944,39.5-301.99-18.734-368.709-19.672-158.512,16.767-210.838,12.01c-33.459-3.042-133.049-7.25-206.982-10.885-41.688-2.049-74.913-10.986-84.137-5.288-26.116,16.133-27.429,89.662,21.881,120.824,78.077,49.341,176.003,30.444,207.398,35.201s216.797,15.714,266.783,21.031,429.802,35.94,467.951,327.566c10.437,79.784-132.941,289.811-142.512,395.1s105.066,144.741,144.429,128.164c0,0,111.66-435.309,313.679-550.267s0-493.283,0-493.283Z"/>
    <path class="cls-9" d="M533.277,183.047c19.533,2.205,13.875,4.625,26.594,4.625s20.813-2.313,28.907-2.313,31.22,5.781,39.313,12.719,18.5,12.719,18.5,19.657-50.876,106.378-50.876,136.441-4.625,64.752-5.781,92.502-12.719,65.908-12.719,84.408,1.7,75.991,2.488,102.675-3.277,56.244-3.277,66.65-9.617,80.432-9.617,97.776-4.625,42.782-6.938,49.72-10.407-4.625-10.407-4.625c0,0,3.469-27.751,4.625-63.595s12.719-95.971,8.094-128.347-4.625-106.378-6.938-126.034-10.407-89.809-8.094-110.812-4.625-73.036-13.875-96.162-39.313-82.096-37.001-97.127,22.926-39.746,37.001-38.157Z"/>
    <g>
      <circle class="cls-5" cx="554.823" cy="740.622" r="17.428"/>
      <circle class="cls-5" cx="581.592" cy="723.193" r="17.428"/>
      <circle class="cls-5" cx="343.621" cy="884.189" r="17.428"/>
      <path class="cls-9" d="M326.193,865.519c17.567,15.214,68.96,30.958,82.819,36.098,0,0-44.576-51.971-74.948-59.355"/>
      <circle class="cls-5" cx="308.765" cy="865.519" r="17.428"/>
      <circle class="cls-5" cx="679.756" cy="848.09" r="17.428"/>
      <circle class="cls-5" cx="703.373" cy="913.48" r="17.428"/>
      <circle class="cls-5" cx="1006.099" cy="681.221" r="20.986"/>
      <circle class="cls-5" cx="348.727" cy="819.999" r="20.986"/>
      <circle class="cls-5" cx="308.537" cy="733.815" r="20.986"/>
      <circle class="cls-5" cx="895.923" cy="506.481" r="20.986"/>
      <circle class="cls-5" cx="1086.266" cy="657.154" r="20.986"/>
      <circle class="cls-5" cx="545.996" cy="836.529" r="14.876"/>
      <circle class="cls-5" cx="318.546" cy="895.419" r="17.428"/>
      <path class="cls-9" d="M558.88,827.975c-12.181.32-49.455,9.06-59.699,19.72,0,0,31.843-35.388,53.685-40.147"/>
      <circle class="cls-5" cx="540.418" cy="807.548" r="20.986"/>
      <path class="cls-9" d="M572.251,692.236c37.47-.478,82.928,33.144,90.017,50.305-24.517-15.354-79.128-23.468-98.105-33.712"/>
      <path class="cls-9" d="M561.404,720.94c-17.42-1.392-66.935,12.86-81.698,25.096,0,0,45.917-40.934,77.2-43.836"/>
      <circle class="cls-5" cx="564.164" cy="849.52" r="17.428"/>
      <circle class="cls-5" cx="574.561" cy="821.653" r="20.986"/>
      <circle class="cls-5" cx="543.178" cy="710.834" r="20.986"/>
    </g>
    <path class="cls-9" d="M581.592,340.803c20.246-3.749,83.501-4.101,102.27,7.635,0,0-58.716-39.706-95.721-38.981"/>
    <path class="cls-9" d="M329.523,859.154c-18.976,10.244-73.588,18.358-98.105,33.712,7.089-17.161,51.727-52.685,89.197-52.207"/>
    <path class="cls-9" d="M326.339,542.024c-17.42-1.392-70.808,12.784-85.571,25.02,0,0,45.917-40.934,77.2-43.836"/>
    <path class="cls-9" d="M342.271,538.641c-14.735,9.433-54.052,46.448-58.718,65.296,0,0,12.834-60.947,36.145-82.256"/>
    <path class="cls-9" d="M343.972,506.565c13.178-1.087,79.682,15.38,84.534,26.658-.476-18.512-43.91-41.937-75.036-41.894"/>
    <path class="cls-9" d="M333.143,719.412c-15.6-4.092-97.205,10.299-99.179,28.723,4.486-22.123,53.609-55.663,90.981-49.031"/>
    <path class="cls-9" d="M560.187,796.125c12.17,2.271,50.786,26.968,61.468,43.296,0,0-35.278-54.897-57.28-64.777"/>
    <path class="cls-9" d="M695.543,656.054c-14.009-5.327-59.111-13.586-73.888-7.296,0,0,46.58-21.879,72.906-16.663"/>
    <path class="cls-9" d="M702.843,877.985c26.59-4.501,61.93,20.459,65.334,36.666-1.578-13.481-59.905-24.75-70.992-21.904"/>
    <path class="cls-9" d="M701.385,839.537c-17.42-1.392-70.808,12.784-85.571,25.02,0,0,47.353-41.673,78.636-44.575"/>
    <path class="cls-9" d="M867.97,478.537c24.493-10.972,74.785-.063,74.785-.063-15.809-2.826-57.922,15.309-70.385,23.635"/>
    <path class="cls-9" d="M1017.207,644.201c27,16.062,51.851,74.04,51.851,74.04-8.073-17.393-50.189-53.134-66.517-59.363"/>
    <path class="cls-9" d="M1077.421,627.852c22.712-.29,49.769,21.243,54.066,31.645-14.861-9.307-47.963-14.225-59.465-20.434"/>
  </g>
  <g class="cls-6">
    <path class="cls-5" d="M694.807,428.658s-32.465,81.136-36.284,90.384-42.013,61.163-36.284,73.399,45.63,64.458,127.848-10.35,96.93-136.839,96.93-136.839c0,0,92.934-41.092,225.305-121.299s-101.57-117.115-101.57-117.115l-275.945,221.819Z"/>
    <path class="cls-5" d="M600.286,366.121s-46.685,39.942-53.007,48.372-122.958,82.285-124.012,90.715,30.557,85.786,110.637,46.581c80.08-39.205,76.919-46.581,95.885-55.011s82.187-49.523,106.422-62.167,140.14-43.201,258.153-113.798-311.891-32.664-311.891-32.664l-82.187,77.973Z"/>
    <path class="cls-9" d="M578.066,466.764c16.759-2.398,70.198,1.297,87.178,14.052,0,0-53.404-42.849-84.617-44.499"/>
    <circle class="cls-5" cx="679.756" cy="927.882" r="14.876"/>
    <path class="cls-9" d="M709.193,684.744c8.729-3.556,43.046-3.898,56.131,1.948,0,0-43.584-19.918-61.55-17.101"/>
    <circle class="cls-5" cx="352.285" cy="636.168" r="17.428"/>
    <path class="cls-9" d="M699.703,894.927c-24.144-2.18-71.779,25.808-71.779,25.808,15.008-8.21,58.086-10.402,70.531-6.63"/>
    <path class="cls-9" d="M1079.266,600.508c-14.009-5.327-59.111-13.586-73.888-7.296,0,0,47.562-15.682,73.888-10.465"/>
    <path class="cls-9" d="M669.718,581.963c-.076-5.895,15.032-25.438,21.969-32.376s31.22-21.969,40.47-13.875,2.484,31.652,2.484,38.545,0,18.054-7.221,34.794-10.504,42.344-10.504,55.474-2.298,74.512-3.282,89.283-2.626,59.084-4.595,71.886-.656,62.039-.656,66.306-3.611,21.008-3.611,21.008h-15.099s1.969-3.282,2.954-25.275-1.969-81.405-.656-100.115-1.969-117.512-3.282-129.985-7.878-32.825-8.206-38.077-8.534-23.962-8.863-26.26-1.83-5.923-1.9-11.332Z"/>
    <path class="cls-5" d="M837.416,206.839s-280.93,68.159-325.808,84.693-133.276,54.07-258.64,79.127c-22.125,4.422-28.344,22.713-23.62,43.834s18,99.013,127.548,70.723c214.943-55.507,257.319-91.39,296.432-106.29,24.801-9.448,85.951,2.362,336.586-69.679s-152.499-102.408-152.499-102.408Z"/>
    <path class="cls-9" d="M335.346,825.328c13.176-10.63,60.989-34.781,82.104-32.504,0,0-67.805-9.514-95.472,5.029"/>
    <path class="cls-9" d="M326.409,642.887c9.139-8.544,64.08-38.59,69.013-31.909-7.272-7.092-45.306.812-67.834,19.985"/>
    <path class="cls-9" d="M571.246,391.461c-14.786-6.441-97.633-4.763-102.415,13.138,7.833-21.171,61.527-46.762,97.436-34.464"/>
    <path class="cls-9" d="M305.923,724.118c-5.511-11.284-34.731-43.946-55.91-50.938,0,0,69.416,21.187,85.962,40.414"/>
    <path class="cls-9" d="M570.495,685.337c-31.037-3.701-90.97,29.407-90.97,29.407,18.908-9.67,72.193-4.192,88.297,1.031"/>
    <path class="cls-9" d="M555.181,676.694c23.769-8.858,94.794,6.075,94.794,6.075-21.923-4.094-63.276,10.417-73.548,17.642"/>
    <path class="cls-9" d="M321.781,446.514c7.961,1.061,18.484-6.602,22.445-6.602s30.367,0,31.027,11.883-30.367,49.511-29.707,148.534-7.262,50.832-5.281,89.781,3.961,53.472,3.961,81.859-7.262,61.394-6.602,73.277,3.961,31.687.66,37.629-13.203,12.543-13.203,12.543l-6.602-5.941s.66-73.937,0-89.121-.66-72.617,0-90.441,1.65-89.781-.495-109.585,2.145-59.414,0-71.957-5.446-32.348-8.747-38.289-19.144-16.504-17.824-25.086,6.602-17.824,13.203-18.484,7.262-1.32,17.164,0Z"/>
    <path class="cls-9" d="M767.068,307.26c16.882-6.534,54.68-17.498,60.148-12.03s6.562,48.119,12.03,69.991,18.591,85.301,32.808,114.829,42.651,112.641,49.212,126.858,24.059,80.927,25.153,92.957-8.749,38.276-8.749,38.276c0,0-9.842-50.306-18.591-80.927s-21.872-74.365-37.183-107.173-31.715-62.336-40.463-82.02-29.527-56.868-43.744-72.178-17.498-40.463-30.621-51.4-28.434-19.685-22.966-26.247c5.468-6.562,9.744-5.819,22.966-10.936Z"/>
    <circle class="cls-5" cx="985.113" cy="681.221" r="17.428"/>
    <path class="cls-9" d="M1010.47,668.809c-17.42-1.392-70.808,12.784-85.571,25.02,0,0,45.917-40.934,77.2-43.836"/>
    <g id="tybalt-2" data-name="tybalt">
      <g id="backFoot-2" data-name="backFoot">
        <polygon class="cls-2" points="1042.323 830.789 1044.463 865.519 1081.923 863.789 1079.593 839.419 1077.683 828.529 1075.723 819.989 1062.123 824.559 1042.323 830.789"/>
        <path class="cls-8" d="M1081.923,863.789c-8.55,1.83-30.65,3.6-37.46,1.73.91-15.44-2.14-34.73-2.14-34.73"/>
      </g>
      <g id="torso-2" data-name="torso">
        <polygon class="cls-2" points="936.983 828.529 962.703 835.779 1000.063 836.529 1032.463 832.529 1059.783 825.429 1089.143 813.039 1110.783 788.299 1130.133 755.259 1112.423 720.629 1093.063 703.669 1062.123 693.369 1027.363 692.139 995.053 697.109 967.923 702.349 953.523 705.389 936.983 724.619 926.583 778.039 929.583 809.039 936.983 828.529"/>
        <path class="cls-8" d="M962.703,835.779c28.62,4.02,82.62-1.38,109.62-15.78"/>
      </g>
      <path class="cls-9" d="M926.583,712.829c41.34-10.48,92.034,120.641,37.382,122.849,0,0,8.549.851,23.873.851,40.519,0,7.214-139.42-37.674-130.58-60.124,11.84-23.581,6.88-23.581,6.88Z"/>
      <g id="farFrontLeg-2" data-name="farFrontLeg">
        <polygon class="cls-2" points="866.513 712.839 864.913 810.519 866.513 869.879 906.613 869.879 934.013 848.559 953.523 788.299 953.523 737.789 953.033 692.139 951.853 662.029 947.432 616.589 936.983 576.679 924.403 558.489 906.122 551.789 882.363 557.199 862.302 578.049 854.523 597.499 851.893 634.209 864.913 697.809 866.513 712.839"/>
        <path class="cls-1" d="M866.239,732.087c3.306,7.903,5.918,13.81,10.484,15.289,4.565,1.48,15.427-5.313,14.67-9.587-.586-3.31,3.452-12.114,11.315-17.046s-.465-11.344-6.785-12.33-9.462-15.783-20.986-21.701c-4.103-2.107-8.323-1.767-12.237.288l2.213,10.809,1.6,15.03-.315,19.203.041.045Z"/>
        <path class="cls-8" d="M906.613,869.879c-6.72,3.09-32.88,1.71-40.09,0-3.61-58.11,0-157.05,0-157.05"/>
      </g>
      <g id="closeBackLeg-2" data-name="closeBackLeg">
        <polygon class="cls-2" points="1059.583 779.039 1069.343 799.989 1076.853 824.689 1081.923 848.559 1081.923 871.719 1081.323 884.189 1112.773 883.039 1138.923 875.789 1141.763 871.719 1141.763 837.069 1136.073 779.039 1126.083 744.279 1117.223 727.289 1100.673 708.889 1085.703 699.879 1057.583 730.039 1055.583 759.039 1059.583 779.039"/>
        <path class="cls-8" d="M953.523,705.389c113.2-24.21,194.71-37.75,187.84,169.28-1.38.63-2.44,1.12-2.44,1.12-6.72,3.09-50.39,10.11-57.6,8.4,3.89-60.37-18-97.2-18-97.2"/>
      </g>
      <g id="Head-2" data-name="Head">
        <path class="cls-8" d="M852.103,634.169s-6.58-82.38,54.02-82.38c41.4,0,47.4,79.2,47.4,186"/>
        <g>
          <circle class="cls-4" cx="866.523" cy="618.389" r="12"/>
          <circle class="cls-3" cx="871.923" cy="614.189" r="2.4"/>
        </g>
        <polygon class="cls-2" points="883.923 712.839 851.893 712.129 833.363 709.279 808.853 698.619 798.753 683.059 798.113 671.919 803.433 659.409 813.043 649.569 832.793 639.439 852.103 634.169 878.523 630.989 890.583 656.039 895.923 692.139 883.923 712.839"/>
        <path class="cls-1" d="M898.557,739.104c4.113-.456,10.638,6.31,10.019,9.618s-8.196,7.819-12.571,7.326-4.855-16.123,2.552-16.944Z"/>
        <path class="cls-1" d="M889.692,702.887c-3.513-5.107-7.45-12.424-14.755-16.175-11.524-5.918-23.987,7.398-27.919,24.122l.573.633,4.302.662,32.03.71,5.769-9.952Z"/>
        <path class="cls-1" d="M892.58,706.506c-3.513-5.107-10.338-16.042-17.644-19.794-11.524-5.918-23.987,7.398-27.919,24.122l.573.633,4.302.662"/>
        <path class="cls-8" d="M876.723,630.989s-77.4,3-78.6,45,78.6,36.62,78.6,36.62"/>
        <g>
          <circle class="cls-4" cx="895.923" cy="621.389" r="12"/>
          <circle class="cls-3" cx="900.723" cy="616.589" r="2.4"/>
        </g>
      </g>
      <g id="closeFrontLeg-2" data-name="closeFrontLeg">
        <polygon class="cls-2" points="906.873 792.279 906.613 823.929 906.033 856.699 906.873 877.049 907.923 896.049 957.473 894.089 958.443 855.689 963.623 813.219 970.753 792.279 962.703 768.809 938.393 764.839 915.583 768.039 907.323 782.789 906.873 792.279"/>
        <path class="cls-8" d="M967.923,797.789c-10.8,30-10.2,79.2-10.45,96.3-6.77,3.11-42.88,2-49.71.26-3.62-58.17-.44-111.56-.44-111.56"/>
      </g>
    </g>
    <path class="cls-9" d="M1006.488,695.385c16.987-3.947,95.879,124.652,38.165,135.452,0,0-.012,1.341,31.07-10.848s-13.162-128.439-47.365-127.248-21.869,2.643-21.869,2.643Z"/>
    <path class="cls-9" d="M1257.004,523.794c-26.247,33.902-73.272,92.957-91.863,111.548s-82.02,88.582-84.208,92.957-20.779,19.685-20.779,19.685l1.968,21.982s53.806-64.633,122.703-124.234,72.178-121.937,72.178-121.937Z"/>
    <circle class="cls-5" cx="581.592" cy="702.207" r="20.986"/>
    <circle class="cls-5" cx="545.996" cy="687.149" r="20.986"/>
    <path class="cls-9" d="M1071.091,340.068c3.281,34.995,12.03,115.922,10.936,144.356s-8.749,98.425-10.936,119.203-10.936,69.991-12.03,92.957-7.655,54.68-7.655,54.68l11.167,31.525s14.174-102.609,19.548-150.728,21.778-150.918,30.527-179.351,29.527-66.71,29.527-66.71l-5.468-76.552-65.616,30.621Z"/>
    <path class="cls-9" d="M1044.844,326.945c0,37.183-1.094,141.075-5.468,169.509s-31.715,120.297-39.37,137.794-32.808,83.114-34.995,89.676,7.895,25.588,15.55,5.903,31.475-62.77,39.13-86.83,31.715-100.612,36.089-117.016,17.498-49.212,26.247-62.336,48.119-53.587,69.991-71.084-29.527-118.11-29.527-118.11l-77.646,52.493Z"/>
    <path class="cls-9" d="M1127.304,694.252c21.092,16.805,26.434,62.366,16.632,75.714,8.989-10.169-19.086-59.018-28.603-65.378"/>
    <path class="cls-5" d="M1492.087,64.528s-361.539,42.552-408.944,39.5-301.99-18.734-368.709-19.672-158.512,16.767-210.838,12.01c-33.459-3.042-133.049-7.25-206.982-10.885-41.688-2.049-74.913-10.986-84.137-5.288-26.116,16.133-27.429,89.662,21.881,120.824,78.077,49.341,176.003,30.444,207.398,35.201s216.797,15.714,266.783,21.031,429.802,35.94,467.951,327.566c10.437,79.784-132.941,289.811-142.512,395.1s105.066,144.741,144.429,128.164c0,0,111.66-435.309,313.679-550.267s0-493.283,0-493.283Z"/>
    <path class="cls-9" d="M533.277,183.047c19.533,2.205,13.875,4.625,26.594,4.625s20.813-2.313,28.907-2.313,31.22,5.781,39.313,12.719,18.5,12.719,18.5,19.657-50.876,106.378-50.876,136.441-4.625,64.752-5.781,92.502-12.719,65.908-12.719,84.408,1.7,75.991,2.488,102.675-3.277,56.244-3.277,66.65-9.617,80.432-9.617,97.776-4.625,42.782-6.938,49.72-10.407-4.625-10.407-4.625c0,0,3.469-27.751,4.625-63.595s12.719-95.971,8.094-128.347-4.625-106.378-6.938-126.034-10.407-89.809-8.094-110.812-4.625-73.036-13.875-96.162-39.313-82.096-37.001-97.127,22.926-39.746,37.001-38.157Z"/>
    <g>
      <circle class="cls-5" cx="554.823" cy="740.622" r="17.428"/>
      <circle class="cls-5" cx="581.592" cy="723.193" r="17.428"/>
      <circle class="cls-5" cx="343.621" cy="884.189" r="17.428"/>
      <path class="cls-9" d="M326.193,865.519c17.567,15.214,68.96,30.958,82.819,36.098,0,0-44.576-51.971-74.948-59.355"/>
      <circle class="cls-5" cx="308.765" cy="865.519" r="17.428"/>
      <circle class="cls-5" cx="679.756" cy="848.09" r="17.428"/>
      <circle class="cls-5" cx="703.373" cy="913.48" r="17.428"/>
      <circle class="cls-5" cx="1006.099" cy="681.221" r="20.986"/>
      <circle class="cls-5" cx="348.727" cy="819.999" r="20.986"/>
      <circle class="cls-5" cx="308.537" cy="733.815" r="20.986"/>
      <circle class="cls-5" cx="895.923" cy="506.481" r="20.986"/>
      <circle class="cls-5" cx="1086.266" cy="657.154" r="20.986"/>
      <circle class="cls-5" cx="545.996" cy="836.529" r="14.876"/>
      <circle class="cls-5" cx="318.546" cy="895.419" r="17.428"/>
      <path class="cls-9" d="M558.88,827.975c-12.181.32-49.455,9.06-59.699,19.72,0,0,31.843-35.388,53.685-40.147"/>
      <circle class="cls-5" cx="540.418" cy="807.548" r="20.986"/>
      <path class="cls-9" d="M572.251,692.236c37.47-.478,82.928,33.144,90.017,50.305-24.517-15.354-79.128-23.468-98.105-33.712"/>
      <path class="cls-9" d="M561.404,720.94c-17.42-1.392-66.935,12.86-81.698,25.096,0,0,45.917-40.934,77.2-43.836"/>
      <circle class="cls-5" cx="564.164" cy="849.52" r="17.428"/>
      <circle class="cls-5" cx="574.561" cy="821.653" r="20.986"/>
      <circle class="cls-5" cx="543.178" cy="710.834" r="20.986"/>
    </g>
    <path class="cls-9" d="M581.592,340.803c20.246-3.749,83.501-4.101,102.27,7.635,0,0-58.716-39.706-95.721-38.981"/>
    <path class="cls-9" d="M329.523,859.154c-18.976,10.244-73.588,18.358-98.105,33.712,7.089-17.161,51.727-52.685,89.197-52.207"/>
    <path class="cls-9" d="M326.339,542.024c-17.42-1.392-70.808,12.784-85.571,25.02,0,0,45.917-40.934,77.2-43.836"/>
    <path class="cls-9" d="M342.271,538.641c-14.735,9.433-54.052,46.448-58.718,65.296,0,0,12.834-60.947,36.145-82.256"/>
    <path class="cls-9" d="M343.972,506.565c13.178-1.087,79.682,15.38,84.534,26.658-.476-18.512-43.91-41.937-75.036-41.894"/>
    <path class="cls-9" d="M333.143,719.412c-15.6-4.092-97.205,10.299-99.179,28.723,4.486-22.123,53.609-55.663,90.981-49.031"/>
    <path class="cls-9" d="M560.187,796.125c12.17,2.271,50.786,26.968,61.468,43.296,0,0-35.278-54.897-57.28-64.777"/>
    <path class="cls-9" d="M695.543,656.054c-14.009-5.327-59.111-13.586-73.888-7.296,0,0,46.58-21.879,72.906-16.663"/>
    <path class="cls-9" d="M702.843,877.985c26.59-4.501,61.93,20.459,65.334,36.666-1.578-13.481-59.905-24.75-70.992-21.904"/>
    <path class="cls-9" d="M701.385,839.537c-17.42-1.392-70.808,12.784-85.571,25.02,0,0,47.353-41.673,78.636-44.575"/>
    <path class="cls-9" d="M867.97,478.537c24.493-10.972,74.785-.063,74.785-.063-15.809-2.826-57.922,15.309-70.385,23.635"/>
    <path class="cls-9" d="M1017.207,644.201c27,16.062,51.851,74.04,51.851,74.04-8.073-17.393-50.189-53.134-66.517-59.363"/>
    <path class="cls-9" d="M1077.421,627.852c22.712-.29,49.769,21.243,54.066,31.645-14.861-9.307-47.963-14.225-59.465-20.434"/>
  </g>
</svg>