<?xml version="1.0" encoding="UTF-8"?>
<svg id="Layer_1" data-name="Layer 1" xmlns="http://www.w3.org/2000/svg" version="1.1" viewBox="0 0 1484 1195.9">
  <defs>
    <style>
      .cls-1, .cls-2, .cls-3, .cls-4 {
        stroke-width: 0px;
      }

      .cls-1, .cls-5 {
        fill: #f08b5f;
      }

      .cls-2 {
        fill: #4ba3df;
      }

      .cls-3 {
        fill: #f0f0f0;
      }

      .cls-5 {
        stroke-miterlimit: 10;
      }

      .cls-5, .cls-6, .cls-7 {
        stroke: #303143;
        stroke-width: 6px;
      }

      .cls-6 {
        fill: none;
      }

      .cls-6, .cls-7 {
        stroke-linecap: round;
        stroke-linejoin: round;
      }

      .cls-4 {
        fill: #303143;
      }

      .cls-7 {
        fill: #68e0a5;
      }
    </style>
  </defs>
  <path class="cls-5" d="M694.8,428.7s-32.5,81.1-36.3,90.4-42,61.2-36.3,73.4,45.6,64.5,127.8-10.3,96.9-136.8,96.9-136.8c0,0,92.9-41.1,225.3-121.3s-101.6-117.1-101.6-117.1l-275.9,221.8h0Z"/>
  <path class="cls-5" d="M600.3,366.1s-46.7,39.9-53,48.4-123,82.3-124,90.7,30.6,85.8,110.6,46.6c80.1-39.2,76.9-46.6,95.9-55s82.2-49.5,106.4-62.2,140.1-43.2,258.2-113.8c118-70.6-311.9-32.7-311.9-32.7l-82.2,78h0Z"/>
  <path class="cls-7" d="M578.1,466.8c16.8-2.4,70.2,1.3,87.2,14.1,0,0-53.4-42.8-84.6-44.5"/>
  <circle class="cls-5" cx="679.8" cy="927.9" r="14.9"/>
  <path class="cls-7" d="M709.2,684.7c8.7-3.6,43-3.9,56.1,1.9,0,0-43.6-19.9-61.5-17.1"/>
  <circle class="cls-5" cx="352.3" cy="636.2" r="17.4"/>
  <path class="cls-7" d="M699.7,894.9c-24.1-2.2-71.8,25.8-71.8,25.8,15-8.2,58.1-10.4,70.5-6.6"/>
  <path class="cls-7" d="M1079.3,600.5c-14-5.3-59.1-13.6-73.9-7.3,0,0,47.6-15.7,73.9-10.5"/>
  <path class="cls-7" d="M669.7,582c0-5.9,15-25.4,22-32.4s31.2-22,40.5-13.9,2.5,31.7,2.5,38.5,0,18.1-7.2,34.8-10.5,42.3-10.5,55.5-2.3,74.5-3.3,89.3-2.6,59.1-4.6,71.9-.7,62-.7,66.3-3.6,21-3.6,21h-15.1s2-3.3,3-25.3-2-81.4-.7-100.1-2-117.5-3.3-130-7.9-32.8-8.2-38.1-8.5-24-8.9-26.3-1.8-5.9-1.9-11.3h0Z"/>
  <path class="cls-5" d="M837.4,206.8s-280.9,68.2-325.8,84.7-133.3,54.1-258.6,79.1c-22.1,4.4-28.3,22.7-23.6,43.8s18,99,127.5,70.7c214.9-55.5,257.3-91.4,296.4-106.3,24.8-9.4,86,2.4,336.6-69.7,250.6-72-152.5-102.4-152.5-102.4h0Z"/>
  <path class="cls-7" d="M335.3,825.3c13.2-10.6,61-34.8,82.1-32.5,0,0-67.8-9.5-95.5,5"/>
  <path class="cls-7" d="M326.4,642.9c9.1-8.5,64.1-38.6,69-31.9-7.3-7.1-45.3.8-67.8,20"/>
  <path class="cls-7" d="M571.2,391.5c-14.8-6.4-97.6-4.8-102.4,13.1,7.8-21.2,61.5-46.8,97.4-34.5"/>
  <path class="cls-7" d="M305.9,724.1c-5.5-11.3-34.7-43.9-55.9-50.9,0,0,69.4,21.2,86,40.4"/>
  <path class="cls-7" d="M570.5,685.3c-31-3.7-91,29.4-91,29.4,18.9-9.7,72.2-4.2,88.3,1"/>
  <path class="cls-7" d="M555.2,676.7c23.8-8.9,94.8,6.1,94.8,6.1-21.9-4.1-63.3,10.4-73.5,17.6"/>
  <path class="cls-7" d="M321.8,446.5c8,1.1,18.5-6.6,22.4-6.6s30.4,0,31,11.9-30.4,49.5-29.7,148.5-7.3,50.8-5.3,89.8,4,53.5,4,81.9-7.3,61.4-6.6,73.3,4,31.7.7,37.6-13.2,12.5-13.2,12.5l-6.6-5.9s.7-73.9,0-89.1-.7-72.6,0-90.4,1.6-89.8-.5-109.6,2.1-59.4,0-72-5.4-32.3-8.7-38.3-19.1-16.5-17.8-25.1,6.6-17.8,13.2-18.5,7.3-1.3,17.2,0h0Z"/>
  <path class="cls-7" d="M767.1,307.3c16.9-6.5,54.7-17.5,60.1-12s6.6,48.1,12,70,18.6,85.3,32.8,114.8,42.7,112.6,49.2,126.9,24.1,80.9,25.2,93-8.7,38.3-8.7,38.3c0,0-9.8-50.3-18.6-80.9s-21.9-74.4-37.2-107.2-31.7-62.3-40.5-82-29.5-56.9-43.7-72.2-17.5-40.5-30.6-51.4-28.4-19.7-23-26.2,9.7-5.8,23-10.9Z"/>
  <circle class="cls-5" cx="985.1" cy="681.2" r="17.4"/>
  <path class="cls-7" d="M1010.5,668.8c-17.4-1.4-70.8,12.8-85.6,25,0,0,45.9-40.9,77.2-43.8"/>
  <g id="tybalt">
    <g id="backFoot">
      <polygon class="cls-2" points="1042.3 830.8 1044.5 865.5 1081.9 863.8 1079.6 839.4 1077.7 828.5 1075.7 820 1062.1 824.6 1042.3 830.8"/>
      <path class="cls-6" d="M1081.9,863.8c-8.6,1.8-30.7,3.6-37.5,1.7.9-15.4-2.1-34.7-2.1-34.7"/>
    </g>
    <g id="torso">
      <polygon class="cls-2" points="937 828.5 962.7 835.8 1000.1 836.5 1032.5 832.5 1059.8 825.4 1089.1 813 1110.8 788.3 1130.1 755.3 1112.4 720.6 1093.1 703.7 1062.1 693.4 1027.4 692.1 995.1 697.1 967.9 702.3 953.5 705.4 937 724.6 926.6 778 929.6 809 937 828.5"/>
      <path class="cls-6" d="M962.7,835.8c28.6,4,82.6-1.4,109.6-15.8"/>
    </g>
    <path class="cls-7" d="M926.6,712.8c41.3-10.5,92,120.6,37.4,122.8,0,0,8.5.9,23.9.9,40.5,0,7.2-139.4-37.7-130.6-60.1,11.8-23.6,6.9-23.6,6.9Z"/>
    <g id="farFrontLeg">
      <polygon class="cls-2" points="866.5 712.8 864.9 810.5 866.5 869.9 906.6 869.9 934 848.6 953.5 788.3 953.5 737.8 953 692.1 951.9 662 947.4 616.6 937 576.7 924.4 558.5 906.1 551.8 882.4 557.2 862.3 578 854.5 597.5 851.9 634.2 864.9 697.8 866.5 712.8"/>
      <path class="cls-1" d="M866.2,732.1c3.3,7.9,5.9,13.8,10.5,15.3,4.6,1.5,15.4-5.3,14.7-9.6-.6-3.3,3.5-12.1,11.3-17s-.5-11.3-6.8-12.3-9.5-15.8-21-21.7c-4.1-2.1-8.3-1.8-12.2.3l2.2,10.8,1.6,15-.3,19.2h0s0,0,0,0Z"/>
      <path class="cls-6" d="M906.6,869.9c-6.7,3.1-32.9,1.7-40.1,0-3.6-58.1,0-157,0-157"/>
    </g>
    <g id="closeBackLeg">
      <polygon class="cls-2" points="1059.6 779 1069.3 800 1076.9 824.7 1081.9 848.6 1081.9 871.7 1081.3 884.2 1112.8 883 1138.9 875.8 1141.8 871.7 1141.8 837.1 1136.1 779 1126.1 744.3 1117.2 727.3 1100.7 708.9 1085.7 699.9 1057.6 730 1055.6 759 1059.6 779"/>
      <path class="cls-6" d="M953.5,705.4c113.2-24.2,194.7-37.8,187.8,169.3-1.4.6-2.4,1.1-2.4,1.1-6.7,3.1-50.4,10.1-57.6,8.4,3.9-60.4-18-97.2-18-97.2"/>
    </g>
    <g id="Head">
      <path class="cls-6" d="M852.1,634.2s-6.6-82.4,54-82.4,47.4,79.2,47.4,186"/>
      <g>
        <circle class="cls-4" cx="866.5" cy="618.4" r="12"/>
        <circle class="cls-3" cx="871.9" cy="614.2" r="2.4"/>
      </g>
      <polygon class="cls-2" points="883.9 712.8 851.9 712.1 833.4 709.3 808.9 698.6 798.8 683.1 798.1 671.9 803.4 659.4 813 649.6 832.8 639.4 852.1 634.2 878.5 631 890.6 656 895.9 692.1 883.9 712.8"/>
      <path class="cls-1" d="M898.6,739.1c4.1-.5,10.6,6.3,10,9.6s-8.2,7.8-12.6,7.3-4.9-16.1,2.6-16.9Z"/>
      <path class="cls-1" d="M889.7,702.9c-3.5-5.1-7.5-12.4-14.8-16.2-11.5-5.9-24,7.4-27.9,24.1l.6.6,4.3.7,32,.7,5.8-10h0Z"/>
      <path class="cls-1" d="M892.6,706.5c-3.5-5.1-10.3-16-17.6-19.8-11.5-5.9-24,7.4-27.9,24.1l.6.6,4.3.7"/>
      <path class="cls-6" d="M876.7,631s-77.4,3-78.6,45,78.6,36.6,78.6,36.6"/>
      <g>
        <circle class="cls-4" cx="895.9" cy="621.4" r="12"/>
        <circle class="cls-3" cx="900.7" cy="616.6" r="2.4"/>
      </g>
    </g>
    <g id="closeFrontLeg">
      <polygon class="cls-2" points="906.9 792.3 906.6 823.9 906 856.7 906.9 877 907.9 896 957.5 894.1 958.4 855.7 963.6 813.2 970.8 792.3 962.7 768.8 938.4 764.8 915.6 768 907.3 782.8 906.9 792.3"/>
      <path class="cls-6" d="M967.9,797.8c-10.8,30-10.2,79.2-10.5,96.3-6.8,3.1-42.9,2-49.7.3-3.6-58.2-.4-111.6-.4-111.6"/>
    </g>
  </g>
  <path class="cls-7" d="M1006.5,695.4c17-3.9,95.9,124.7,38.2,135.5,0,0,0,1.3,31.1-10.8s-13.2-128.4-47.4-127.2-21.9,2.6-21.9,2.6h0Z"/>
  <path class="cls-7" d="M1257,523.8c-26.2,33.9-73.3,93-91.9,111.5s-82,88.6-84.2,93-20.8,19.7-20.8,19.7l2,22s53.8-64.6,122.7-124.2,72.2-121.9,72.2-121.9h0Z"/>
  <circle class="cls-5" cx="581.6" cy="702.2" r="21"/>
  <circle class="cls-5" cx="546" cy="687.1" r="21"/>
  <path class="cls-7" d="M1071.1,340.1c3.3,35,12,115.9,10.9,144.4s-8.7,98.4-10.9,119.2-10.9,70-12,93-7.7,54.7-7.7,54.7l11.2,31.5s14.2-102.6,19.5-150.7,21.8-150.9,30.5-179.4,29.5-66.7,29.5-66.7l-5.5-76.6-65.6,30.6h0Z"/>
  <path class="cls-7" d="M1044.8,326.9c0,37.2-1.1,141.1-5.5,169.5s-31.7,120.3-39.4,137.8-32.8,83.1-35,89.7,7.9,25.6,15.5,5.9,31.5-62.8,39.1-86.8c7.7-24.1,31.7-100.6,36.1-117s17.5-49.2,26.2-62.3,48.1-53.6,70-71.1-29.5-118.1-29.5-118.1l-77.6,52.5h0Z"/>
  <path class="cls-7" d="M1127.3,694.3c21.1,16.8,26.4,62.4,16.6,75.7,9-10.2-19.1-59-28.6-65.4"/>
  <path class="cls-5" d="M1492.1,64.5s-361.5,42.6-408.9,39.5-302-18.7-368.7-19.7-158.5,16.8-210.8,12c-33.5-3-133-7.2-207-10.9-41.7-2-74.9-11-84.1-5.3-26.1,16.1-27.4,89.7,21.9,120.8,78.1,49.3,176,30.4,207.4,35.2s216.8,15.7,266.8,21,429.8,35.9,468,327.6c10.4,79.8-132.9,289.8-142.5,395.1s105.1,144.7,144.4,128.2c0,0,111.7-435.3,313.7-550.3s0-493.3,0-493.3h0Z"/>
  <path class="cls-7" d="M533.3,183c19.5,2.2,13.9,4.6,26.6,4.6s20.8-2.3,28.9-2.3,31.2,5.8,39.3,12.7,18.5,12.7,18.5,19.7-50.9,106.4-50.9,136.4-4.6,64.8-5.8,92.5-12.7,65.9-12.7,84.4,1.7,76,2.5,102.7-3.3,56.2-3.3,66.7-9.6,80.4-9.6,97.8-4.6,42.8-6.9,49.7-10.4-4.6-10.4-4.6c0,0,3.5-27.8,4.6-63.6s12.7-96,8.1-128.3-4.6-106.4-6.9-126-10.4-89.8-8.1-110.8-4.6-73-13.9-96.2-39.3-82.1-37-97.1,22.9-39.7,37-38.2h0Z"/>
  <g>
    <circle class="cls-5" cx="554.8" cy="740.6" r="17.4"/>
    <circle class="cls-5" cx="581.6" cy="723.2" r="17.4"/>
    <circle class="cls-5" cx="343.6" cy="884.2" r="17.4"/>
    <path class="cls-7" d="M326.2,865.5c17.6,15.2,69,31,82.8,36.1,0,0-44.6-52-74.9-59.4"/>
    <circle class="cls-5" cx="308.8" cy="865.5" r="17.4"/>
    <circle class="cls-5" cx="679.8" cy="848.1" r="17.4"/>
    <circle class="cls-5" cx="703.4" cy="913.5" r="17.4"/>
    <circle class="cls-5" cx="1006.1" cy="681.2" r="21" transform="translate(172.5 1565.2) rotate(-80.8)"/>
    <circle class="cls-5" cx="348.7" cy="820" r="21"/>
    <circle class="cls-5" cx="308.5" cy="733.8" r="21"/>
    <circle class="cls-5" cx="895.9" cy="506.5" r="21"/>
    <circle class="cls-5" cx="1086.3" cy="657.2" r="21"/>
    <circle class="cls-5" cx="546" cy="836.5" r="14.9"/>
    <circle class="cls-5" cx="318.5" cy="895.4" r="17.4"/>
    <path class="cls-7" d="M558.9,828c-12.2.3-49.5,9.1-59.7,19.7,0,0,31.8-35.4,53.7-40.1"/>
    <circle class="cls-5" cx="540.4" cy="807.5" r="21"/>
    <path class="cls-7" d="M572.3,692.2c37.5-.5,82.9,33.1,90,50.3-24.5-15.4-79.1-23.5-98.1-33.7"/>
    <path class="cls-7" d="M561.4,720.9c-17.4-1.4-66.9,12.9-81.7,25.1,0,0,45.9-40.9,77.2-43.8"/>
    <circle class="cls-5" cx="564.2" cy="849.5" r="17.4"/>
    <circle class="cls-5" cx="574.6" cy="821.7" r="21"/>
    <circle class="cls-5" cx="543.2" cy="710.8" r="21"/>
  </g>
  <path class="cls-7" d="M581.6,340.8c20.2-3.7,83.5-4.1,102.3,7.6,0,0-58.7-39.7-95.7-39"/>
  <path class="cls-7" d="M329.5,859.2c-19,10.2-73.6,18.4-98.1,33.7,7.1-17.2,51.7-52.7,89.2-52.2"/>
  <path class="cls-7" d="M326.3,542c-17.4-1.4-70.8,12.8-85.6,25,0,0,45.9-40.9,77.2-43.8"/>
  <path class="cls-7" d="M342.3,538.6c-14.7,9.4-54.1,46.4-58.7,65.3,0,0,12.8-60.9,36.1-82.3"/>
  <path class="cls-7" d="M344,506.6c13.2-1.1,79.7,15.4,84.5,26.7-.5-18.5-43.9-41.9-75-41.9"/>
  <path class="cls-7" d="M333.1,719.4c-15.6-4.1-97.2,10.3-99.2,28.7,4.5-22.1,53.6-55.7,91-49"/>
  <path class="cls-7" d="M560.2,796.1c12.2,2.3,50.8,27,61.5,43.3,0,0-35.3-54.9-57.3-64.8"/>
  <path class="cls-7" d="M695.5,656.1c-14-5.3-59.1-13.6-73.9-7.3,0,0,46.6-21.9,72.9-16.7"/>
  <path class="cls-7" d="M702.8,878c26.6-4.5,61.9,20.5,65.3,36.7-1.6-13.5-59.9-24.8-71-21.9"/>
  <path class="cls-7" d="M701.4,839.5c-17.4-1.4-70.8,12.8-85.6,25,0,0,47.4-41.7,78.6-44.6"/>
  <path class="cls-7" d="M868,478.5c24.5-11,74.8,0,74.8,0-15.8-2.8-57.9,15.3-70.4,23.6"/>
  <path class="cls-7" d="M1017.2,644.2c27,16.1,51.9,74,51.9,74-8.1-17.4-50.2-53.1-66.5-59.4"/>
  <path class="cls-7" d="M1077.4,627.9c22.7-.3,49.8,21.2,54.1,31.6-14.9-9.3-48-14.2-59.5-20.4"/>
</svg>