<?xml version="1.0" encoding="utf-8"?>
<!-- Generator: Adobe Illustrator 28.3.0, SVG Export Plug-In . SVG Version: 6.00 Build 0)  -->
<svg version="1.1" id="Layer_1" xmlns="http://www.w3.org/2000/svg" xmlns:xlink="http://www.w3.org/1999/xlink" x="0px" y="0px"
	 viewBox="0 0 558.8 48" style="enable-background:new 0 0 558.8 48;" xml:space="preserve">
<style type="text/css">
	.st0{fill:#F0F0F0;}
</style>
<g>
	<path class="st0" d="M42.2,47.2l-0.1-27.8L28.5,42.3h-4.8L10.1,19.9v27.2H0V0.8h8.9l17.4,28.8L43.3,0.8h8.8l0.1,46.4
		C52.3,47.2,42.2,47.2,42.2,47.2z"/>
	<path class="st0" d="M93,37.2H71.4l-4.1,9.9h-11L77,0.8h10.6l20.7,46.4H97.1L93,37.2z M89.6,29.1l-7.3-17.8l-7.3,17.8H89.6z"/>
	<path class="st0" d="M107,24c0-14,10.7-24,25.2-24c8,0,14.7,2.9,19.1,8.2l-6.9,6.4c-3.1-3.6-7-5.4-11.7-5.4
		c-8.7,0-14.8,6.1-14.8,14.8s6.2,14.8,14.8,14.8c4.6,0,8.6-1.9,11.7-5.5l6.9,6.4c-4.4,5.4-11.1,8.3-19.1,8.3C117.7,48,107,38,107,24
		z"/>
	<path class="st0" d="M186.5,47.2l-8.9-12.9H177h-9.3v12.9h-10.7V0.8H177c12.4,0,20.1,6.4,20.1,16.8c0,7-3.5,12.1-9.5,14.6L198,47.2
		C198,47.2,186.5,47.2,186.5,47.2z M176.4,9.5h-8.8v16.2h8.8c6.6,0,9.9-3,9.9-8.1C186.3,12.5,182.9,9.5,176.4,9.5z"/>
	<path class="st0" d="M201.4,24c0-13.8,10.7-24,25.4-24c14.6,0,25.4,10.1,25.4,24c0,13.9-10.8,24-25.4,24
		C212.1,48,201.4,37.8,201.4,24z M241.3,24c0-8.8-6.2-14.8-14.5-14.8s-14.5,6-14.5,14.8s6.2,14.8,14.5,14.8
		C235.1,38.8,241.3,32.8,241.3,24z"/>
	<path class="st0" d="M299.5,17.6c0,10.3-7.8,16.8-20.1,16.8H270v12.8h-10.7V0.8h20.1C291.7,0.8,299.5,7.2,299.5,17.6z M288.6,17.6
		c0-5.1-3.3-8.1-9.9-8.1H270v16.1h8.8C285.3,25.6,288.6,22.7,288.6,17.6z"/>
	<path class="st0" d="M333.5,37.2h-21.5l-4.1,9.9h-11l20.7-46.4h10.6l20.7,46.4h-11.3L333.5,37.2z M330.1,29.1l-7.4-17.8l-7.4,17.8
		H330.1z"/>
	<path class="st0" d="M352.8,0.8h21.1c15.2,0,25.6,9.1,25.6,23.2S389,47.2,373.9,47.2h-21.1V0.8z M373.3,38.4
		c9.2,0,15.2-5.5,15.2-14.4s-6-14.4-15.2-14.4h-9.8v28.8L373.3,38.4L373.3,38.4z"/>
	<path class="st0" d="M433,44.1v3h-31.9v-2.4l19.6-19.5c5.5-5.5,6.6-8.8,6.6-12.3c0-5.8-4-9.5-11.7-9.5c-5.8,0-10.1,1.7-13.3,5.4
		l-2.4-2.1c3.5-4,9-6.4,16-6.4c9.1,0,14.9,4.7,14.9,12.3c0,4.4-1.5,8.4-7.5,14.4l-17.1,17L433,44.1L433,44.1z"/>
	<path class="st0" d="M436.9,24c0-14.5,7.5-23.5,18.1-23.5c10.7,0,18.1,9,18.1,23.5s-7.5,23.5-18.1,23.5
		C444.4,47.5,436.9,38.5,436.9,24z M469.8,24c0-12.9-6-20.4-14.8-20.4c-8.8,0-14.8,7.5-14.8,20.4s6,20.4,14.8,20.4
		C463.8,44.4,469.8,36.9,469.8,24z"/>
	<path class="st0" d="M518,34.3h-9.7v12.8h-3.3V34.3h-26.4v-2.5l25.2-31.1h3.8l-24.7,30.5H505V20h3.2v11.3h9.7L518,34.3L518,34.3z"
		/>
	<path class="st0" d="M522.5,24c0-14.5,7.5-23.5,18.2-23.5c10.7,0,18.2,9,18.2,23.5s-7.5,23.5-18.2,23.5
		C530,47.5,522.5,38.5,522.5,24z M555.5,24c0-12.9-6-20.4-14.8-20.4c-8.8,0-14.8,7.5-14.8,20.4s6,20.4,14.8,20.4
		C549.4,44.4,555.5,36.9,555.5,24z"/>
</g>
</svg>
