<?xml version="1.0" encoding="utf-8"?>
<!-- Generator: Adobe Illustrator 28.3.0, SVG Export Plug-In . SVG Version: 6.00 Build 0)  -->
<svg version="1.1" id="Layer_1" xmlns="http://www.w3.org/2000/svg" xmlns:xlink="http://www.w3.org/1999/xlink" x="0px" y="0px"
	 viewBox="0 0 558.85 47.97" style="enable-background:new 0 0 558.85 47.97;" xml:space="preserve">
<style type="text/css">
	.st0{fill:#2A2C41;}
</style>
<g>
	<path class="st0" d="M42.2,47.17l-0.07-27.83L28.49,42.27h-4.84L10.07,19.94v27.23H0V0.79h8.88l17.36,28.82L43.33,0.79h8.81
		l0.13,46.38H42.2z"/>
	<path class="st0" d="M92.98,37.23H71.45l-4.11,9.94h-11L77.01,0.79h10.6l20.74,46.38H97.09L92.98,37.23z M89.6,29.09l-7.35-17.76
		l-7.35,17.76H89.6z"/>
	<path class="st0" d="M106.99,23.98C106.99,10,117.72,0,132.17,0c8.02,0,14.71,2.92,19.08,8.22l-6.89,6.36
		c-3.11-3.58-7.02-5.43-11.66-5.43c-8.68,0-14.84,6.09-14.84,14.84c0,8.75,6.16,14.84,14.84,14.84c4.64,0,8.55-1.86,11.66-5.5
		l6.89,6.36c-4.37,5.37-11.06,8.28-19.15,8.28C117.72,47.97,106.99,37.96,106.99,23.98z"/>
	<path class="st0" d="M186.46,47.17l-8.94-12.92h-0.53h-9.34v12.92h-10.73V0.79h20.07c12.39,0,20.14,6.43,20.14,16.83
		c0,6.96-3.51,12.06-9.54,14.64l10.4,14.91H186.46z M176.39,9.54h-8.75v16.17h8.75c6.56,0,9.87-3.05,9.87-8.08
		C186.26,12.52,182.95,9.54,176.39,9.54z"/>
	<path class="st0" d="M201.41,23.98C201.41,10.2,212.14,0,226.78,0c14.58,0,25.38,10.14,25.38,23.98c0,13.85-10.8,23.98-25.38,23.98
		C212.14,47.97,201.41,37.76,201.41,23.98z M241.29,23.98c0-8.81-6.23-14.84-14.51-14.84c-8.28,0-14.51,6.03-14.51,14.84
		c0,8.81,6.23,14.84,14.51,14.84C235.07,38.83,241.29,32.8,241.29,23.98z"/>
	<path class="st0" d="M299.48,17.62c0,10.33-7.75,16.76-20.14,16.76H270v12.79h-10.73V0.79h20.08
		C291.73,0.79,299.48,7.22,299.48,17.62z M288.61,17.62c0-5.1-3.31-8.08-9.87-8.08H270v16.1h8.75
		C285.3,25.64,288.61,22.66,288.61,17.62z"/>
	<path class="st0" d="M333.45,37.23h-21.53l-4.11,9.94h-11l20.67-46.38h10.6l20.74,46.38h-11.26L333.45,37.23z M330.08,29.09
		l-7.35-17.76l-7.35,17.76H330.08z"/>
	<path class="st0" d="M352.8,0.79h21.07c15.17,0,25.57,9.14,25.57,23.19s-10.4,23.19-25.57,23.19H352.8V0.79z M373.33,38.36
		c9.21,0,15.24-5.5,15.24-14.38s-6.03-14.38-15.24-14.38h-9.81v28.75H373.33z"/>
	<path class="st0" d="M433.04,44.12v3.05h-31.87v-2.38l19.61-19.48c5.5-5.5,6.56-8.75,6.56-12.26c0-5.83-4.04-9.47-11.73-9.47
		c-5.83,0-10.14,1.72-13.32,5.37l-2.38-2.12c3.51-4.04,9.01-6.36,15.97-6.36c9.08,0,14.91,4.7,14.91,12.26
		c0,4.44-1.46,8.35-7.55,14.38l-17.09,17.03H433.04z"/>
	<path class="st0" d="M436.86,23.98c0-14.51,7.49-23.52,18.15-23.52c10.67,0,18.15,9.01,18.15,23.52c0,14.51-7.49,23.52-18.15,23.52
		C444.35,47.5,436.86,38.49,436.86,23.98z M469.79,23.98c0-12.92-6.03-20.41-14.77-20.41c-8.75,0-14.78,7.49-14.78,20.41
		c0,12.92,6.03,20.41,14.78,20.41C463.76,44.39,469.79,36.9,469.79,23.98z"/>
	<path class="st0" d="M517.98,34.32h-9.74v12.85h-3.31V34.32h-26.44v-2.45l25.18-31.07h3.78l-24.71,30.54H505V20.01h3.25v11.33h9.74
		V34.32z"/>
	<path class="st0" d="M522.54,23.98c0-14.51,7.49-23.52,18.15-23.52c10.67,0,18.15,9.01,18.15,23.52c0,14.51-7.49,23.52-18.15,23.52
		C530.03,47.5,522.54,38.49,522.54,23.98z M555.47,23.98c0-12.92-6.03-20.41-14.77-20.41c-8.75,0-14.78,7.49-14.78,20.41
		c0,12.92,6.03,20.41,14.78,20.41C549.44,44.39,555.47,36.9,555.47,23.98z"/>
</g>
</svg>
