<?xml version="1.0" encoding="UTF-8"?>
<svg id="Layer_1" xmlns="http://www.w3.org/2000/svg" version="1.1" viewBox="0 0 269.04 276">
  <!-- Generator: Adobe Illustrator 30.4.0, SVG Export Plug-In . SVG Version: 2.1.4 Build 226)  -->
  <defs>
    <style>
      .st0 {
        fill: #b0d6c4;
      }

      .st1 {
        fill: #a4303f;
      }

      .st2 {
        fill: #6b563c;
      }

      .st3 {
        fill: #9a8670;
      }

      .st4 {
        fill: #f2d0a4;
      }
    </style>
  </defs>
  <path class="st4" d="M155.19,120.73l-4.5.45-8.33.84c-1.67.16-3.74.19-5.38,0l-6.99-.84c-1.27-.16-2.49-.27-3.74-.33-3.01,5.89-4.37,11.98-4.15,18.63l37.41-.02c-.13-6.63-1.34-12.97-4.32-18.71h0Z"/>
  <path class="st0" d="M114.84,120.73l-4.5.45-8.33.84c-1.67.16-3.74.19-5.38,0l-6.99-.84c-1.27-.16-2.49-.27-3.74-.33-3.01,5.89-4.37,11.98-4.15,18.63l37.41-.02c-.13-6.63-1.34-12.97-4.32-18.71h0Z"/>
  <path class="st4" d="M235.9,120.73l-4.5.45-8.33.84c-1.67.16-3.74.19-5.38,0l-6.99-.84c-1.27-.16-2.49-.27-3.74-.33-3.01,5.89-4.37,11.98-4.15,18.63l37.41-.02c-.13-6.63-1.34-12.97-4.32-18.71h0Z"/>
  <path class="st0" d="M195.55,120.73l-4.5.45-8.33.84c-1.67.16-3.74.19-5.38,0l-6.99-.84c-1.27-.16-2.49-.27-3.74-.33-3.01,5.89-4.37,11.98-4.15,18.63l37.41-.02c-.13-6.63-1.34-12.97-4.32-18.71h0Z"/>
  <rect class="st2" x="37.34" y="120.73" width="9.72" height="30.12"/>
  <rect class="st1" x="29.5" y="104.97" width="25.41" height="32.53"/>
  <rect class="st3" x="16.04" y="139.46" width="236.96" height="31.57" rx="3.98" ry="3.98"/>
  <rect class="st2" x="76.89" y="137.52" width="8.91" height="1.95"/>
  <rect class="st2" x="235.77" y="137.52" width="8.91" height="1.95"/>
</svg>